 <svg version="1.0" xmlns="http://www.w3.org/2000/svg" width="328px" height="54px" viewBox="0 0 328 54" preserveAspectRatio="xMidYMid meet">
<metadata>
Created by potrace 1.12, written by Peter Selinger 2001-2015
</metadata>
<g transform="translate(0.000000,700.000000) scale(0.100000,-0.100000)" fill="#000000" stroke="none">
<path d="M1901 4876 c-9 -11 -12 -140 -10 -499 1 -267 -2 -490 -5 -496 -10
-16 -56 -13 -62 4 -9 22 -79 67 -149 95 -52 22 -74 25 -175 24 -168 -1 -266
-39 -389 -150 -160 -144 -222 -355 -182 -624 35 -239 203 -432 426 -491 156
-41 344 -8 444 77 51 44 84 43 89 -1 2 -16 8 -36 14 -42 14 -18 229 -18 246
-1 17 17 17 2089 0 2106 -18 18 -232 16 -247 -2z m-205 -1136 c88 -41 156
-120 189 -219 93 -281 -67 -554 -330 -562 -72 -2 -124 13 -191 55 -140 85
-204 275 -160 471 27 120 113 221 231 269 78 33 170 28 261 -14z"></path>
<path d="M4563 3995 c-97 -93 -121 -102 -174 -64 -16 11 -61 32 -101 46 -65
23 -89 26 -218 26 -160 1 -221 -12 -344 -77 -70 -36 -201 -161 -221 -210 -8
-19 -19 -37 -24 -40 -5 -4 -22 -45 -38 -94 -26 -80 -28 -99 -28 -238 0 -121 3
-155 16 -175 9 -13 19 -38 23 -55 4 -18 18 -46 32 -65 42 -57 34 -79 -61 -176
-86 -88 -95 -106 -72 -136 18 -24 88 -77 102 -77 7 0 50 39 96 86 102 104 112
110 136 85 29 -30 113 -68 201 -90 328 -84 665 76 783 373 73 182 52 450 -45
593 -41 60 -35 77 50 162 103 102 105 110 48 166 -24 25 -51 45 -59 45 -7 0
-53 -38 -102 -85z m-393 -238 c97 -33 95 -45 -33 -175 -57 -59 -166 -171 -243
-249 -76 -79 -146 -143 -156 -143 -10 0 -26 12 -35 27 -15 22 -18 49 -18 148
0 114 2 123 32 187 65 138 198 222 358 226 17 1 59 -9 95 -21z m227 -205 c49
-31 60 -241 19 -355 -44 -120 -121 -189 -254 -226 -79 -22 -154 -18 -252 11
-37 11 -46 18 -48 41 -3 23 21 51 161 194 90 93 202 207 248 256 80 84 100 96
126 79z"></path>
<path d="M3040 4004 c-41 -8 -130 -55 -141 -75 -14 -27 -79 -27 -79 0 0 36
-28 46 -135 48 -67 1 -109 -3 -119 -10 -15 -11 -17 -66 -16 -601 0 -324 3
-593 6 -597 3 -5 59 -9 125 -9 91 0 121 3 125 14 3 7 6 172 8 367 3 382 9 436
57 503 33 46 82 86 121 97 43 12 144 12 188 -1 43 -12 67 -5 75 23 5 19 20 53
67 149 15 32 9 44 -33 68 -34 18 -60 23 -133 26 -50 1 -102 0 -116 -2z"></path>
<path d="M5590 4003 c-73 -15 -213 -90 -224 -119 -7 -19 -42 -18 -50 2 -3 9
-6 29 -6 44 0 43 -25 51 -145 47 -80 -2 -108 -6 -115 -17 -14 -22 -13 -1836 0
-1861 10 -17 22 -19 124 -19 83 0 117 4 125 13 7 10 12 132 13 387 3 429 2
422 80 359 66 -53 94 -69 171 -95 95 -32 173 -31 290 3 160 47 264 137 365
315 38 68 72 214 72 313 0 196 -109 432 -237 514 -21 13 -51 33 -66 43 -60 41
-167 70 -272 73 -55 2 -111 1 -125 -2z m194 -255 c101 -39 171 -127 213 -262
19 -64 23 -94 19 -144 -19 -225 -168 -381 -364 -382 -69 0 -140 18 -175 44
-57 42 -117 99 -117 110 0 7 -11 26 -24 44 -36 50 -53 212 -32 313 20 95 54
157 118 213 103 90 237 114 362 64z"></path>
</g>
</svg>