<svg id="svg" version="1.1" xmlns="http://www.w3.org/2000/svg" xmlns:xlink="http://www.w3.org/1999/xlink" width="400" height="400" viewBox="0, 0, 400,400"><g id="svgg"><path id="path0" d="M109.500 121.076 C 108.842 121.248,108.800 122.952,108.800 149.749 C 108.800 180.793,108.928 179.205,106.420 179.194 C 104.770 179.187,104.430 178.990,103.482 177.500 C 103.097 176.895,102.540 176.400,102.246 176.400 C 101.951 176.400,101.031 175.860,100.200 175.200 C 99.369 174.540,98.520 174.000,98.312 174.000 C 98.104 174.000,96.734 173.481,95.267 172.847 C 91.208 171.093,80.093 170.794,77.800 172.377 C 77.580 172.529,76.320 172.979,75.000 173.376 C 70.023 174.872,67.497 176.487,62.707 181.234 C 60.558 183.363,58.800 185.395,58.800 185.749 C 58.800 186.103,58.444 186.616,58.009 186.887 C 57.573 187.159,56.915 188.376,56.545 189.591 C 56.176 190.806,55.551 192.161,55.158 192.603 C 54.029 193.870,52.647 203.998,52.948 208.800 C 53.334 214.947,54.595 222.800,55.197 222.800 C 55.383 222.800,55.836 223.706,56.204 224.812 C 56.572 225.919,57.282 227.314,57.782 227.912 C 58.281 228.511,58.821 229.415,58.980 229.923 C 60.030 233.277,70.151 241.130,75.000 242.353 C 76.100 242.631,77.900 243.113,79.000 243.425 C 87.139 245.734,98.099 243.419,103.257 238.300 C 106.067 235.510,108.800 236.322,108.800 239.947 C 108.800 241.238,108.968 241.599,109.671 241.823 C 110.789 242.177,121.792 242.176,122.366 241.821 C 122.963 241.452,122.982 122.688,122.386 121.574 C 121.985 120.824,111.948 120.436,109.500 121.076 M261.373 171.878 C 257.093 176.296,255.486 177.366,253.715 176.979 C 251.693 176.537,250.375 175.901,249.990 175.181 C 249.767 174.764,248.908 174.355,247.905 174.188 C 246.205 173.905,243.612 173.065,242.317 172.377 C 239.505 170.884,224.864 171.191,221.315 172.818 C 220.389 173.242,218.769 173.782,217.715 174.017 C 216.662 174.252,215.350 174.749,214.800 175.121 C 214.250 175.493,213.300 176.016,212.689 176.284 C 212.078 176.551,210.717 177.497,209.664 178.385 C 208.610 179.273,207.620 180.000,207.464 180.000 C 206.612 180.000,201.163 186.477,200.398 188.400 C 200.091 189.170,199.531 190.025,199.152 190.300 C 198.758 190.587,198.183 192.037,197.806 193.696 C 197.443 195.288,196.885 197.142,196.565 197.816 C 194.624 201.908,194.759 215.028,196.784 218.978 C 197.229 219.845,197.706 221.195,197.844 221.978 C 197.983 222.760,198.704 224.195,199.448 225.166 C 201.462 227.796,201.441 231.070,199.400 232.627 C 198.630 233.214,198.000 233.905,198.000 234.161 C 198.000 234.418,197.471 234.940,196.824 235.322 C 196.178 235.704,195.535 236.375,195.396 236.813 C 195.257 237.251,194.616 237.881,193.972 238.215 C 193.327 238.548,192.800 239.073,192.800 239.381 C 192.800 239.690,192.352 240.294,191.804 240.725 C 190.961 241.388,190.896 241.582,191.380 241.983 C 191.695 242.244,192.008 242.848,192.076 243.325 C 192.144 243.802,192.687 244.425,193.283 244.710 C 193.878 244.994,194.900 245.761,195.552 246.414 C 197.208 248.069,198.593 247.997,199.653 246.200 C 200.107 245.430,200.721 244.800,201.018 244.800 C 201.314 244.800,201.793 244.307,202.082 243.704 C 202.371 243.101,203.101 242.371,203.704 242.082 C 204.343 241.775,204.800 241.232,204.800 240.778 C 204.800 240.350,204.954 240.000,205.142 240.000 C 205.329 240.000,205.976 239.543,206.578 238.985 C 209.082 236.665,209.314 236.625,211.186 238.188 C 212.115 238.965,213.087 239.600,213.345 239.600 C 213.603 239.600,214.460 240.039,215.250 240.576 C 216.040 241.112,217.927 241.856,219.443 242.229 C 220.959 242.601,223.190 243.197,224.400 243.553 C 227.114 244.351,239.126 244.491,240.039 243.735 C 240.348 243.480,242.040 242.911,243.800 242.472 C 246.622 241.767,252.251 239.224,252.800 238.406 C 252.910 238.242,253.755 237.725,254.679 237.257 C 255.602 236.789,256.502 236.176,256.679 235.896 C 256.855 235.616,257.613 234.883,258.363 234.266 C 259.843 233.049,261.224 231.364,263.415 228.100 C 264.190 226.945,264.986 226.000,265.184 226.000 C 265.382 226.000,265.740 225.055,265.980 223.900 C 266.220 222.745,266.876 220.810,267.439 219.600 C 269.252 215.701,269.688 201.301,268.105 197.600 C 266.910 194.804,266.000 192.197,266.000 191.568 C 266.000 191.214,265.594 190.452,265.097 189.874 C 264.601 189.296,263.837 188.143,263.401 187.312 C 262.965 186.480,262.452 185.688,262.261 185.550 C 262.071 185.413,262.114 185.177,262.357 185.026 C 262.601 184.876,262.806 184.268,262.813 183.676 C 262.828 182.449,263.874 181.021,265.026 180.655 C 265.456 180.519,265.986 180.001,266.204 179.505 C 266.422 179.009,267.095 178.368,267.700 178.080 C 268.305 177.792,268.800 177.314,268.800 177.018 C 268.800 176.721,269.406 176.121,270.147 175.684 C 272.533 174.276,272.498 172.433,270.040 170.039 C 266.734 166.818,266.157 166.941,261.373 171.878 M174.023 171.655 C 172.825 171.853,171.551 172.283,171.190 172.609 C 170.829 172.936,169.680 173.494,168.636 173.849 C 167.420 174.264,166.585 174.833,166.311 175.436 C 166.057 175.992,165.292 176.557,164.441 176.816 C 163.648 177.058,162.583 177.460,162.074 177.709 C 160.946 178.262,160.415 177.642,160.406 175.762 C 160.395 173.568,159.652 173.314,153.400 173.363 C 150.033 173.389,147.492 173.587,147.028 173.859 C 145.792 174.585,145.764 241.374,147.000 241.907 C 147.786 242.246,158.939 242.170,159.881 241.819 C 160.245 241.683,160.368 237.021,160.388 222.520 C 160.403 212.004,160.575 202.320,160.771 201.000 C 161.389 196.831,162.625 192.822,163.562 191.949 C 164.050 191.495,164.615 190.687,164.817 190.154 C 165.020 189.622,165.594 189.028,166.093 188.836 C 166.592 188.643,167.390 188.032,167.867 187.478 C 169.313 185.797,176.860 184.897,181.400 185.864 C 183.403 186.291,185.600 186.096,185.792 185.473 C 185.872 185.213,186.049 184.330,186.185 183.512 C 186.321 182.693,186.876 181.496,187.418 180.852 C 187.960 180.207,188.518 179.077,188.657 178.340 C 188.797 177.603,189.201 176.495,189.555 175.877 C 191.291 172.851,182.014 170.329,174.023 171.655 M320.400 171.612 C 319.190 171.781,317.480 172.279,316.600 172.719 C 315.720 173.159,314.238 173.723,313.306 173.973 C 312.374 174.223,311.154 174.852,310.595 175.370 C 310.036 175.888,309.084 176.517,308.479 176.767 C 307.875 177.018,307.205 177.608,306.990 178.079 C 305.844 180.594,303.205 179.309,303.194 176.230 C 303.183 173.391,303.220 173.406,295.788 173.384 C 292.134 173.374,289.051 173.517,288.936 173.703 C 288.644 174.175,288.743 279.385,289.036 280.149 C 289.368 281.015,301.499 280.914,302.557 280.036 C 303.182 279.517,303.231 277.781,303.169 258.294 L 303.102 237.116 304.097 236.121 L 305.093 235.125 307.478 236.939 C 308.790 237.937,310.096 239.034,310.381 239.377 C 310.665 239.719,311.122 240.000,311.395 240.000 C 311.668 240.000,312.342 240.354,312.892 240.786 C 313.442 241.219,315.311 241.959,317.046 242.431 C 318.781 242.903,320.429 243.475,320.709 243.701 C 321.796 244.580,328.619 244.572,331.098 243.688 C 332.364 243.236,334.728 242.552,336.351 242.167 C 338.070 241.759,339.703 241.095,340.262 240.577 C 340.790 240.088,341.757 239.466,342.411 239.195 C 343.065 238.925,343.600 238.549,343.600 238.362 C 343.600 238.174,344.137 237.743,344.793 237.403 C 346.277 236.636,351.040 231.809,351.878 230.224 C 352.220 229.577,352.803 228.767,353.175 228.424 C 353.547 228.081,354.086 227.080,354.374 226.200 C 354.661 225.320,355.232 224.231,355.643 223.779 C 356.054 223.328,356.561 222.068,356.770 220.979 C 356.979 219.891,357.452 217.920,357.821 216.600 C 359.471 210.707,359.536 202.518,357.965 198.400 C 357.504 197.190,356.968 195.227,356.774 194.037 C 356.580 192.847,355.986 191.227,355.454 190.437 C 354.921 189.647,354.273 188.325,354.012 187.500 C 353.751 186.675,353.408 186.000,353.249 186.000 C 353.090 186.000,352.451 185.196,351.830 184.214 C 351.209 183.231,350.273 182.147,349.751 181.804 C 349.228 181.462,348.800 180.919,348.800 180.599 C 348.800 180.278,348.080 179.649,347.200 179.200 C 346.320 178.751,345.600 178.201,345.600 177.978 C 345.600 177.754,344.745 177.206,343.700 176.759 C 342.655 176.312,341.440 175.621,341.000 175.223 C 340.560 174.826,338.940 174.105,337.400 173.622 C 335.860 173.138,334.240 172.575,333.800 172.370 C 331.470 171.284,325.261 170.933,320.400 171.612 M94.100 184.421 C 94.925 184.650,95.600 184.992,95.600 185.181 C 95.600 185.370,96.431 185.808,97.446 186.154 C 99.312 186.790,104.282 190.774,104.697 191.968 C 104.818 192.315,105.327 193.050,105.827 193.600 C 106.327 194.150,107.107 195.680,107.560 197.000 C 108.012 198.320,108.684 200.210,109.053 201.200 C 110.949 206.298,108.824 219.722,105.738 222.133 C 105.222 222.537,104.800 223.085,104.800 223.351 C 104.800 223.912,101.000 227.600,100.421 227.600 C 100.207 227.600,99.678 227.979,99.246 228.443 C 97.611 230.197,87.596 232.409,85.566 231.464 C 84.815 231.114,83.300 230.631,82.200 230.392 C 80.108 229.936,78.888 229.285,77.211 227.730 C 76.659 227.218,75.994 226.800,75.731 226.800 C 75.469 226.800,74.841 226.215,74.336 225.500 C 73.831 224.785,73.108 223.930,72.730 223.600 C 72.111 223.060,71.513 222.062,69.498 218.200 C 68.889 217.032,68.398 214.889,67.537 209.630 C 67.222 207.709,67.239 206.647,67.604 205.430 C 67.873 204.533,68.340 202.270,68.643 200.400 C 68.995 198.223,69.486 196.640,70.008 196.000 C 70.456 195.450,71.102 194.385,71.444 193.633 C 72.116 192.158,75.138 188.817,75.811 188.807 C 76.037 188.803,76.683 188.275,77.246 187.633 C 77.826 186.972,79.004 186.268,79.963 186.010 C 80.894 185.759,82.229 185.205,82.928 184.778 C 84.388 183.888,91.377 183.665,94.100 184.421 M237.640 184.440 C 241.813 185.790,243.474 187.174,242.873 188.800 C 242.505 189.798,239.864 192.800,239.355 192.800 C 239.093 192.800,238.507 193.430,238.053 194.200 C 237.599 194.970,236.957 195.600,236.628 195.600 C 236.298 195.600,235.823 196.005,235.572 196.500 C 235.142 197.350,233.433 199.180,228.103 204.498 C 226.836 205.761,225.678 206.931,225.529 207.098 C 225.380 207.264,223.245 209.470,220.784 212.000 C 218.324 214.530,216.040 217.005,215.709 217.500 C 214.907 218.701,213.054 218.691,211.842 217.478 C 208.424 214.060,210.286 195.651,214.337 192.814 C 214.505 192.696,215.157 191.914,215.787 191.076 C 216.416 190.238,217.396 189.312,217.965 189.017 C 218.534 188.722,219.503 188.014,220.117 187.444 C 220.731 186.873,221.721 186.303,222.317 186.176 C 222.913 186.048,224.291 185.507,225.381 184.972 C 227.606 183.880,234.928 183.562,237.640 184.440 M329.400 184.991 C 330.500 185.532,331.687 185.981,332.039 185.987 C 332.930 186.005,337.996 190.335,339.090 192.013 C 339.586 192.776,340.350 193.850,340.786 194.400 C 341.223 194.950,341.771 196.315,342.004 197.433 C 342.238 198.551,342.808 200.171,343.271 201.033 C 344.621 203.546,344.521 212.591,343.112 215.400 C 342.561 216.500,341.994 218.036,341.853 218.813 C 341.712 219.590,341.057 220.816,340.398 221.537 C 339.739 222.259,339.200 223.039,339.200 223.271 C 339.200 224.687,333.022 229.274,329.966 230.127 C 328.775 230.460,326.919 231.048,325.842 231.433 C 322.852 232.502,314.946 230.737,312.474 228.449 C 311.730 227.759,310.695 227.088,310.175 226.958 C 309.654 226.827,309.130 226.411,309.010 226.032 C 308.890 225.654,308.270 224.959,307.632 224.487 C 306.994 224.015,306.262 222.992,306.005 222.214 C 305.748 221.437,305.411 220.800,305.255 220.800 C 303.521 220.800,301.125 206.449,302.330 203.281 C 302.556 202.686,303.038 200.800,303.400 199.088 C 303.842 197.002,304.379 195.632,305.030 194.930 C 305.563 194.354,306.000 193.555,306.000 193.154 C 306.000 192.752,306.538 192.026,307.196 191.540 C 307.854 191.053,308.496 190.328,308.623 189.929 C 308.750 189.529,309.294 189.091,309.833 188.956 C 310.372 188.821,311.155 188.274,311.574 187.742 C 311.993 187.209,313.169 186.489,314.188 186.142 C 315.206 185.795,316.705 185.179,317.520 184.772 C 319.929 183.568,326.763 183.694,329.400 184.991 M253.208 198.908 C 255.745 204.804,254.083 217.854,250.186 222.638 C 249.243 223.796,248.320 224.999,248.136 225.311 C 247.951 225.623,246.990 226.401,246.000 227.039 C 245.010 227.677,243.967 228.419,243.682 228.689 C 243.397 228.958,242.407 229.381,241.482 229.628 C 240.557 229.876,238.720 230.456,237.400 230.918 C 234.379 231.975,229.687 231.941,226.437 230.838 C 225.207 230.420,223.425 229.871,222.479 229.617 C 220.469 229.078,220.216 228.621,220.580 226.192 C 220.797 224.746,221.078 224.277,222.018 223.791 C 222.661 223.458,223.458 222.662,223.789 222.022 C 224.120 221.381,224.744 220.745,225.175 220.608 C 225.606 220.471,226.074 219.997,226.214 219.555 C 226.355 219.113,226.908 218.551,227.444 218.307 C 227.980 218.063,228.523 217.450,228.649 216.946 C 228.776 216.441,229.222 215.920,229.640 215.787 C 230.058 215.655,230.872 214.928,231.448 214.173 C 232.024 213.418,232.735 212.800,233.029 212.800 C 233.322 212.800,233.861 212.170,234.227 211.400 C 234.592 210.630,235.145 210.000,235.454 210.000 C 235.764 210.000,236.221 209.553,236.469 209.008 C 236.718 208.462,237.249 207.911,237.650 207.784 C 238.051 207.657,238.788 206.978,239.288 206.276 C 240.581 204.460,243.028 202.000,243.543 202.000 C 243.783 202.000,244.242 201.505,244.563 200.900 C 244.884 200.295,245.699 199.290,246.374 198.666 C 247.048 198.042,247.600 197.395,247.600 197.227 C 247.600 195.029,252.123 196.385,253.208 198.908 " stroke="none" fill="#313131" fill-rule="evenodd"></path><path id="path1" d="M0.000 200.000 L 0.000 400.000 200.000 400.000 L 400.000 400.000 400.000 200.000 L 400.000 0.000 200.000 0.000 L 0.000 0.000 0.000 200.000 M124.266 119.635 C 125.818 120.466,125.802 119.790,125.756 181.884 C 125.708 247.724,125.887 243.230,123.295 243.849 C 122.693 243.993,122.014 244.255,121.787 244.432 C 121.559 244.609,121.109 244.587,120.787 244.383 C 120.464 244.179,117.489 244.009,114.175 244.006 C 107.313 243.999,106.807 243.798,105.987 240.750 C 105.566 239.188,105.514 239.145,104.981 239.906 C 104.672 240.347,103.976 240.820,103.436 240.955 C 102.896 241.091,102.349 241.529,102.222 241.929 C 102.077 242.388,101.143 242.920,99.696 243.370 C 98.433 243.762,96.990 244.461,96.489 244.921 C 94.638 246.625,76.851 246.656,74.507 244.960 C 73.898 244.519,72.500 243.825,71.400 243.417 C 70.300 243.009,68.891 242.254,68.269 241.738 C 67.647 241.222,66.926 240.800,66.666 240.800 C 65.156 240.800,58.238 233.596,57.791 231.557 C 57.655 230.941,57.232 230.337,56.850 230.216 C 56.461 230.092,55.835 229.076,55.423 227.898 C 55.019 226.744,54.286 225.350,53.795 224.800 C 53.176 224.108,52.833 223.090,52.679 221.493 C 52.556 220.224,52.091 218.594,51.643 217.870 C 49.723 214.762,49.673 200.499,51.571 196.958 C 52.011 196.137,52.475 194.641,52.603 193.633 C 52.835 191.795,53.887 189.200,54.400 189.200 C 54.550 189.200,54.885 188.493,55.144 187.629 C 55.403 186.765,56.241 185.308,57.007 184.391 C 57.773 183.474,58.400 182.569,58.400 182.380 C 58.400 181.019,68.510 172.800,70.184 172.800 C 70.682 172.800,71.740 172.358,72.536 171.818 C 75.040 170.118,76.828 169.852,85.800 169.840 C 94.727 169.829,96.033 170.032,98.710 171.849 C 99.481 172.372,100.402 172.801,100.756 172.802 C 101.110 172.804,102.343 173.673,103.494 174.735 C 106.286 177.307,106.088 179.265,106.170 148.229 C 106.245 120.072,106.230 120.316,107.929 119.659 C 110.182 118.788,122.648 118.770,124.266 119.635 M270.623 167.445 C 271.930 168.901,273.429 170.503,273.953 171.006 C 274.992 172.003,274.931 173.412,273.799 174.543 C 273.470 174.873,273.200 175.342,273.200 175.585 C 273.200 175.828,272.578 176.394,271.818 176.843 C 271.057 177.291,270.322 178.016,270.183 178.453 C 270.044 178.891,269.500 179.445,268.973 179.685 C 268.446 179.925,267.909 180.456,267.779 180.865 C 267.650 181.274,267.038 181.870,266.420 182.190 C 264.511 183.177,264.207 185.416,265.784 186.884 C 266.326 187.388,267.052 188.605,267.398 189.589 C 267.744 190.572,268.391 191.764,268.835 192.237 C 269.427 192.868,269.797 194.191,270.217 197.185 C 270.532 199.433,271.063 202.189,271.395 203.309 C 272.278 206.280,272.176 210.926,271.167 213.799 C 270.708 215.103,270.204 217.375,270.047 218.848 C 269.846 220.726,269.451 221.984,268.723 223.062 C 268.153 223.908,267.463 225.304,267.190 226.165 C 266.682 227.772,264.766 230.623,262.997 232.404 C 262.449 232.957,262.000 233.565,262.000 233.756 C 262.000 234.219,258.487 237.489,257.100 238.316 C 256.495 238.677,256.000 239.124,256.000 239.309 C 256.000 239.494,255.174 240.010,254.164 240.457 C 253.155 240.904,252.005 241.546,251.610 241.884 C 251.215 242.223,249.926 242.835,248.746 243.245 C 247.566 243.654,245.891 244.383,245.025 244.863 C 241.807 246.646,222.468 246.663,219.455 244.885 C 218.709 244.446,217.096 243.794,215.868 243.437 C 214.641 243.080,213.404 242.467,213.119 242.075 C 211.238 239.485,207.622 239.636,205.958 242.373 C 205.548 243.048,204.949 243.600,204.628 243.600 C 204.306 243.600,203.808 244.095,203.520 244.700 C 203.232 245.305,202.585 245.980,202.082 246.200 C 201.578 246.420,201.060 247.022,200.931 247.537 C 200.241 250.276,193.600 250.357,193.600 247.626 C 193.600 247.437,192.719 246.718,191.643 246.027 C 187.621 243.447,188.352 238.048,192.923 236.566 C 193.321 236.437,193.812 235.894,194.016 235.359 C 194.219 234.823,194.834 234.215,195.382 234.007 C 195.941 233.794,196.489 233.184,196.632 232.614 C 196.772 232.056,197.002 231.594,197.143 231.587 C 199.007 231.495,199.631 228.390,198.066 226.996 C 197.346 226.355,196.703 225.236,196.430 224.153 C 196.183 223.171,195.724 222.269,195.411 222.149 C 192.778 221.138,192.737 195.720,195.365 193.092 C 196.216 192.241,196.800 190.908,196.800 189.818 C 196.800 189.102,197.108 188.642,197.800 188.327 C 198.350 188.077,198.800 187.637,198.800 187.349 C 198.800 186.342,200.151 184.006,200.865 183.779 C 201.262 183.654,201.871 182.950,202.220 182.215 C 202.568 181.480,203.215 180.785,203.656 180.669 C 204.098 180.554,204.554 180.098,204.669 179.656 C 204.785 179.215,205.472 178.572,206.196 178.229 C 206.920 177.885,207.617 177.333,207.744 177.003 C 207.870 176.673,208.822 175.997,209.858 175.501 C 210.894 175.005,212.123 174.224,212.588 173.764 C 213.054 173.305,214.165 172.812,215.057 172.669 C 215.950 172.527,217.118 172.065,217.654 171.643 C 221.148 168.895,244.408 169.054,247.731 171.849 C 248.353 172.372,249.273 172.800,249.776 172.800 C 250.279 172.800,251.369 173.340,252.200 174.000 C 254.034 175.458,254.976 175.514,255.827 174.216 C 256.181 173.674,256.777 173.134,257.149 173.016 C 257.522 172.898,258.140 172.272,258.522 171.625 C 258.904 170.978,259.553 170.342,259.965 170.211 C 260.377 170.080,260.810 169.606,260.927 169.157 C 261.045 168.708,261.469 168.253,261.870 168.146 C 262.272 168.039,263.107 167.243,263.726 166.376 C 265.619 163.726,267.551 164.026,270.623 167.445 M187.914 170.365 C 191.796 171.508,194.082 176.266,191.227 177.264 C 191.013 177.339,190.568 178.440,190.238 179.712 C 189.908 180.983,189.253 182.564,188.783 183.223 C 188.314 183.883,187.762 185.027,187.559 185.765 C 186.638 189.099,184.096 190.182,181.573 188.317 C 179.340 186.666,172.719 187.007,169.947 188.917 C 168.762 189.733,167.596 190.400,167.354 190.400 C 167.113 190.400,166.124 191.975,165.158 193.900 L 163.400 197.400 163.200 219.839 C 162.982 244.283,163.089 243.273,160.657 243.921 C 157.999 244.630,145.314 243.892,144.397 242.976 C 143.579 242.157,143.071 177.146,143.852 173.239 C 144.352 170.741,144.860 170.600,153.381 170.600 C 161.951 170.600,162.079 170.636,162.861 173.247 C 163.368 174.938,164.553 175.388,164.910 174.024 C 165.021 173.597,165.762 172.976,166.556 172.644 C 167.350 172.312,168.000 171.847,168.000 171.611 C 168.000 169.929,183.202 168.978,187.914 170.365 M332.600 170.010 C 335.963 170.322,337.236 170.606,338.000 171.215 C 339.181 172.155,340.228 172.664,341.600 172.962 C 342.150 173.082,343.230 173.724,344.000 174.389 C 344.770 175.054,345.595 175.599,345.834 175.599 C 346.073 175.600,346.749 176.140,347.337 176.800 C 347.925 177.460,348.670 178.000,348.993 178.000 C 349.315 178.000,349.845 178.513,350.169 179.141 C 350.494 179.768,351.218 180.582,351.780 180.950 C 352.341 181.318,352.800 181.880,352.800 182.200 C 352.800 182.520,353.214 183.053,353.720 183.385 C 354.226 183.716,354.975 184.755,355.383 185.694 C 355.792 186.632,356.525 187.882,357.013 188.472 C 357.501 189.061,358.022 190.353,358.171 191.344 C 358.319 192.334,358.768 193.561,359.168 194.072 C 361.508 197.059,361.503 218.063,359.161 220.621 C 358.748 221.072,358.225 222.413,358.000 223.600 C 357.775 224.787,357.250 226.128,356.834 226.579 C 356.417 227.031,355.791 228.094,355.441 228.942 C 354.274 231.775,345.667 240.800,344.134 240.800 C 343.820 240.800,343.117 241.246,342.572 241.792 C 342.027 242.337,340.572 243.076,339.340 243.435 C 338.108 243.793,336.495 244.443,335.755 244.879 C 332.757 246.648,318.442 246.662,316.040 244.898 C 315.468 244.478,314.100 243.809,313.000 243.410 C 311.900 243.011,310.730 242.387,310.400 242.023 C 310.070 241.659,309.173 241.010,308.408 240.581 C 307.642 240.151,306.672 239.380,306.252 238.866 C 304.898 237.210,304.812 238.480,304.806 260.225 C 304.800 281.027,304.784 281.467,303.984 282.325 C 302.804 283.592,289.087 283.684,287.544 282.435 L 286.600 281.671 286.499 232.535 C 286.444 205.511,286.344 181.427,286.276 179.016 C 286.050 170.908,286.493 170.518,296.026 170.429 C 303.884 170.356,304.777 170.691,304.828 173.729 C 304.853 175.220,305.502 177.677,305.572 176.546 C 305.587 176.296,306.228 175.793,306.995 175.429 C 307.762 175.065,308.563 174.443,308.776 174.045 C 308.988 173.648,309.981 173.011,310.981 172.628 C 311.982 172.246,312.800 171.783,312.800 171.598 C 312.800 170.052,323.670 169.180,332.600 170.010 M229.400 186.836 C 225.116 187.278,223.038 187.895,221.959 189.044 C 221.465 189.570,220.837 190.000,220.564 190.000 C 219.909 190.000,216.400 193.280,216.400 193.891 C 216.400 194.153,215.967 194.780,215.437 195.284 C 214.807 195.883,214.308 197.029,213.992 198.600 C 213.728 199.920,213.171 201.900,212.756 203.000 C 211.376 206.654,211.949 212.593,213.903 214.876 C 214.456 215.523,221.200 209.592,221.200 208.458 C 221.200 208.277,221.641 207.927,222.181 207.682 C 222.720 207.436,223.445 206.687,223.791 206.017 C 224.137 205.348,224.690 204.800,225.019 204.800 C 225.348 204.800,225.828 204.337,226.086 203.770 C 226.345 203.204,227.061 202.479,227.678 202.160 C 228.295 201.841,228.800 201.263,228.800 200.876 C 228.800 200.489,229.352 199.847,230.026 199.448 C 230.700 199.050,231.442 198.307,231.675 197.796 C 231.907 197.286,232.433 196.780,232.844 196.673 C 233.254 196.565,233.769 196.007,233.988 195.432 C 234.207 194.856,234.823 194.219,235.359 194.016 C 235.894 193.812,236.448 193.280,236.589 192.833 C 236.731 192.386,237.243 191.701,237.726 191.310 C 239.118 190.184,240.142 188.382,239.662 187.902 C 239.291 187.531,233.989 186.395,233.000 186.474 C 232.780 186.492,231.160 186.655,229.400 186.836 M84.400 186.992 C 84.070 187.077,83.154 187.251,82.366 187.379 C 81.577 187.507,80.347 188.133,79.633 188.771 C 78.918 189.409,77.809 190.148,77.167 190.414 C 76.525 190.680,76.000 191.151,76.000 191.462 C 76.000 191.773,75.382 192.392,74.627 192.837 C 73.673 193.400,73.176 194.038,73.002 194.924 C 72.619 196.863,71.983 198.321,71.426 198.535 C 69.381 199.319,69.443 213.193,71.507 216.956 C 72.218 218.252,72.800 219.641,72.800 220.042 C 72.800 220.444,73.144 220.956,73.564 221.181 C 73.985 221.406,74.743 222.267,75.249 223.095 C 76.522 225.175,76.869 225.478,78.858 226.244 C 79.816 226.613,80.795 227.152,81.033 227.442 C 82.525 229.260,93.918 229.491,95.993 227.745 C 96.682 227.165,97.911 226.467,98.723 226.194 C 99.535 225.921,100.373 225.328,100.584 224.875 C 100.795 224.423,101.382 223.863,101.889 223.632 C 102.397 223.401,103.023 222.714,103.281 222.106 C 103.540 221.498,104.171 220.536,104.684 219.970 C 105.619 218.936,106.350 215.544,106.961 209.400 C 107.304 205.948,105.937 197.388,104.898 196.479 C 104.471 196.106,103.896 195.113,103.621 194.273 C 103.331 193.388,102.736 192.571,102.204 192.329 C 101.700 192.100,101.092 191.482,100.853 190.956 C 100.609 190.420,100.072 190.000,99.631 190.000 C 99.199 190.000,98.567 189.602,98.226 189.116 C 97.171 187.609,87.671 186.150,84.400 186.992 M318.000 187.040 C 315.634 187.476,315.195 187.656,313.957 188.700 C 313.239 189.305,312.100 189.980,311.426 190.200 C 310.604 190.468,310.157 190.904,310.069 191.522 C 309.996 192.042,309.534 192.597,309.010 192.796 C 308.358 193.044,307.875 193.783,307.390 195.275 C 307.011 196.444,306.334 197.802,305.887 198.293 C 304.236 200.106,304.166 216.789,305.804 217.706 C 306.165 217.908,306.805 218.878,307.226 219.862 C 308.031 221.739,308.869 222.800,309.546 222.800 C 309.767 222.800,310.169 223.410,310.439 224.156 C 310.824 225.221,311.263 225.612,312.487 225.979 C 313.345 226.236,314.413 226.813,314.862 227.262 C 317.038 229.438,329.626 229.526,330.902 227.374 C 331.068 227.094,332.008 226.558,332.991 226.182 C 333.974 225.807,334.873 225.201,334.988 224.836 C 335.104 224.472,335.734 223.857,336.388 223.470 C 337.189 222.998,337.716 222.256,337.999 221.202 C 338.231 220.341,338.869 219.104,339.417 218.453 C 340.937 216.646,341.861 209.221,341.215 204.000 C 340.534 198.499,340.448 198.168,339.393 197.030 C 338.867 196.462,338.317 195.363,338.171 194.588 C 338.011 193.734,337.570 193.005,337.053 192.739 C 336.584 192.498,335.782 191.783,335.271 191.150 C 334.760 190.518,334.113 190.000,333.833 190.000 C 333.553 190.000,332.985 189.625,332.570 189.167 C 330.969 187.397,322.649 186.182,318.000 187.040 M248.846 198.878 C 248.430 199.974,244.678 204.000,244.073 204.000 C 243.843 204.000,243.539 204.362,243.399 204.804 C 243.258 205.247,242.616 205.881,241.972 206.215 C 241.327 206.548,240.800 207.094,240.800 207.429 C 240.800 207.763,240.260 208.344,239.599 208.719 C 238.938 209.093,238.305 209.689,238.191 210.041 C 238.077 210.394,237.447 211.160,236.792 211.744 C 236.136 212.328,235.600 212.980,235.600 213.193 C 235.600 213.405,235.073 213.852,234.428 214.185 C 233.784 214.519,233.148 215.134,233.015 215.553 C 232.882 215.971,232.245 216.533,231.600 216.800 C 230.955 217.067,230.308 217.672,230.162 218.143 C 229.883 219.048,226.269 222.800,225.676 222.800 C 225.485 222.800,225.130 223.234,224.889 223.765 C 224.647 224.296,224.068 224.852,223.602 224.999 C 221.783 225.577,222.689 227.721,225.000 228.310 C 228.940 229.316,239.202 228.809,240.715 227.534 C 241.411 226.948,242.531 226.347,243.204 226.199 C 243.877 226.051,244.712 225.496,245.060 224.965 C 245.407 224.434,245.913 224.000,246.183 224.000 C 246.453 224.000,247.006 223.384,247.412 222.630 C 247.817 221.877,248.541 221.082,249.021 220.863 C 249.702 220.553,249.934 220.025,250.087 218.438 C 250.194 217.322,250.755 215.497,251.334 214.381 C 253.130 210.920,252.942 204.670,250.918 200.491 C 249.689 197.955,249.310 197.660,248.846 198.878 " stroke="none" fill="#fbfbfb" fill-rule="evenodd"></path><path id="path2" d="M108.285 120.637 L 107.169 121.242 107.201 148.121 C 107.218 162.904,107.225 175.405,107.216 175.900 C 107.175 178.204,105.760 178.539,103.905 176.685 C 102.237 175.016,98.743 172.784,97.850 172.816 C 97.602 172.825,97.940 173.114,98.600 173.458 C 100.972 174.695,103.021 176.177,104.205 177.512 C 105.312 178.760,105.495 178.831,106.471 178.386 C 108.028 177.677,107.989 178.444,107.995 148.690 L 108.000 121.180 109.026 120.790 C 110.467 120.242,121.325 120.292,122.555 120.852 C 124.062 121.539,124.031 120.061,123.851 182.745 C 123.663 247.804,123.934 242.231,120.927 242.813 C 119.534 243.082,119.505 243.112,120.600 243.153 C 121.260 243.177,122.376 242.846,123.080 242.417 L 124.360 241.636 124.374 182.162 C 124.388 118.768,124.442 121.130,122.950 120.450 C 121.378 119.734,109.675 119.883,108.285 120.637 M260.681 170.889 C 258.085 173.532,256.025 175.758,256.102 175.836 C 256.180 175.913,258.339 173.912,260.900 171.388 C 266.733 165.642,266.771 165.635,270.586 169.700 C 272.083 171.295,273.149 172.308,272.954 171.950 C 272.759 171.593,271.586 170.210,270.346 168.877 C 266.719 164.978,266.426 165.039,260.681 170.889 M84.112 170.695 C 85.164 170.777,86.784 170.776,87.712 170.692 C 88.640 170.608,87.780 170.541,85.800 170.542 C 83.820 170.543,83.060 170.612,84.112 170.695 M177.300 170.694 C 178.345 170.776,180.055 170.776,181.100 170.694 C 182.145 170.612,181.290 170.544,179.200 170.544 C 177.110 170.544,176.255 170.612,177.300 170.694 M230.313 170.695 C 231.476 170.776,233.276 170.776,234.313 170.693 C 235.351 170.611,234.400 170.545,232.200 170.546 C 230.000 170.547,229.151 170.614,230.313 170.695 M323.116 170.697 C 324.499 170.775,326.659 170.774,327.916 170.695 C 329.172 170.616,328.040 170.552,325.400 170.553 C 322.760 170.553,321.732 170.618,323.116 170.697 M76.974 171.323 C 76.300 171.585,74.631 172.231,73.265 172.757 C 71.899 173.283,70.869 173.803,70.978 173.911 C 71.171 174.105,72.615 173.612,75.024 172.530 C 75.698 172.228,77.408 171.729,78.824 171.422 C 81.103 170.928,81.216 170.863,79.800 170.854 C 78.920 170.849,77.648 171.060,76.974 171.323 M93.513 171.388 C 94.455 171.682,95.484 172.137,95.799 172.399 C 96.115 172.661,96.604 172.790,96.887 172.685 C 97.593 172.422,94.038 170.813,92.800 170.836 C 92.063 170.849,92.251 170.994,93.513 171.388 M168.909 172.435 C 167.319 173.324,165.673 174.490,165.251 175.026 C 164.115 176.470,162.980 176.269,161.811 174.417 C 160.368 172.131,159.907 172.000,153.326 172.001 C 148.124 172.003,147.241 172.100,146.100 172.796 L 144.800 173.588 144.800 207.780 C 144.800 245.174,144.662 242.851,146.874 242.784 C 147.163 242.775,146.918 242.506,146.329 242.186 L 145.258 241.605 145.216 207.987 C 145.180 179.034,145.255 174.288,145.757 173.786 C 147.993 171.550,161.200 172.275,161.200 174.633 C 161.200 176.561,164.274 176.982,165.671 175.245 C 166.692 173.976,170.997 171.657,173.200 171.189 L 174.600 170.892 173.200 170.856 C 172.259 170.831,170.852 171.349,168.909 172.435 M185.000 171.172 C 186.582 171.555,188.769 172.636,189.950 173.619 L 190.900 174.410 189.850 176.831 C 189.273 178.163,188.800 179.430,188.800 179.648 C 188.800 179.865,188.350 180.705,187.800 181.514 C 187.250 182.323,186.814 183.259,186.832 183.593 C 186.859 184.128,186.890 184.129,187.091 183.600 C 187.217 183.270,187.642 182.585,188.035 182.077 C 188.429 181.570,189.054 180.220,189.425 179.077 C 189.795 177.935,190.439 176.434,190.856 175.741 L 191.614 174.483 190.307 173.380 C 188.652 171.982,186.096 170.808,184.800 170.850 C 183.890 170.879,183.908 170.908,185.000 171.172 M221.400 171.455 C 220.520 171.796,218.630 172.487,217.200 172.990 C 213.289 174.366,207.484 178.162,204.538 181.269 C 200.545 185.481,199.689 186.622,200.168 187.101 C 200.295 187.229,200.400 187.129,200.400 186.880 C 200.400 186.027,205.198 180.918,208.000 178.789 C 208.990 178.036,209.896 177.288,210.014 177.126 C 210.132 176.964,210.866 176.564,211.646 176.239 C 212.426 175.913,213.284 175.380,213.554 175.055 C 213.824 174.730,215.339 174.072,216.922 173.593 C 218.505 173.114,219.980 172.588,220.200 172.423 C 220.729 172.027,223.843 171.247,225.600 171.069 C 226.621 170.966,226.459 170.915,225.000 170.882 C 223.900 170.856,222.280 171.114,221.400 171.455 M240.000 171.212 C 241.210 171.382,243.721 172.081,245.580 172.767 C 247.439 173.452,249.114 173.962,249.302 173.899 C 250.189 173.604,241.271 170.802,239.600 170.852 L 237.800 170.905 240.000 171.212 M317.600 171.069 C 315.018 171.957,310.089 174.261,309.420 174.893 C 308.969 175.319,308.110 175.924,307.512 176.238 C 306.913 176.552,306.229 177.171,305.992 177.615 C 305.502 178.530,304.907 178.322,304.397 177.059 C 304.104 176.333,304.047 176.313,304.025 176.929 C 303.965 178.659,305.614 179.269,306.396 177.807 C 306.689 177.260,307.271 176.704,307.690 176.571 C 308.110 176.438,309.026 175.838,309.726 175.238 C 310.936 174.201,316.422 171.796,319.000 171.172 C 320.070 170.913,320.091 170.881,319.200 170.873 C 318.650 170.867,317.930 170.956,317.600 171.069 M333.400 171.526 C 336.791 172.418,340.178 173.822,341.800 175.008 C 342.460 175.490,343.401 176.012,343.891 176.167 C 344.647 176.405,345.693 177.155,348.666 179.587 C 348.923 179.797,349.375 180.291,349.670 180.684 C 349.966 181.078,350.655 181.760,351.201 182.200 C 351.747 182.640,351.395 182.100,350.417 181.000 C 349.440 179.900,348.259 178.730,347.792 178.400 C 347.325 178.070,346.686 177.569,346.372 177.287 C 343.866 175.039,335.686 171.320,332.522 170.990 C 330.808 170.812,330.903 170.870,333.400 171.526 M288.575 172.428 C 287.521 173.592,287.135 278.112,288.175 280.602 L 288.759 282.000 292.880 281.916 L 297.000 281.833 293.103 281.702 C 287.383 281.510,288.000 288.145,288.000 226.800 C 288.000 170.355,287.967 171.299,289.927 172.268 C 290.297 172.450,293.212 172.608,296.404 172.617 C 302.823 172.635,303.028 172.690,303.558 174.520 C 303.893 175.678,303.931 175.704,303.964 174.789 C 304.055 172.234,303.348 171.966,296.667 172.022 C 293.330 172.051,290.319 171.961,289.975 171.823 C 289.599 171.672,289.040 171.914,288.575 172.428 M67.400 175.695 C 66.080 176.606,63.560 178.802,61.800 180.575 C 58.250 184.153,57.314 185.528,54.840 190.800 C 52.036 196.774,50.686 207.412,51.970 213.400 C 52.206 214.500,52.704 216.930,53.078 218.800 C 53.451 220.670,53.819 221.912,53.896 221.560 C 53.973 221.208,53.577 218.710,53.018 216.008 C 51.845 210.348,51.675 204.500,52.563 200.400 C 52.873 198.970,53.337 196.810,53.594 195.600 C 53.851 194.390,54.677 192.127,55.430 190.570 C 56.184 189.014,56.800 187.538,56.800 187.290 C 56.800 187.042,57.046 186.696,57.346 186.520 C 57.646 186.344,58.198 185.601,58.573 184.868 C 59.692 182.679,65.008 177.666,68.500 175.506 C 69.545 174.860,70.400 174.257,70.400 174.166 C 70.400 173.763,69.641 174.150,67.400 175.695 M250.709 174.880 C 251.758 176.023,254.265 176.915,255.106 176.445 C 255.493 176.228,255.264 176.112,254.398 176.088 C 253.693 176.068,252.370 175.564,251.458 174.970 C 249.808 173.894,249.805 173.893,250.709 174.880 M271.200 175.576 C 269.179 176.762,263.627 182.849,263.384 184.146 C 263.131 185.495,264.440 188.800,265.227 188.800 C 265.381 188.800,266.200 190.553,267.048 192.696 C 267.897 194.839,268.650 196.285,268.722 195.908 C 268.795 195.532,268.392 194.304,267.827 193.179 C 267.262 192.054,266.800 190.948,266.800 190.721 C 266.800 190.493,266.172 189.452,265.405 188.406 C 264.637 187.361,263.979 186.167,263.941 185.753 C 263.766 183.813,264.072 182.732,265.034 181.897 C 266.245 180.846,272.051 175.194,271.902 175.212 C 271.846 175.219,271.530 175.383,271.200 175.576 M352.000 183.480 C 352.000 183.698,352.381 184.219,352.846 184.638 C 353.311 185.057,353.856 185.830,354.057 186.355 C 354.258 186.881,354.522 187.211,354.644 187.090 C 354.765 186.968,354.667 186.499,354.425 186.047 C 353.822 184.921,352.000 182.991,352.000 183.480 M84.600 185.052 C 83.720 185.383,82.456 185.794,81.791 185.965 C 78.444 186.823,73.220 191.226,71.570 194.577 C 71.131 195.470,70.430 196.846,70.013 197.636 C 69.596 198.425,69.159 200.225,69.042 201.636 C 68.822 204.297,68.912 204.109,69.639 200.400 C 69.876 199.190,70.479 197.568,70.978 196.795 C 71.477 196.022,72.023 194.942,72.191 194.395 C 72.911 192.048,79.050 187.143,82.244 186.362 C 83.320 186.098,84.683 185.641,85.274 185.345 C 86.604 184.678,90.318 184.968,93.981 186.026 C 97.243 186.967,97.555 186.767,94.513 185.684 C 91.374 184.567,86.683 184.268,84.600 185.052 M186.115 185.621 C 185.641 186.875,185.637 186.876,183.320 186.631 C 174.182 185.663,169.493 186.102,168.283 188.039 C 168.021 188.458,167.615 188.800,167.379 188.800 C 166.838 188.800,164.800 190.902,164.800 191.460 C 164.800 191.689,164.446 192.196,164.014 192.587 C 163.088 193.425,161.980 196.957,162.046 198.862 C 162.095 200.253,162.155 200.078,162.836 196.563 C 163.540 192.931,166.182 189.626,170.200 187.351 C 172.012 186.325,178.395 186.109,181.366 186.973 C 184.685 187.938,187.415 186.845,186.741 184.822 C 186.657 184.571,186.375 184.930,186.115 185.621 M233.200 184.763 C 238.672 186.088,242.000 187.242,242.000 187.814 C 242.000 188.676,238.229 192.747,224.100 207.137 C 219.645 211.674,216.000 215.518,216.000 215.679 C 216.000 216.489,214.372 216.806,213.233 216.217 C 212.054 215.607,212.018 215.516,211.050 210.600 C 210.964 210.160,210.872 210.538,210.846 211.440 C 210.756 214.620,212.243 217.212,214.144 217.190 C 214.709 217.184,216.631 215.485,219.800 212.192 C 222.440 209.448,227.368 204.368,230.752 200.902 C 234.136 197.436,237.352 194.015,237.900 193.300 C 238.447 192.585,239.099 191.989,239.347 191.975 C 239.834 191.949,242.400 188.625,242.400 188.021 C 242.400 186.837,237.695 184.986,233.723 184.608 C 232.040 184.447,231.975 184.467,233.200 184.763 M321.800 184.676 C 320.052 184.827,314.669 186.403,314.948 186.681 C 315.043 186.777,316.084 186.559,317.261 186.198 C 321.663 184.848,323.480 184.787,327.552 185.850 C 331.942 186.995,332.844 186.881,328.912 185.678 C 325.798 184.725,324.062 184.480,321.800 184.676 M226.800 185.400 C 224.942 186.116,226.280 186.128,229.400 185.424 L 231.800 184.882 230.000 184.871 C 229.010 184.866,227.570 185.103,226.800 185.400 M222.600 186.745 C 221.720 187.146,220.753 187.772,220.451 188.137 C 220.149 188.501,219.664 188.800,219.373 188.800 C 216.786 188.800,210.710 199.570,210.847 203.914 C 210.890 205.304,210.916 205.270,211.239 203.400 C 212.603 195.501,217.425 189.295,224.400 186.460 C 224.950 186.237,225.130 186.046,224.800 186.036 C 224.470 186.026,223.480 186.345,222.600 186.745 M98.644 187.838 C 100.824 189.293,103.549 191.978,104.288 193.400 C 104.631 194.060,105.040 194.690,105.198 194.800 C 105.355 194.910,105.773 195.540,106.126 196.200 C 106.529 196.953,106.774 197.151,106.784 196.731 C 106.793 196.363,106.350 195.527,105.800 194.873 C 105.250 194.219,104.800 193.507,104.800 193.290 C 104.800 192.396,98.595 186.800,97.603 186.800 C 97.320 186.800,97.788 187.267,98.644 187.838 M312.077 187.912 C 309.012 190.433,306.445 193.252,306.007 194.579 C 305.749 195.361,305.386 196.000,305.200 196.000 C 304.746 196.000,303.884 198.678,304.136 199.303 C 304.264 199.619,304.348 199.565,304.368 199.157 C 304.467 197.157,309.913 189.200,311.184 189.200 C 311.352 189.200,312.169 188.660,313.000 188.000 C 313.831 187.340,314.260 186.805,313.955 186.812 C 313.650 186.819,312.805 187.314,312.077 187.912 M332.989 187.722 C 335.005 189.210,338.800 192.897,338.800 193.368 C 338.800 193.613,339.236 194.455,339.768 195.239 C 340.300 196.022,341.008 197.549,341.340 198.632 C 341.751 199.970,341.952 200.280,341.968 199.600 C 341.990 198.700,341.218 196.894,339.319 193.400 C 338.364 191.643,333.035 186.763,332.137 186.822 C 331.952 186.834,332.335 187.239,332.989 187.722 M199.196 188.497 C 198.035 190.244,197.956 190.586,198.972 189.478 C 199.537 188.860,200.000 188.185,200.000 187.978 C 200.000 187.414,199.853 187.509,199.196 188.497 M354.800 187.829 C 354.800 188.058,355.250 188.855,355.800 189.600 C 356.350 190.345,356.800 190.821,356.800 190.656 C 356.800 190.492,356.350 189.695,355.800 188.886 C 355.250 188.077,354.800 187.601,354.800 187.829 M197.278 191.887 C 195.790 195.743,194.806 198.994,194.846 199.924 C 194.881 200.728,194.937 200.798,195.069 200.200 C 195.167 199.760,195.877 197.536,196.649 195.259 C 197.902 191.558,198.368 189.065,197.278 191.887 M357.055 192.400 C 357.192 193.170,357.449 194.160,357.627 194.600 L 357.949 195.400 357.944 194.600 C 357.941 194.160,357.684 193.170,357.373 192.400 L 356.807 191.000 357.055 192.400 M358.233 196.400 C 358.365 196.950,358.727 198.294,359.037 199.387 C 359.404 200.683,359.595 203.327,359.586 206.987 C 359.573 212.008,359.337 213.964,358.205 218.400 L 357.950 219.400 358.550 218.400 C 360.346 215.408,360.577 200.636,358.881 197.200 C 358.393 196.210,358.101 195.850,358.233 196.400 M246.802 199.300 C 245.605 200.675,244.408 201.937,244.141 202.104 C 243.874 202.272,242.878 203.233,241.928 204.241 C 240.977 205.249,236.721 209.612,232.469 213.937 C 228.216 218.262,224.361 222.340,223.902 223.000 C 223.443 223.660,224.612 222.580,226.501 220.600 C 228.389 218.620,230.134 216.820,230.378 216.600 C 231.286 215.782,235.062 212.047,236.891 210.155 C 237.931 209.080,239.101 207.876,239.491 207.479 C 243.622 203.281,247.571 199.110,248.308 198.167 C 252.016 193.427,255.398 209.701,252.071 216.272 C 251.646 217.112,251.162 218.427,250.997 219.193 C 250.586 221.094,246.421 225.701,243.711 227.251 C 242.524 227.930,241.638 228.572,241.743 228.676 C 242.068 229.002,246.489 225.984,247.572 224.697 C 248.138 224.026,249.197 222.794,249.926 221.961 C 250.655 221.128,251.432 219.760,251.652 218.923 C 251.871 218.085,252.313 216.825,252.634 216.122 C 254.664 211.671,254.041 200.613,251.614 198.015 C 249.991 196.277,249.264 196.471,246.802 199.300 M269.039 198.200 C 269.179 199.080,269.442 201.150,269.624 202.800 L 269.955 205.800 269.786 202.158 C 269.693 200.154,269.430 198.084,269.201 197.558 C 268.858 196.767,268.830 196.880,269.039 198.200 M107.038 198.705 C 107.450 201.064,108.738 205.031,108.758 204.000 C 108.768 203.450,108.334 201.740,107.793 200.200 C 107.252 198.660,106.913 197.987,107.038 198.705 M303.269 202.548 C 302.688 205.702,302.719 208.414,303.389 212.800 C 304.022 216.950,304.165 215.093,303.574 210.390 C 303.257 207.860,303.273 206.162,303.639 203.698 C 304.221 199.776,303.940 198.903,303.269 202.548 M161.500 203.760 C 161.335 205.499,161.200 214.702,161.200 224.212 L 161.200 241.502 160.300 242.130 C 159.805 242.476,159.605 242.767,159.856 242.779 C 162.049 242.880,162.026 243.125,161.908 221.000 C 161.843 208.656,161.682 201.848,161.500 203.760 M342.209 201.600 C 343.177 206.042,343.286 207.474,342.877 210.368 C 342.330 214.231,340.647 219.592,339.603 220.796 C 339.161 221.306,338.804 221.920,338.809 222.161 C 338.821 222.777,340.316 220.844,340.943 219.400 C 343.497 213.524,344.309 205.355,342.674 202.000 C 342.181 200.989,342.052 200.878,342.209 201.600 M194.561 208.000 C 194.561 211.410,194.622 212.805,194.697 211.100 C 194.772 209.395,194.772 206.605,194.697 204.900 C 194.622 203.195,194.561 204.590,194.561 208.000 M68.546 208.200 C 68.547 210.400,68.614 211.249,68.695 210.087 C 68.776 208.924,68.776 207.124,68.693 206.087 C 68.611 205.049,68.545 206.000,68.546 208.200 M108.928 207.600 C 108.928 209.030,109.001 209.615,109.089 208.900 C 109.178 208.185,109.178 207.015,109.089 206.300 C 109.001 205.585,108.928 206.170,108.928 207.600 M269.673 211.200 C 269.545 214.310,268.482 219.471,267.624 221.152 C 267.171 222.041,266.809 223.000,266.821 223.284 C 266.833 223.568,267.274 222.929,267.802 221.865 C 269.043 219.362,270.084 214.224,269.896 211.523 C 269.749 209.420,269.747 209.417,269.673 211.200 M108.459 211.400 C 108.421 211.840,108.032 213.341,107.595 214.736 C 106.473 218.313,106.664 219.179,107.829 215.800 C 108.360 214.260,108.735 212.460,108.661 211.800 C 108.588 211.140,108.497 210.960,108.459 211.400 M68.835 213.236 C 68.782 214.813,69.760 217.689,70.941 219.428 C 71.524 220.285,72.000 220.806,72.000 220.586 C 72.000 220.366,71.572 219.555,71.048 218.785 C 70.525 218.014,69.820 216.218,69.483 214.792 C 69.146 213.366,68.855 212.666,68.835 213.236 M194.844 216.267 C 194.799 217.577,196.251 221.482,196.640 221.094 C 196.760 220.973,196.564 220.304,196.203 219.607 C 195.843 218.909,195.399 217.588,195.218 216.669 C 194.917 215.147,194.884 215.112,194.844 216.267 M304.025 217.278 C 304.011 217.650,304.405 218.379,304.900 218.897 C 305.395 219.415,305.584 219.557,305.321 219.211 C 305.058 218.866,304.664 218.137,304.446 217.592 C 304.183 216.932,304.042 216.827,304.025 217.278 M106.400 219.261 C 106.400 219.588,105.860 220.461,105.200 221.200 C 104.540 221.939,104.000 222.730,104.000 222.957 C 104.000 223.509,106.304 220.797,106.622 219.870 C 106.760 219.468,106.767 219.033,106.637 218.903 C 106.506 218.773,106.400 218.934,106.400 219.261 M357.039 221.976 C 356.669 223.295,356.184 224.486,355.962 224.624 C 355.739 224.761,355.116 225.802,354.577 226.937 C 352.309 231.710,346.499 237.873,342.146 240.125 C 341.459 240.480,340.775 241.088,340.626 241.476 C 340.393 242.084,340.483 242.069,341.278 241.367 C 341.785 240.919,343.265 239.844,344.566 238.977 C 346.871 237.440,351.412 233.074,352.144 231.690 C 352.345 231.311,352.829 230.640,353.219 230.200 C 354.948 228.253,358.477 220.343,357.882 219.749 C 357.788 219.655,357.409 220.657,357.039 221.976 M306.000 220.581 C 306.000 221.960,309.375 225.797,311.998 227.400 C 315.077 229.282,316.632 229.998,317.585 229.972 C 318.320 229.952,318.087 229.786,316.739 229.371 C 313.159 228.269,308.099 224.300,306.959 221.700 C 306.462 220.565,306.000 220.026,306.000 220.581 M72.000 221.354 C 72.000 221.697,74.205 224.512,75.400 225.696 C 77.099 227.379,81.315 229.691,82.952 229.838 L 84.600 229.986 83.102 229.600 C 81.088 229.080,75.277 225.670,75.015 224.853 C 74.778 224.115,72.000 220.891,72.000 221.354 M196.831 222.000 C 196.808 223.004,198.230 225.751,199.212 226.600 C 200.154 227.414,199.947 226.814,198.840 225.521 C 198.503 225.128,197.917 224.041,197.537 223.104 C 197.156 222.167,196.839 221.670,196.831 222.000 M54.012 222.682 C 54.005 222.947,54.450 223.828,55.000 224.638 C 55.550 225.449,56.000 225.829,56.000 225.484 C 56.000 225.139,55.763 224.619,55.474 224.329 C 55.185 224.038,54.740 223.440,54.486 223.000 C 54.232 222.560,54.019 222.417,54.012 222.682 M337.919 223.570 C 337.568 223.980,337.037 224.469,336.740 224.658 C 336.074 225.080,334.593 226.800,334.896 226.800 C 335.286 226.800,338.937 223.204,338.744 223.011 C 338.641 222.908,338.270 223.159,337.919 223.570 M101.885 225.190 C 100.958 226.064,100.320 226.784,100.466 226.790 C 100.613 226.795,101.505 226.080,102.449 225.200 C 103.392 224.320,104.031 223.600,103.867 223.600 C 103.703 223.600,102.811 224.315,101.885 225.190 M221.862 224.731 C 221.161 225.506,220.951 228.199,221.562 228.576 C 221.768 228.704,221.831 228.106,221.708 227.191 C 221.547 225.987,221.672 225.383,222.208 224.791 C 222.602 224.356,222.834 224.000,222.724 224.000 C 222.614 224.000,222.226 224.329,221.862 224.731 M266.000 225.400 C 265.746 226.170,265.405 226.800,265.243 226.800 C 265.080 226.800,264.566 227.475,264.099 228.300 C 261.887 232.213,253.520 240.000,251.529 240.000 C 251.339 240.000,250.513 240.419,249.692 240.931 C 248.871 241.443,246.313 242.476,244.006 243.226 C 241.699 243.977,240.129 244.652,240.516 244.727 C 243.258 245.255,255.813 238.586,259.681 234.546 C 261.856 232.274,264.000 229.741,264.000 229.442 C 264.000 229.298,264.630 228.265,265.400 227.145 C 266.170 226.026,266.800 224.860,266.800 224.555 C 266.800 223.605,266.481 223.942,266.000 225.400 M56.000 226.687 C 56.000 227.226,58.463 230.871,58.680 230.653 C 58.780 230.553,58.218 229.535,57.431 228.391 C 56.644 227.246,56.000 226.480,56.000 226.687 M98.200 227.788 C 97.540 228.329,97.180 228.771,97.400 228.771 C 97.620 228.771,98.340 228.329,99.000 227.788 C 99.660 227.247,100.020 226.804,99.800 226.804 C 99.580 226.804,98.860 227.247,98.200 227.788 M332.600 227.784 C 331.940 228.304,330.500 229.003,329.400 229.337 C 328.300 229.671,327.683 229.957,328.029 229.972 C 329.147 230.022,332.168 228.792,333.400 227.785 C 334.060 227.245,334.420 226.812,334.200 226.821 C 333.980 226.830,333.260 227.263,332.600 227.784 M200.000 229.108 C 200.000 230.424,199.667 230.960,197.387 233.308 C 195.949 234.789,194.927 236.000,195.115 236.000 C 196.260 236.000,200.400 230.634,200.400 229.150 C 200.400 228.297,200.310 227.600,200.200 227.600 C 200.090 227.600,200.000 228.279,200.000 229.108 M94.200 229.448 C 93.100 229.750,90.519 230.037,88.465 230.087 C 85.683 230.154,85.001 230.267,85.790 230.530 C 87.105 230.968,93.927 230.210,95.717 229.427 C 97.314 228.728,96.799 228.735,94.200 229.448 M223.600 229.400 C 224.370 229.697,225.450 229.941,226.000 229.943 C 226.685 229.945,226.432 229.768,225.200 229.379 C 222.930 228.664,221.729 228.680,223.600 229.400 M238.600 229.411 C 237.355 229.822,237.222 229.941,238.000 229.951 C 238.550 229.958,239.540 229.717,240.200 229.414 C 241.720 228.719,240.708 228.717,238.600 229.411 M230.896 230.492 C 233.251 230.720,235.224 230.725,235.884 230.505 C 236.659 230.247,235.531 230.138,231.988 230.128 L 227.000 230.115 230.896 230.492 M319.600 230.400 C 320.150 230.576,321.680 230.720,323.000 230.720 C 324.320 230.720,325.850 230.576,326.400 230.400 C 327.029 230.198,325.769 230.080,323.000 230.080 C 320.231 230.080,318.971 230.198,319.600 230.400 M58.800 231.614 C 58.800 232.196,66.722 240.000,67.313 240.000 C 67.596 240.000,68.805 240.630,70.000 241.400 C 71.195 242.170,72.449 242.785,72.787 242.768 C 73.153 242.748,72.997 242.544,72.400 242.260 C 68.844 240.570,66.150 238.591,62.700 235.135 C 60.555 232.986,58.800 231.402,58.800 231.614 M192.013 238.755 C 190.237 240.526,189.704 241.313,189.866 241.930 C 190.122 242.910,192.696 246.000,193.257 246.000 C 193.474 246.000,194.106 246.540,194.661 247.200 C 195.876 248.644,198.703 248.928,199.632 247.700 C 200.082 247.104,200.078 247.075,199.601 247.500 C 198.557 248.431,195.702 248.127,194.968 247.007 C 194.610 246.461,193.751 245.659,193.059 245.225 C 192.366 244.791,191.396 243.719,190.903 242.844 L 190.007 241.253 191.003 240.469 C 191.551 240.038,192.000 239.531,192.000 239.342 C 192.000 239.154,192.675 238.422,193.500 237.715 C 194.325 237.008,194.859 236.423,194.688 236.415 C 194.516 236.407,193.312 237.460,192.013 238.755 M304.480 236.880 C 303.717 237.643,303.924 238.193,304.708 237.483 C 305.367 236.887,305.655 237.020,308.859 239.396 C 312.259 241.919,318.938 244.995,320.377 244.702 C 320.975 244.580,319.199 243.864,315.065 242.559 C 313.187 241.966,310.739 240.428,307.359 237.716 C 305.558 236.272,305.194 236.166,304.480 236.880 M104.353 238.265 C 103.355 239.344,101.153 240.927,99.044 242.081 C 97.590 242.876,97.770 242.978,99.540 242.361 C 100.233 242.119,100.800 241.763,100.800 241.569 C 100.800 241.375,101.508 240.855,102.374 240.413 C 103.239 239.972,104.213 239.231,104.538 238.767 C 105.426 237.500,106.650 238.072,106.992 239.914 C 107.325 241.710,108.230 242.805,109.362 242.784 C 110.008 242.772,109.901 242.639,108.900 242.204 C 107.742 241.701,107.600 241.462,107.600 240.030 C 107.600 237.684,105.797 236.705,104.353 238.265 M207.599 239.002 C 207.083 239.551,206.754 240.000,206.869 240.000 C 207.266 240.000,208.927 238.394,208.732 238.199 C 208.625 238.091,208.114 238.452,207.599 239.002 M210.000 238.268 C 210.000 238.779,211.535 240.198,211.801 239.932 C 211.909 239.825,211.548 239.314,210.998 238.799 C 210.449 238.283,210.000 238.044,210.000 238.268 M204.974 241.500 C 204.055 242.728,204.017 242.856,204.763 242.204 C 205.631 241.446,206.614 240.000,206.262 240.000 C 206.170 240.000,205.590 240.675,204.974 241.500 M212.600 240.400 C 212.736 240.620,213.087 240.800,213.381 240.800 C 213.674 240.800,214.005 241.036,214.116 241.324 C 214.325 241.870,217.528 243.005,217.876 242.657 C 217.986 242.548,217.431 242.280,216.644 242.063 C 215.857 241.846,214.735 241.293,214.152 240.834 C 213.040 239.959,212.179 239.718,212.600 240.400 M336.800 242.597 C 333.575 243.538,330.582 244.741,331.390 244.771 C 331.825 244.787,333.355 244.365,334.790 243.833 C 336.226 243.301,338.030 242.690,338.800 242.474 C 339.570 242.258,339.840 242.079,339.400 242.077 C 338.960 242.074,337.790 242.308,336.800 242.597 M303.720 244.400 C 303.720 245.610,303.795 246.105,303.887 245.500 C 303.978 244.895,303.978 243.905,303.887 243.300 C 303.795 242.695,303.720 243.190,303.720 244.400 M74.947 243.651 C 75.798 244.100,77.508 244.536,78.747 244.620 L 81.000 244.773 78.881 244.387 C 77.716 244.175,76.240 243.731,75.601 243.401 C 74.962 243.070,74.206 242.808,73.920 242.818 C 73.634 242.827,74.096 243.203,74.947 243.651 M95.477 243.441 C 94.860 243.776,93.600 244.199,92.677 244.381 L 91.000 244.712 92.518 244.756 C 93.442 244.783,94.773 244.408,95.915 243.800 C 96.948 243.250,97.525 242.807,97.197 242.816 C 96.869 242.825,96.095 243.106,95.477 243.441 M111.100 243.082 C 111.595 243.178,112.405 243.178,112.900 243.082 C 113.395 242.987,112.990 242.909,112.000 242.909 C 111.010 242.909,110.605 242.987,111.100 243.082 M148.100 243.076 C 148.485 243.176,149.115 243.176,149.500 243.076 C 149.885 242.975,149.570 242.893,148.800 242.893 C 148.030 242.893,147.715 242.975,148.100 243.076 M157.300 243.076 C 157.685 243.176,158.315 243.176,158.700 243.076 C 159.085 242.975,158.770 242.893,158.000 242.893 C 157.230 242.893,156.915 242.975,157.300 243.076 M201.703 244.700 C 200.769 245.712,200.053 246.586,200.111 246.645 C 200.325 246.859,202.686 244.571,203.149 243.700 C 203.797 242.482,203.667 242.572,201.703 244.700 M218.400 242.922 C 218.400 243.295,223.535 244.801,224.684 244.765 C 225.416 244.742,224.907 244.489,223.200 244.028 C 221.770 243.642,220.105 243.188,219.500 243.020 C 218.895 242.851,218.400 242.807,218.400 242.922 M83.865 245.230 C 85.220 245.403,87.200 245.406,88.265 245.237 C 89.794 244.994,89.277 244.928,85.800 244.923 C 81.862 244.917,81.659 244.949,83.865 245.230 M229.200 245.186 C 231.070 245.333,234.130 245.334,236.000 245.189 C 238.697 244.979,237.994 244.923,232.600 244.921 C 227.203 244.918,226.501 244.973,229.200 245.186 M323.980 245.206 C 325.400 245.364,327.470 245.365,328.580 245.208 C 330.100 244.993,329.461 244.922,326.000 244.921 C 322.015 244.919,321.745 244.958,323.980 245.206 M303.709 252.400 C 303.709 253.390,303.787 253.795,303.882 253.300 C 303.978 252.805,303.978 251.995,303.882 251.500 C 303.787 251.005,303.709 251.410,303.709 252.400 M303.775 266.400 C 303.775 272.230,303.831 274.615,303.899 271.700 C 303.967 268.785,303.967 264.015,303.899 261.100 C 303.831 258.185,303.775 260.570,303.775 266.400 M303.200 280.136 C 302.660 281.273,302.378 281.424,300.400 281.635 L 298.200 281.870 300.491 281.935 C 302.883 282.003,304.284 280.994,303.933 279.455 C 303.852 279.101,303.564 279.369,303.200 280.136 " stroke="none" fill="#7c7c7c" fill-rule="evenodd"></path><path id="path3" d="M108.900 120.812 L 108.000 121.174 107.995 148.687 C 107.989 178.449,108.028 177.676,106.469 178.387 C 105.494 178.831,105.317 178.767,104.355 177.614 C 103.202 176.233,99.857 173.948,97.869 173.183 C 97.171 172.915,95.790 172.314,94.800 171.848 C 91.459 170.276,77.648 170.650,75.403 172.373 C 75.181 172.543,74.010 173.021,72.800 173.435 C 68.162 175.024,60.428 181.240,58.573 184.868 C 58.198 185.601,57.646 186.344,57.346 186.520 C 57.046 186.696,56.800 187.042,56.800 187.290 C 56.800 187.538,56.184 189.014,55.430 190.570 C 54.677 192.127,53.851 194.390,53.594 195.600 C 53.337 196.810,52.873 198.970,52.563 200.400 C 51.435 205.609,51.791 210.327,54.210 222.226 C 54.303 222.681,54.743 223.473,55.189 223.987 C 55.635 224.502,56.000 225.235,56.000 225.616 C 56.000 225.998,56.630 227.226,57.400 228.345 C 58.170 229.465,58.800 230.571,58.800 230.804 C 58.800 232.811,68.885 240.828,73.800 242.728 C 77.731 244.248,78.438 244.405,82.200 244.591 C 85.573 244.758,85.648 244.745,83.400 244.389 C 82.080 244.179,80.100 243.749,79.000 243.433 C 77.900 243.116,76.100 242.631,75.000 242.353 C 70.151 241.130,60.030 233.277,58.980 229.923 C 58.821 229.415,58.281 228.511,57.782 227.912 C 57.282 227.314,56.572 225.919,56.204 224.812 C 55.836 223.706,55.383 222.800,55.197 222.800 C 54.595 222.800,53.334 214.947,52.948 208.800 C 52.647 203.998,54.029 193.870,55.158 192.603 C 55.551 192.161,56.176 190.806,56.545 189.591 C 56.915 188.376,57.573 187.159,58.009 186.887 C 58.444 186.616,58.800 186.103,58.800 185.749 C 58.800 183.150,69.387 175.064,75.000 173.376 C 76.320 172.979,77.580 172.529,77.800 172.377 C 80.093 170.794,91.208 171.093,95.267 172.847 C 96.734 173.481,98.104 174.000,98.312 174.000 C 98.520 174.000,99.369 174.540,100.200 175.200 C 101.031 175.860,101.951 176.400,102.246 176.400 C 102.540 176.400,103.097 176.895,103.482 177.500 C 104.430 178.990,104.770 179.187,106.420 179.194 C 108.928 179.205,108.800 180.791,108.800 149.767 L 108.800 121.293 109.700 121.052 C 112.197 120.383,121.963 120.784,122.386 121.574 C 122.982 122.688,122.963 241.452,122.366 241.821 C 121.792 242.176,110.789 242.177,109.671 241.823 C 108.968 241.599,108.800 241.238,108.800 239.947 C 108.800 236.322,106.067 235.510,103.257 238.300 C 100.460 241.076,94.756 243.428,88.981 244.187 C 87.870 244.333,86.700 244.626,86.381 244.839 C 85.952 245.123,86.061 245.175,86.800 245.037 C 87.350 244.934,89.039 244.741,90.552 244.608 C 92.066 244.476,93.956 244.091,94.752 243.753 C 95.549 243.416,97.008 242.861,97.995 242.522 C 99.870 241.876,100.938 241.172,103.730 238.738 C 105.952 236.801,107.600 237.353,107.600 240.033 C 107.600 242.401,108.831 242.800,116.143 242.800 C 121.092 242.800,122.037 242.698,122.797 242.083 L 123.682 241.366 123.851 182.783 C 124.032 120.059,124.062 121.539,122.555 120.852 C 121.366 120.310,110.230 120.278,108.900 120.812 M261.000 171.256 C 255.054 177.210,253.795 177.692,250.933 175.106 C 250.456 174.675,248.026 173.592,245.533 172.701 L 241.000 171.080 232.800 171.040 C 224.978 171.002,221.606 171.372,220.200 172.423 C 219.980 172.588,218.505 173.114,216.922 173.593 C 215.339 174.072,213.824 174.730,213.554 175.055 C 213.284 175.380,212.426 175.913,211.646 176.239 C 210.866 176.564,210.132 176.964,210.014 177.126 C 209.896 177.288,208.990 178.036,208.000 178.789 C 206.378 180.021,204.422 181.912,201.760 184.821 C 201.246 185.382,200.533 186.552,200.174 187.421 C 199.816 188.289,199.214 189.360,198.836 189.800 C 198.458 190.240,197.440 192.670,196.574 195.200 L 195.000 199.800 195.015 208.400 L 195.030 217.000 196.649 220.927 C 197.540 223.087,198.554 225.187,198.903 225.595 C 201.576 228.717,201.189 230.070,196.200 235.046 C 193.890 237.351,192.000 239.337,192.000 239.461 C 192.000 239.584,191.551 240.038,191.003 240.469 L 190.007 241.253 190.903 242.844 C 191.396 243.719,192.366 244.791,193.059 245.225 C 193.751 245.659,194.616 246.470,194.982 247.028 C 195.816 248.302,199.006 248.323,199.759 247.060 C 200.371 246.033,207.943 238.458,208.835 237.981 C 209.404 237.677,209.861 237.854,210.934 238.796 C 211.688 239.458,212.483 240.000,212.699 240.000 C 212.915 240.000,213.555 240.364,214.122 240.810 C 214.688 241.255,216.557 242.069,218.276 242.618 C 229.442 246.186,242.323 245.491,249.692 240.925 C 250.513 240.416,251.339 240.000,251.529 240.000 C 253.420 240.000,261.300 232.778,263.848 228.710 C 264.438 227.769,265.075 226.898,265.264 226.774 C 265.454 226.649,265.982 225.487,266.437 224.190 C 266.893 222.894,267.532 221.318,267.858 220.688 C 269.508 217.497,270.292 205.452,269.231 199.600 C 268.754 196.973,265.717 188.800,265.218 188.800 C 264.436 188.800,263.132 185.487,263.384 184.143 C 263.634 182.811,270.303 175.600,271.284 175.600 C 271.603 175.600,271.971 174.834,272.555 172.959 C 272.760 172.299,272.283 171.547,270.336 169.459 C 266.786 165.653,266.551 165.698,261.000 171.256 M270.040 170.039 C 272.498 172.433,272.533 174.276,270.147 175.684 C 269.406 176.121,268.800 176.721,268.800 177.018 C 268.800 177.314,268.305 177.792,267.700 178.080 C 267.095 178.368,266.422 179.009,266.204 179.505 C 265.986 180.001,265.456 180.519,265.026 180.655 C 263.874 181.021,262.828 182.449,262.813 183.676 C 262.806 184.268,262.601 184.876,262.357 185.026 C 262.114 185.177,262.071 185.413,262.261 185.550 C 262.452 185.688,262.965 186.480,263.401 187.312 C 263.837 188.143,264.601 189.296,265.097 189.874 C 265.594 190.452,266.000 191.214,266.000 191.568 C 266.000 192.197,266.910 194.804,268.105 197.600 C 269.688 201.301,269.252 215.701,267.439 219.600 C 266.876 220.810,266.220 222.745,265.980 223.900 C 265.740 225.055,265.382 226.000,265.184 226.000 C 264.986 226.000,264.190 226.945,263.415 228.100 C 261.224 231.364,259.843 233.049,258.363 234.266 C 257.613 234.883,256.855 235.616,256.679 235.896 C 256.502 236.176,255.602 236.789,254.679 237.257 C 253.755 237.725,252.910 238.242,252.800 238.406 C 252.251 239.224,246.622 241.767,243.800 242.472 C 242.040 242.911,240.348 243.480,240.039 243.735 C 239.126 244.491,227.114 244.351,224.400 243.553 C 223.190 243.197,220.959 242.601,219.443 242.229 C 217.927 241.856,216.040 241.112,215.250 240.576 C 214.460 240.039,213.603 239.600,213.345 239.600 C 213.087 239.600,212.115 238.965,211.186 238.188 C 209.314 236.625,209.082 236.665,206.578 238.985 C 205.976 239.543,205.329 240.000,205.142 240.000 C 204.954 240.000,204.800 240.350,204.800 240.778 C 204.800 241.232,204.343 241.775,203.704 242.082 C 203.101 242.371,202.371 243.101,202.082 243.704 C 201.793 244.307,201.314 244.800,201.018 244.800 C 200.721 244.800,200.107 245.430,199.653 246.200 C 198.593 247.997,197.208 248.069,195.552 246.414 C 194.900 245.761,193.878 244.994,193.283 244.710 C 192.687 244.425,192.144 243.802,192.076 243.325 C 192.008 242.848,191.695 242.244,191.380 241.983 C 190.896 241.582,190.961 241.388,191.804 240.725 C 192.352 240.294,192.800 239.690,192.800 239.381 C 192.800 239.073,193.327 238.548,193.972 238.215 C 194.616 237.881,195.257 237.251,195.396 236.813 C 195.535 236.375,196.178 235.704,196.824 235.322 C 197.471 234.940,198.000 234.418,198.000 234.161 C 198.000 233.905,198.630 233.214,199.400 232.627 C 201.441 231.070,201.462 227.796,199.448 225.166 C 198.704 224.195,197.983 222.760,197.844 221.978 C 197.706 221.195,197.229 219.845,196.784 218.978 C 194.759 215.028,194.624 201.908,196.565 197.816 C 196.885 197.142,197.443 195.288,197.806 193.696 C 198.183 192.037,198.758 190.587,199.152 190.300 C 199.531 190.025,200.091 189.170,200.398 188.400 C 201.163 186.477,206.612 180.000,207.464 180.000 C 207.620 180.000,208.610 179.273,209.664 178.385 C 210.717 177.497,212.078 176.551,212.689 176.284 C 213.300 176.016,214.250 175.493,214.800 175.121 C 215.350 174.749,216.662 174.252,217.715 174.017 C 218.769 173.782,220.389 173.242,221.315 172.818 C 224.864 171.191,239.505 170.884,242.317 172.377 C 243.612 173.065,246.205 173.905,247.905 174.188 C 248.908 174.355,249.767 174.764,249.990 175.181 C 250.375 175.901,251.693 176.537,253.715 176.979 C 255.486 177.366,257.093 176.296,261.373 171.878 C 266.157 166.941,266.734 166.818,270.040 170.039 M173.200 171.168 C 170.949 171.681,166.678 173.993,165.671 175.245 C 164.274 176.982,161.200 176.561,161.200 174.633 C 161.200 172.275,147.993 171.550,145.757 173.786 C 145.255 174.288,145.180 179.034,145.216 207.989 L 145.258 241.610 146.409 242.205 C 148.131 243.095,158.838 243.056,160.214 242.154 L 161.200 241.508 161.209 223.854 C 161.220 201.828,161.873 194.525,164.002 192.598 C 164.441 192.201,164.800 191.689,164.800 191.460 C 164.800 190.902,166.838 188.800,167.379 188.800 C 167.615 188.800,168.021 188.458,168.283 188.039 C 169.197 186.575,172.380 185.902,177.112 186.174 C 179.470 186.309,182.390 186.460,183.600 186.510 L 185.800 186.600 186.517 184.438 C 186.911 183.249,187.586 181.781,188.017 181.176 C 188.448 180.571,188.800 179.891,188.800 179.665 C 188.800 179.438,189.273 178.163,189.850 176.831 L 190.900 174.410 189.950 173.618 C 187.081 171.228,178.467 169.968,173.200 171.168 M319.000 171.172 C 316.422 171.796,310.936 174.201,309.726 175.238 C 309.026 175.838,308.110 176.438,307.690 176.571 C 307.271 176.704,306.689 177.260,306.396 177.807 C 305.437 179.600,304.262 178.742,303.842 175.941 C 303.349 172.656,303.300 172.633,296.544 172.616 C 293.275 172.607,290.297 172.450,289.927 172.268 C 289.412 172.013,289.107 172.219,288.627 173.148 C 287.706 174.930,287.667 278.596,288.587 280.375 C 289.213 281.586,293.452 282.059,300.116 281.662 C 303.841 281.440,303.609 282.919,303.716 258.709 C 303.824 234.288,303.734 234.809,307.359 237.716 C 310.755 240.440,313.190 241.967,315.065 242.547 C 316.129 242.876,317.990 243.520,319.200 243.978 C 322.813 245.345,329.179 245.191,333.673 243.627 C 335.584 242.962,337.894 242.298,338.808 242.152 C 339.721 242.006,340.565 241.636,340.683 241.329 C 340.801 241.022,341.459 240.480,342.146 240.125 C 346.385 237.932,352.326 231.691,354.448 227.200 C 354.916 226.210,355.547 225.115,355.850 224.768 C 356.449 224.081,358.153 218.841,359.026 215.000 C 359.767 211.743,359.774 201.988,359.037 199.387 C 356.974 192.101,356.358 190.215,355.856 189.644 C 355.544 189.290,354.923 188.186,354.476 187.190 C 354.028 186.195,353.288 185.042,352.831 184.628 C 352.374 184.214,352.000 183.679,352.000 183.438 C 351.999 183.070,351.073 182.023,348.600 179.594 C 347.357 178.373,344.659 176.409,343.891 176.167 C 343.401 176.012,342.460 175.489,341.800 175.005 C 337.312 171.714,325.187 169.675,319.000 171.172 M182.000 171.580 C 187.546 172.094,190.698 173.886,189.555 175.877 C 189.201 176.495,188.797 177.603,188.657 178.340 C 188.518 179.077,187.960 180.207,187.418 180.852 C 186.876 181.496,186.321 182.693,186.185 183.512 C 186.049 184.330,185.872 185.213,185.792 185.473 C 185.600 186.096,183.403 186.291,181.400 185.864 C 176.860 184.897,169.313 185.797,167.867 187.478 C 167.390 188.032,166.592 188.643,166.093 188.836 C 165.594 189.028,165.020 189.622,164.817 190.154 C 164.615 190.687,164.050 191.495,163.562 191.949 C 162.625 192.822,161.389 196.831,160.771 201.000 C 160.575 202.320,160.403 212.004,160.388 222.520 C 160.368 237.021,160.245 241.683,159.881 241.819 C 158.939 242.170,147.786 242.246,147.000 241.907 C 145.764 241.374,145.792 174.585,147.028 173.859 C 147.492 173.587,150.033 173.389,153.400 173.363 C 159.652 173.314,160.395 173.568,160.406 175.762 C 160.415 177.642,160.946 178.262,162.074 177.709 C 162.583 177.460,163.648 177.058,164.441 176.816 C 165.292 176.557,166.057 175.992,166.311 175.436 C 166.585 174.833,167.420 174.264,168.636 173.849 C 169.680 173.494,170.829 172.936,171.190 172.609 C 172.472 171.449,176.471 171.068,182.000 171.580 M330.845 171.598 C 332.030 171.818,333.360 172.165,333.800 172.370 C 334.240 172.575,335.860 173.138,337.400 173.622 C 338.940 174.105,340.560 174.826,341.000 175.223 C 341.440 175.621,342.655 176.312,343.700 176.759 C 344.745 177.206,345.600 177.754,345.600 177.978 C 345.600 178.201,346.320 178.751,347.200 179.200 C 348.080 179.649,348.800 180.278,348.800 180.599 C 348.800 180.919,349.228 181.462,349.751 181.804 C 350.273 182.147,351.209 183.231,351.830 184.214 C 352.451 185.196,353.090 186.000,353.249 186.000 C 353.408 186.000,353.751 186.675,354.012 187.500 C 354.273 188.325,354.921 189.647,355.454 190.437 C 355.986 191.227,356.580 192.847,356.774 194.037 C 356.968 195.227,357.504 197.190,357.965 198.400 C 359.536 202.518,359.471 210.707,357.821 216.600 C 357.452 217.920,356.979 219.891,356.770 220.979 C 356.561 222.068,356.054 223.328,355.643 223.779 C 355.232 224.231,354.661 225.320,354.374 226.200 C 354.086 227.080,353.547 228.081,353.175 228.424 C 352.803 228.767,352.220 229.577,351.878 230.224 C 351.040 231.809,346.277 236.636,344.793 237.403 C 344.137 237.743,343.600 238.174,343.600 238.362 C 343.600 238.549,343.065 238.925,342.411 239.195 C 341.757 239.466,340.790 240.088,340.262 240.577 C 339.703 241.095,338.070 241.759,336.351 242.167 C 334.728 242.552,332.364 243.236,331.098 243.688 C 328.619 244.572,321.796 244.580,320.709 243.701 C 320.429 243.475,318.781 242.903,317.046 242.431 C 315.311 241.959,313.442 241.219,312.892 240.786 C 312.342 240.354,311.668 240.000,311.395 240.000 C 311.122 240.000,310.665 239.719,310.381 239.377 C 310.096 239.034,308.790 237.937,307.478 236.939 L 305.093 235.125 304.097 236.121 L 303.102 237.116 303.169 258.294 C 303.231 277.781,303.182 279.517,302.557 280.036 C 301.499 280.914,289.368 281.015,289.036 280.149 C 288.743 279.385,288.644 174.175,288.936 173.703 C 289.051 173.517,292.134 173.374,295.788 173.384 C 303.220 173.406,303.183 173.391,303.194 176.230 C 303.205 179.309,305.844 180.594,306.990 178.079 C 307.205 177.608,307.875 177.018,308.479 176.767 C 309.084 176.517,310.036 175.888,310.595 175.370 C 311.154 174.852,312.374 174.223,313.306 173.973 C 314.238 173.723,315.720 173.159,316.600 172.719 C 319.318 171.361,326.504 170.796,330.845 171.598 M82.928 184.778 C 82.229 185.205,80.894 185.759,79.963 186.010 C 79.004 186.268,77.826 186.972,77.246 187.633 C 76.683 188.275,76.037 188.803,75.811 188.807 C 75.138 188.817,72.116 192.158,71.444 193.633 C 71.102 194.385,70.456 195.450,70.008 196.000 C 69.486 196.640,68.995 198.223,68.643 200.400 C 68.340 202.270,67.873 204.533,67.604 205.430 C 67.239 206.647,67.222 207.709,67.537 209.630 C 68.398 214.889,68.889 217.032,69.498 218.200 C 71.513 222.062,72.111 223.060,72.730 223.600 C 73.108 223.930,73.831 224.785,74.336 225.500 C 74.841 226.215,75.469 226.800,75.731 226.800 C 75.994 226.800,76.659 227.218,77.211 227.730 C 78.888 229.285,80.108 229.936,82.200 230.392 C 83.300 230.631,84.815 231.114,85.566 231.464 C 87.596 232.409,97.611 230.197,99.246 228.443 C 99.678 227.979,100.207 227.600,100.421 227.600 C 101.000 227.600,104.800 223.912,104.800 223.351 C 104.800 223.085,105.222 222.537,105.738 222.133 C 108.824 219.722,110.949 206.298,109.053 201.200 C 108.684 200.210,108.012 198.320,107.560 197.000 C 107.107 195.680,106.327 194.150,105.827 193.600 C 105.327 193.050,104.818 192.315,104.697 191.968 C 104.282 190.774,99.312 186.790,97.446 186.154 C 96.431 185.808,95.600 185.370,95.600 185.181 C 95.600 183.839,85.021 183.503,82.928 184.778 M225.381 184.972 C 224.291 185.507,222.913 186.048,222.317 186.176 C 221.721 186.303,220.731 186.873,220.117 187.444 C 219.503 188.014,218.534 188.722,217.965 189.017 C 217.396 189.312,216.416 190.238,215.787 191.076 C 215.157 191.914,214.505 192.696,214.337 192.814 C 210.286 195.651,208.424 214.060,211.842 217.478 C 213.054 218.691,214.907 218.701,215.709 217.500 C 216.040 217.005,218.324 214.530,220.784 212.000 C 223.245 209.470,225.380 207.264,225.529 207.098 C 225.678 206.931,226.836 205.761,228.103 204.498 C 233.433 199.180,235.142 197.350,235.572 196.500 C 235.823 196.005,236.298 195.600,236.628 195.600 C 236.957 195.600,237.599 194.970,238.053 194.200 C 238.507 193.430,239.093 192.800,239.355 192.800 C 239.864 192.800,242.505 189.798,242.873 188.800 C 243.474 187.174,241.813 185.790,237.640 184.440 C 234.928 183.562,227.606 183.880,225.381 184.972 M317.520 184.772 C 316.705 185.179,315.206 185.795,314.188 186.142 C 313.169 186.489,311.993 187.209,311.574 187.742 C 311.155 188.274,310.372 188.821,309.833 188.956 C 309.294 189.091,308.750 189.529,308.623 189.929 C 308.496 190.328,307.854 191.053,307.196 191.540 C 306.538 192.026,306.000 192.752,306.000 193.154 C 306.000 193.555,305.563 194.354,305.030 194.930 C 304.379 195.632,303.842 197.002,303.400 199.088 C 303.038 200.800,302.556 202.686,302.330 203.281 C 301.125 206.449,303.521 220.800,305.255 220.800 C 305.411 220.800,305.748 221.437,306.005 222.214 C 306.262 222.992,306.994 224.015,307.632 224.487 C 308.270 224.959,308.890 225.654,309.010 226.032 C 309.130 226.411,309.654 226.827,310.175 226.958 C 310.695 227.088,311.730 227.759,312.474 228.449 C 314.946 230.737,322.852 232.502,325.842 231.433 C 326.919 231.048,328.775 230.460,329.966 230.127 C 333.022 229.274,339.200 224.687,339.200 223.271 C 339.200 223.039,339.739 222.259,340.398 221.537 C 341.057 220.816,341.712 219.590,341.853 218.813 C 341.994 218.036,342.561 216.500,343.112 215.400 C 344.521 212.591,344.621 203.546,343.271 201.033 C 342.808 200.171,342.238 198.551,342.004 197.433 C 341.771 196.315,341.223 194.950,340.786 194.400 C 340.350 193.850,339.586 192.776,339.090 192.013 C 337.996 190.335,332.930 186.005,332.039 185.987 C 331.687 185.981,330.500 185.532,329.400 184.991 C 326.763 183.694,319.929 183.568,317.520 184.772 M94.969 185.853 C 96.272 186.374,97.513 186.800,97.728 186.800 C 98.644 186.800,104.800 192.477,104.800 193.322 C 104.800 193.557,105.159 194.131,105.598 194.598 C 107.647 196.779,109.485 205.639,108.900 210.518 C 107.765 219.993,103.401 226.392,96.078 229.322 C 93.628 230.302,87.450 230.963,85.444 230.460 C 84.540 230.233,83.214 229.951,82.497 229.833 C 81.781 229.715,80.080 228.895,78.718 228.009 C 77.356 227.124,76.114 226.400,75.958 226.400 C 75.349 226.400,71.135 220.195,69.814 217.355 C 67.925 213.292,68.058 201.353,70.035 197.600 C 70.440 196.830,71.131 195.470,71.570 194.577 C 73.220 191.226,78.444 186.823,81.791 185.965 C 82.456 185.794,83.720 185.385,84.600 185.055 C 86.825 184.222,91.857 184.610,94.969 185.853 M238.438 185.639 C 241.102 186.448,242.400 187.228,242.400 188.021 C 242.400 188.625,239.834 191.949,239.347 191.975 C 239.099 191.989,238.447 192.585,237.900 193.300 C 237.352 194.015,234.136 197.436,230.752 200.902 C 227.368 204.368,222.440 209.448,219.800 212.192 C 214.083 218.133,212.583 218.527,211.245 214.440 C 210.546 212.305,210.676 202.801,211.436 200.514 C 213.150 195.353,217.529 188.800,219.264 188.800 C 219.495 188.800,220.213 188.355,220.859 187.812 C 224.344 184.880,232.584 183.861,238.438 185.639 M329.600 185.902 C 331.250 186.458,333.104 187.292,333.720 187.756 C 335.845 189.357,338.669 192.204,339.319 193.400 C 341.104 196.685,341.993 198.675,341.996 199.400 C 341.999 199.840,342.360 201.147,342.800 202.304 C 344.561 206.938,342.918 217.162,339.725 221.438 C 339.216 222.119,338.800 222.815,338.800 222.985 C 338.800 223.499,335.899 226.107,333.563 227.692 C 328.490 231.135,318.699 231.683,314.200 228.776 C 313.540 228.350,312.480 227.686,311.844 227.300 C 309.882 226.111,306.980 223.071,306.403 221.600 C 306.101 220.830,305.437 219.691,304.927 219.069 C 304.417 218.447,303.997 217.727,303.992 217.469 C 303.988 217.211,303.724 215.200,303.405 213.000 C 302.449 206.405,303.555 196.000,305.212 196.000 C 305.391 196.000,305.749 195.361,306.007 194.579 C 306.942 191.746,312.088 187.428,316.178 186.046 C 321.507 184.245,324.580 184.212,329.600 185.902 M248.488 196.526 C 248.000 196.744,247.600 197.059,247.600 197.227 C 247.600 197.395,247.048 198.042,246.374 198.666 C 245.699 199.290,244.884 200.295,244.563 200.900 C 244.242 201.505,243.783 202.000,243.543 202.000 C 243.028 202.000,240.581 204.460,239.288 206.276 C 238.788 206.978,238.051 207.657,237.650 207.784 C 237.249 207.911,236.718 208.462,236.469 209.008 C 236.221 209.553,235.764 210.000,235.454 210.000 C 235.145 210.000,234.592 210.630,234.227 211.400 C 233.861 212.170,233.322 212.800,233.029 212.800 C 232.735 212.800,232.024 213.418,231.448 214.173 C 230.872 214.928,230.058 215.655,229.640 215.787 C 229.222 215.920,228.776 216.441,228.649 216.946 C 228.523 217.450,227.980 218.063,227.444 218.307 C 226.908 218.551,226.355 219.113,226.214 219.555 C 226.074 219.997,225.606 220.471,225.175 220.608 C 224.744 220.745,224.120 221.381,223.789 222.022 C 223.458 222.662,222.661 223.458,222.018 223.791 C 221.078 224.277,220.797 224.746,220.580 226.192 C 220.216 228.621,220.469 229.078,222.479 229.617 C 223.425 229.871,225.207 230.420,226.437 230.838 C 229.687 231.941,234.379 231.975,237.400 230.918 C 238.720 230.456,240.557 229.876,241.482 229.628 C 242.407 229.381,243.397 228.958,243.682 228.689 C 243.967 228.419,245.010 227.677,246.000 227.039 C 246.990 226.401,247.951 225.623,248.136 225.311 C 248.320 224.999,249.243 223.796,250.186 222.638 C 252.626 219.642,253.896 215.724,254.151 210.400 L 254.353 206.200 253.809 210.472 C 253.509 212.821,252.991 215.341,252.658 216.072 C 252.324 216.802,251.871 218.085,251.652 218.923 C 251.432 219.760,250.655 221.128,249.926 221.961 C 249.197 222.794,248.138 224.026,247.572 224.697 C 243.994 228.947,237.067 231.166,229.685 230.427 C 223.343 229.792,221.438 229.036,221.276 227.089 C 221.139 225.443,220.655 225.999,234.600 211.799 C 237.680 208.663,240.977 205.267,241.928 204.253 C 242.878 203.239,243.874 202.272,244.141 202.104 C 244.408 201.937,245.605 200.675,246.802 199.300 C 250.520 195.028,252.883 196.906,253.723 204.800 C 253.805 205.570,253.901 204.973,253.936 203.474 C 254.057 198.334,251.563 195.154,248.488 196.526 " stroke="none" fill="#747474" fill-rule="evenodd"></path><path id="path4" d="M109.771 119.122 C 106.017 119.718,106.251 117.830,106.170 148.229 C 106.088 179.265,106.286 177.307,103.494 174.735 C 102.343 173.673,101.110 172.804,100.756 172.802 C 100.402 172.801,99.481 172.372,98.710 171.849 C 94.323 168.872,76.907 168.851,72.536 171.818 C 71.740 172.358,70.682 172.800,70.184 172.800 C 68.510 172.800,58.400 181.019,58.400 182.380 C 58.400 182.569,57.773 183.474,57.007 184.391 C 56.241 185.308,55.403 186.765,55.144 187.629 C 54.885 188.493,54.550 189.200,54.400 189.200 C 53.887 189.200,52.835 191.795,52.603 193.633 C 52.475 194.641,52.011 196.137,51.571 196.958 C 49.673 200.499,49.723 214.762,51.643 217.870 C 52.091 218.594,52.556 220.224,52.679 221.493 C 52.833 223.090,53.176 224.108,53.795 224.800 C 54.286 225.350,55.019 226.744,55.423 227.898 C 55.835 229.076,56.461 230.092,56.850 230.216 C 57.232 230.337,57.655 230.941,57.791 231.557 C 58.238 233.596,65.156 240.800,66.666 240.800 C 66.926 240.800,67.647 241.222,68.269 241.738 C 68.891 242.254,70.300 243.009,71.400 243.417 C 72.500 243.825,73.898 244.519,74.507 244.960 C 76.851 246.656,94.638 246.625,96.489 244.921 C 96.990 244.461,98.433 243.762,99.696 243.370 C 101.143 242.920,102.077 242.388,102.222 241.929 C 102.349 241.529,102.896 241.091,103.436 240.955 C 103.976 240.820,104.672 240.347,104.981 239.906 C 105.514 239.145,105.566 239.188,105.987 240.750 C 106.807 243.798,107.313 243.999,114.175 244.006 C 117.489 244.009,120.464 244.179,120.787 244.383 C 121.109 244.587,121.559 244.609,121.787 244.432 C 122.014 244.255,122.693 243.993,123.295 243.849 C 125.887 243.230,125.708 247.724,125.756 181.884 C 125.802 119.790,125.818 120.466,124.266 119.635 C 123.393 119.168,112.018 118.766,109.771 119.122 M122.950 120.450 C 124.442 121.130,124.388 118.768,124.374 182.162 L 124.360 241.636 123.228 242.324 C 122.270 242.907,121.078 243.007,115.454 242.974 C 107.937 242.930,107.467 242.763,106.997 239.981 C 106.675 238.075,105.447 237.469,104.538 238.767 C 104.213 239.231,103.239 239.972,102.374 240.413 C 101.508 240.855,100.800 241.378,100.800 241.576 C 100.800 241.774,99.857 242.249,98.705 242.632 C 97.552 243.014,96.067 243.658,95.405 244.062 C 94.742 244.466,93.480 244.799,92.600 244.801 C 91.720 244.803,89.975 244.973,88.721 245.178 C 83.797 245.984,76.084 244.573,71.200 241.972 C 70.430 241.562,69.004 240.838,68.030 240.364 C 66.309 239.524,58.800 232.379,58.800 231.580 C 58.800 231.360,58.170 230.265,57.400 229.145 C 56.630 228.026,56.000 226.886,56.000 226.611 C 56.000 226.336,55.553 225.452,55.006 224.646 C 54.377 223.721,53.697 221.675,53.156 219.091 C 52.686 216.841,52.130 214.190,51.921 213.200 C 50.689 207.369,52.082 196.678,54.840 190.800 C 57.314 185.528,58.250 184.153,61.800 180.574 C 63.560 178.800,66.080 176.625,67.400 175.741 C 69.537 174.310,71.122 173.575,77.000 171.292 C 80.157 170.065,92.916 170.380,95.829 171.757 C 101.004 174.202,101.776 174.668,103.666 176.487 C 105.784 178.525,107.173 178.296,107.216 175.900 C 107.225 175.405,107.218 162.904,107.201 148.121 L 107.169 121.242 108.285 120.637 C 109.675 119.883,121.378 119.734,122.950 120.450 M263.726 166.376 C 263.107 167.243,262.272 168.039,261.870 168.146 C 261.469 168.253,261.045 168.708,260.927 169.157 C 260.810 169.606,260.377 170.080,259.965 170.211 C 259.553 170.342,258.904 170.978,258.522 171.625 C 258.140 172.272,257.522 172.898,257.149 173.016 C 256.777 173.134,256.181 173.674,255.827 174.216 C 254.976 175.514,254.034 175.458,252.200 174.000 C 251.369 173.340,250.279 172.800,249.776 172.800 C 249.273 172.800,248.353 172.372,247.731 171.849 C 244.408 169.054,221.148 168.895,217.654 171.643 C 217.118 172.065,215.950 172.527,215.057 172.669 C 214.165 172.812,213.054 173.305,212.588 173.764 C 212.123 174.224,210.894 175.005,209.858 175.501 C 208.822 175.997,207.870 176.673,207.744 177.003 C 207.617 177.333,206.920 177.885,206.196 178.229 C 205.472 178.572,204.785 179.215,204.669 179.656 C 204.554 180.098,204.098 180.554,203.656 180.669 C 203.215 180.785,202.568 181.480,202.220 182.215 C 201.871 182.950,201.262 183.654,200.865 183.779 C 200.151 184.006,198.800 186.342,198.800 187.349 C 198.800 187.637,198.350 188.077,197.800 188.327 C 197.108 188.642,196.800 189.102,196.800 189.818 C 196.800 190.908,196.216 192.241,195.365 193.092 C 194.647 193.810,193.107 203.226,193.091 207.000 C 193.069 211.951,194.582 221.831,195.411 222.149 C 195.724 222.269,196.183 223.171,196.430 224.153 C 196.703 225.236,197.346 226.355,198.066 226.996 C 199.631 228.390,199.007 231.495,197.143 231.587 C 197.002 231.594,196.772 232.056,196.632 232.614 C 196.489 233.184,195.941 233.794,195.382 234.007 C 194.834 234.215,194.219 234.823,194.016 235.359 C 193.812 235.894,193.321 236.437,192.923 236.566 C 188.352 238.048,187.621 243.447,191.643 246.027 C 192.719 246.718,193.600 247.437,193.600 247.626 C 193.600 250.357,200.241 250.276,200.931 247.537 C 201.060 247.022,201.578 246.420,202.082 246.200 C 202.585 245.980,203.232 245.305,203.520 244.700 C 203.808 244.095,204.306 243.600,204.628 243.600 C 204.949 243.600,205.548 243.048,205.958 242.373 C 207.622 239.636,211.238 239.485,213.119 242.075 C 213.404 242.467,214.641 243.080,215.868 243.437 C 217.096 243.794,218.709 244.446,219.455 244.885 C 222.468 246.663,241.807 246.646,245.025 244.863 C 245.891 244.383,247.566 243.654,248.746 243.245 C 249.926 242.835,251.215 242.223,251.610 241.884 C 252.005 241.546,253.155 240.904,254.164 240.457 C 255.174 240.010,256.000 239.494,256.000 239.309 C 256.000 239.124,256.495 238.677,257.100 238.316 C 258.487 237.489,262.000 234.219,262.000 233.756 C 262.000 233.565,262.449 232.957,262.997 232.404 C 264.766 230.623,266.682 227.772,267.190 226.165 C 267.463 225.304,268.153 223.908,268.723 223.062 C 269.451 221.984,269.846 220.726,270.047 218.848 C 270.204 217.375,270.708 215.103,271.167 213.799 C 272.176 210.926,272.278 206.280,271.395 203.309 C 271.063 202.189,270.532 199.433,270.217 197.185 C 269.797 194.191,269.427 192.868,268.835 192.237 C 268.391 191.764,267.744 190.572,267.398 189.589 C 267.052 188.605,266.326 187.388,265.784 186.884 C 264.207 185.416,264.511 183.177,266.420 182.190 C 267.038 181.870,267.650 181.274,267.779 180.865 C 267.909 180.456,268.446 179.925,268.973 179.685 C 269.500 179.445,270.044 178.891,270.183 178.453 C 270.322 178.016,271.057 177.291,271.818 176.843 C 272.578 176.394,273.200 175.828,273.200 175.585 C 273.200 175.342,273.470 174.873,273.799 174.543 C 274.931 173.412,274.992 172.003,273.953 171.006 C 273.429 170.503,271.930 168.901,270.623 167.445 C 267.551 164.026,265.619 163.726,263.726 166.376 M270.346 168.877 C 271.586 170.210,272.718 171.503,272.863 171.750 C 273.657 173.106,270.607 177.060,265.034 181.897 C 264.072 182.732,263.766 183.813,263.941 185.753 C 263.979 186.167,264.637 187.361,265.405 188.406 C 266.172 189.452,266.800 190.503,266.800 190.741 C 266.800 190.980,267.162 191.869,267.603 192.717 C 270.907 199.055,270.999 215.292,267.769 221.987 C 267.236 223.092,266.800 224.247,266.800 224.553 C 266.800 224.860,266.170 226.026,265.400 227.145 C 264.630 228.265,264.000 229.298,264.000 229.442 C 264.000 229.586,263.361 230.445,262.581 231.352 C 251.665 244.030,235.187 248.565,219.040 243.335 C 216.598 242.544,214.420 241.687,214.200 241.432 C 213.980 241.176,213.120 240.648,212.288 240.259 C 211.457 239.870,210.558 239.202,210.292 238.776 C 210.026 238.349,209.664 238.000,209.489 238.000 C 208.960 238.000,204.516 242.271,201.000 246.160 C 198.495 248.931,196.406 249.273,194.661 247.200 C 194.106 246.540,193.474 246.000,193.257 246.000 C 192.702 246.000,190.123 242.915,189.871 241.950 C 189.709 241.331,190.837 239.958,194.831 235.908 C 200.654 230.004,201.292 228.553,199.010 226.409 C 198.466 225.898,197.720 224.652,197.353 223.640 C 196.987 222.628,196.223 220.810,195.655 219.600 C 194.644 217.443,194.624 217.226,194.612 208.400 L 194.600 199.400 195.932 195.570 C 196.664 193.464,197.694 191.034,198.221 190.170 C 198.747 189.307,199.521 187.870,199.941 186.979 C 200.651 185.469,201.192 184.798,204.538 181.269 C 207.484 178.162,213.289 174.366,217.200 172.990 C 218.630 172.487,220.610 171.761,221.600 171.377 C 223.127 170.784,224.767 170.680,232.400 170.691 L 241.400 170.703 245.647 172.311 C 247.984 173.196,250.620 174.399,251.506 174.985 C 254.472 176.948,254.943 176.744,260.477 171.100 C 266.451 165.009,266.696 164.953,270.346 168.877 M172.600 169.975 C 169.817 170.351,168.000 170.997,168.000 171.611 C 168.000 171.847,167.350 172.312,166.556 172.644 C 165.762 172.976,165.021 173.597,164.910 174.024 C 164.553 175.388,163.368 174.938,162.861 173.247 C 162.079 170.636,161.951 170.600,153.381 170.600 C 144.860 170.600,144.352 170.741,143.852 173.239 C 143.071 177.146,143.579 242.157,144.397 242.976 C 145.314 243.892,157.999 244.630,160.657 243.921 C 163.089 243.273,162.982 244.283,163.200 219.839 L 163.400 197.400 165.158 193.900 C 166.124 191.975,167.113 190.400,167.354 190.400 C 167.596 190.400,168.762 189.733,169.947 188.917 C 172.719 187.007,179.340 186.666,181.573 188.317 C 184.096 190.182,186.638 189.099,187.559 185.765 C 187.762 185.027,188.314 183.883,188.783 183.223 C 189.253 182.564,189.908 180.983,190.238 179.712 C 190.568 178.440,191.013 177.339,191.227 177.264 C 194.082 176.266,191.796 171.508,187.914 170.365 C 186.136 169.842,175.579 169.573,172.600 169.975 M318.200 169.988 C 315.469 170.304,312.800 171.100,312.800 171.598 C 312.800 171.783,311.982 172.246,310.981 172.628 C 309.981 173.011,308.988 173.648,308.776 174.045 C 308.563 174.443,307.762 175.065,306.995 175.429 C 306.228 175.793,305.587 176.296,305.572 176.546 C 305.502 177.677,304.853 175.220,304.828 173.729 C 304.777 170.691,303.884 170.356,296.026 170.429 C 286.493 170.518,286.050 170.908,286.276 179.016 C 286.344 181.427,286.444 205.511,286.499 232.535 L 286.600 281.671 287.544 282.435 C 289.087 283.684,302.804 283.592,303.984 282.325 C 304.784 281.467,304.800 281.027,304.806 260.225 C 304.812 238.480,304.898 237.210,306.252 238.866 C 306.672 239.380,307.642 240.151,308.408 240.581 C 309.173 241.010,310.070 241.659,310.400 242.023 C 310.730 242.387,311.900 243.011,313.000 243.410 C 314.100 243.809,315.468 244.478,316.040 244.898 C 318.442 246.662,332.757 246.648,335.755 244.879 C 336.495 244.443,338.108 243.793,339.340 243.435 C 340.572 243.076,342.027 242.337,342.572 241.792 C 343.117 241.246,343.820 240.800,344.134 240.800 C 345.667 240.800,354.274 231.775,355.441 228.942 C 355.791 228.094,356.417 227.031,356.834 226.579 C 357.250 226.128,357.775 224.787,358.000 223.600 C 358.225 222.413,358.748 221.072,359.161 220.621 C 361.503 218.063,361.508 197.059,359.168 194.072 C 358.768 193.561,358.319 192.334,358.171 191.344 C 358.022 190.353,357.501 189.061,357.013 188.472 C 356.525 187.882,355.792 186.632,355.383 185.694 C 354.975 184.755,354.226 183.716,353.720 183.385 C 353.214 183.053,352.800 182.520,352.800 182.200 C 352.800 181.880,352.341 181.318,351.780 180.950 C 351.218 180.582,350.494 179.768,350.169 179.141 C 349.845 178.513,349.315 178.000,348.993 178.000 C 348.670 178.000,347.925 177.460,347.337 176.800 C 346.749 176.140,346.073 175.600,345.834 175.599 C 345.595 175.599,344.770 175.054,344.000 174.389 C 343.230 173.724,342.150 173.082,341.600 172.962 C 340.228 172.664,339.181 172.155,338.000 171.215 C 336.329 169.884,325.101 169.188,318.200 169.988 M187.285 171.511 C 188.228 171.931,189.588 172.771,190.307 173.378 L 191.614 174.483 190.856 175.741 C 190.439 176.434,189.795 177.935,189.425 179.077 C 189.054 180.220,188.413 181.584,188.000 182.109 C 187.587 182.634,187.134 183.589,186.994 184.232 C 186.293 187.431,185.040 188.041,181.366 186.973 C 178.395 186.109,172.012 186.325,170.200 187.351 C 162.522 191.698,162.327 192.478,162.033 220.000 L 161.800 241.800 160.566 242.417 C 159.012 243.194,147.132 243.220,145.693 242.450 L 144.800 241.972 144.800 207.780 L 144.800 173.588 146.100 172.796 C 147.241 172.100,148.124 172.003,153.326 172.001 C 159.907 172.000,160.368 172.131,161.811 174.417 C 162.978 176.266,164.115 176.470,165.246 175.032 C 166.504 173.434,171.142 171.050,173.600 170.740 C 177.644 170.229,185.380 170.665,187.285 171.511 M331.745 170.813 C 339.078 171.873,348.305 177.484,352.281 183.300 C 352.845 184.125,353.443 184.800,353.610 184.800 C 353.777 184.800,354.215 185.555,354.584 186.477 C 354.953 187.399,355.581 188.614,355.979 189.177 C 356.377 189.740,357.018 191.280,357.403 192.600 C 357.788 193.920,358.484 195.900,358.951 197.000 C 360.145 199.813,360.231 214.316,359.071 217.200 C 358.672 218.190,358.082 219.949,357.758 221.109 C 357.122 223.391,354.369 228.905,353.219 230.200 C 352.829 230.640,352.345 231.311,352.144 231.690 C 351.416 233.067,346.876 237.437,344.566 238.986 C 343.265 239.858,341.700 240.976,341.088 241.470 C 340.477 241.964,339.307 242.489,338.488 242.637 C 337.670 242.785,335.920 243.325,334.600 243.836 C 326.653 246.914,316.671 245.192,308.859 239.396 C 303.601 235.496,304.000 233.871,304.000 259.173 C 304.000 284.916,305.053 282.000,295.757 282.000 L 288.759 282.000 288.175 280.602 C 287.135 278.112,287.521 173.592,288.575 172.428 C 289.040 171.914,289.599 171.672,289.975 171.823 C 290.319 171.961,293.318 172.051,296.639 172.023 C 303.551 171.964,303.522 171.951,304.050 175.289 C 304.455 177.856,305.305 178.899,305.973 177.651 C 306.221 177.187,306.913 176.552,307.512 176.238 C 308.110 175.924,308.969 175.319,309.420 174.893 C 313.044 171.468,323.305 169.593,331.745 170.813 M85.439 185.266 C 85.021 185.509,83.684 185.967,82.467 186.285 C 78.984 187.195,72.922 191.984,72.196 194.400 C 72.030 194.950,71.540 195.904,71.106 196.520 C 68.146 200.722,68.110 214.461,71.048 218.784 C 71.571 219.555,72.000 220.381,72.000 220.620 C 72.000 220.859,72.631 221.762,73.403 222.627 C 74.174 223.492,74.899 224.494,75.015 224.853 C 75.381 225.995,81.364 229.162,84.300 229.769 C 88.965 230.732,95.560 229.772,98.238 227.739 C 98.919 227.223,99.618 226.800,99.793 226.800 C 100.330 226.800,103.768 223.470,104.325 222.412 C 104.613 221.863,105.175 221.110,105.574 220.738 C 105.973 220.367,106.591 218.834,106.949 217.331 C 107.306 215.829,107.869 213.616,108.199 212.413 C 109.408 208.012,107.149 194.800,105.188 194.800 C 105.028 194.800,104.673 194.259,104.399 193.597 C 103.854 192.281,99.785 188.322,98.073 187.441 C 94.803 185.758,86.925 184.402,85.439 185.266 M228.400 185.612 C 223.848 186.573,222.593 186.992,221.295 187.985 C 220.693 188.446,219.412 189.403,218.449 190.112 C 211.653 195.110,207.988 213.505,213.246 216.224 C 214.373 216.806,216.000 216.485,216.000 215.679 C 216.000 215.518,219.645 211.674,224.100 207.137 C 244.107 186.760,243.531 187.564,239.008 186.343 C 238.123 186.104,236.603 185.660,235.629 185.355 C 233.459 184.675,232.708 184.702,228.400 185.612 M321.400 185.221 C 317.924 185.779,314.017 187.114,312.756 188.176 C 312.086 188.739,311.390 189.200,311.208 189.200 C 310.439 189.200,307.150 193.210,305.828 195.760 C 302.764 201.670,302.579 215.240,305.507 219.340 C 306.159 220.253,306.807 221.360,306.947 221.800 C 309.191 228.862,326.044 232.768,332.673 227.761 C 333.374 227.233,334.099 226.800,334.285 226.800 C 334.472 226.800,335.218 226.170,335.944 225.400 C 336.671 224.630,337.410 224.000,337.587 224.000 C 337.764 224.000,338.227 223.329,338.616 222.510 C 339.005 221.690,339.560 220.783,339.849 220.494 C 341.370 218.973,343.468 209.259,343.017 205.828 C 342.583 202.521,340.832 196.804,339.779 195.256 C 339.241 194.463,338.800 193.625,338.800 193.393 C 338.800 192.892,335.179 189.366,333.200 187.940 C 332.107 187.152,324.139 184.607,323.526 184.850 C 323.457 184.877,322.500 185.044,321.400 185.221 M236.324 186.965 C 240.440 187.702,240.801 188.823,237.726 191.310 C 237.243 191.701,236.731 192.386,236.589 192.833 C 236.448 193.280,235.894 193.812,235.359 194.016 C 234.823 194.219,234.207 194.856,233.988 195.432 C 233.769 196.007,233.254 196.565,232.844 196.673 C 232.433 196.780,231.907 197.286,231.675 197.796 C 231.442 198.307,230.700 199.050,230.026 199.448 C 229.352 199.847,228.800 200.489,228.800 200.876 C 228.800 201.263,228.295 201.841,227.678 202.160 C 227.061 202.479,226.345 203.204,226.086 203.770 C 225.828 204.337,225.348 204.800,225.019 204.800 C 224.690 204.800,224.137 205.348,223.791 206.017 C 223.445 206.687,222.720 207.436,222.181 207.682 C 221.641 207.927,221.200 208.277,221.200 208.458 C 221.200 209.592,214.456 215.523,213.903 214.876 C 211.949 212.593,211.376 206.654,212.756 203.000 C 213.171 201.900,213.728 199.920,213.992 198.600 C 214.308 197.029,214.807 195.883,215.437 195.284 C 215.967 194.780,216.400 194.153,216.400 193.891 C 216.400 193.280,219.909 190.000,220.564 190.000 C 220.837 190.000,221.465 189.570,221.959 189.044 C 223.220 187.701,226.111 187.028,233.000 186.474 C 233.220 186.457,234.716 186.678,236.324 186.965 M95.903 187.700 C 96.840 187.992,97.885 188.629,98.226 189.116 C 98.567 189.602,99.199 190.000,99.631 190.000 C 100.072 190.000,100.609 190.420,100.853 190.956 C 101.092 191.482,101.700 192.100,102.204 192.329 C 102.736 192.571,103.331 193.388,103.621 194.273 C 103.896 195.113,104.471 196.106,104.898 196.479 C 105.937 197.388,107.304 205.948,106.961 209.400 C 106.350 215.544,105.619 218.936,104.684 219.970 C 104.171 220.536,103.540 221.498,103.281 222.106 C 103.023 222.714,102.397 223.401,101.889 223.632 C 101.382 223.863,100.795 224.423,100.584 224.875 C 100.373 225.328,99.535 225.921,98.723 226.194 C 97.911 226.467,96.682 227.165,95.993 227.745 C 93.918 229.491,82.525 229.260,81.033 227.442 C 80.795 227.152,79.816 226.613,78.858 226.244 C 76.869 225.478,76.522 225.175,75.249 223.095 C 74.743 222.267,73.985 221.406,73.564 221.181 C 73.144 220.956,72.800 220.444,72.800 220.042 C 72.800 219.641,72.218 218.252,71.507 216.956 C 69.443 213.193,69.381 199.319,71.426 198.535 C 71.983 198.321,72.619 196.863,73.002 194.924 C 73.176 194.038,73.673 193.400,74.627 192.837 C 75.382 192.392,76.000 191.773,76.000 191.462 C 76.000 191.151,76.525 190.680,77.167 190.414 C 77.809 190.148,78.918 189.409,79.633 188.771 C 80.347 188.133,81.577 187.507,82.366 187.379 C 83.154 187.251,84.070 187.077,84.400 186.992 C 85.672 186.665,94.284 187.194,95.903 187.700 M330.408 187.730 C 331.183 188.062,332.155 188.709,332.570 189.167 C 332.985 189.625,333.553 190.000,333.833 190.000 C 334.113 190.000,334.760 190.518,335.271 191.150 C 335.782 191.783,336.584 192.498,337.053 192.739 C 337.570 193.005,338.011 193.734,338.171 194.588 C 338.317 195.363,338.867 196.462,339.393 197.030 C 340.448 198.168,340.534 198.499,341.215 204.000 C 341.861 209.221,340.937 216.646,339.417 218.453 C 338.869 219.104,338.231 220.341,337.999 221.202 C 337.716 222.256,337.189 222.998,336.388 223.470 C 335.734 223.857,335.104 224.472,334.988 224.836 C 334.873 225.201,333.974 225.807,332.991 226.182 C 332.008 226.558,331.068 227.094,330.902 227.374 C 329.626 229.526,317.038 229.438,314.862 227.262 C 314.413 226.813,313.345 226.236,312.487 225.979 C 311.263 225.612,310.824 225.221,310.439 224.156 C 310.169 223.410,309.767 222.800,309.546 222.800 C 308.869 222.800,308.031 221.739,307.226 219.862 C 306.805 218.878,306.165 217.908,305.804 217.706 C 304.166 216.789,304.236 200.106,305.887 198.293 C 306.334 197.802,307.011 196.444,307.390 195.275 C 307.875 193.783,308.358 193.044,309.010 192.796 C 309.534 192.597,309.996 192.042,310.069 191.522 C 310.157 190.904,310.604 190.468,311.426 190.200 C 312.100 189.980,313.239 189.305,313.957 188.700 C 315.897 187.064,317.380 186.811,324.000 186.990 C 327.300 187.080,329.479 187.331,330.408 187.730 M248.195 198.276 C 247.546 199.154,244.202 202.691,239.491 207.479 C 239.101 207.876,237.931 209.080,236.891 210.155 C 235.308 211.792,232.050 215.029,230.403 216.600 C 218.715 227.756,218.971 229.918,232.000 230.075 C 240.581 230.178,249.759 224.921,250.997 219.193 C 251.162 218.427,251.646 217.112,252.071 216.272 C 255.472 209.556,251.948 193.195,248.195 198.276 M250.918 200.491 C 252.942 204.670,253.130 210.920,251.334 214.381 C 250.755 215.497,250.194 217.322,250.087 218.438 C 249.934 220.025,249.702 220.553,249.021 220.863 C 248.541 221.082,247.817 221.877,247.412 222.630 C 247.006 223.384,246.453 224.000,246.183 224.000 C 245.913 224.000,245.407 224.434,245.060 224.965 C 244.712 225.496,243.877 226.051,243.204 226.199 C 242.531 226.347,241.411 226.948,240.715 227.534 C 239.202 228.809,228.940 229.316,225.000 228.310 C 222.689 227.721,221.783 225.577,223.602 224.999 C 224.068 224.852,224.647 224.296,224.889 223.765 C 225.130 223.234,225.485 222.800,225.676 222.800 C 226.269 222.800,229.883 219.048,230.162 218.143 C 230.308 217.672,230.955 217.067,231.600 216.800 C 232.245 216.533,232.882 215.971,233.015 215.553 C 233.148 215.134,233.784 214.519,234.428 214.185 C 235.073 213.852,235.600 213.405,235.600 213.193 C 235.600 212.980,236.136 212.328,236.792 211.744 C 237.447 211.160,238.077 210.394,238.191 210.041 C 238.305 209.689,238.938 209.093,239.599 208.719 C 240.260 208.344,240.800 207.763,240.800 207.429 C 240.800 207.094,241.327 206.548,241.972 206.215 C 242.616 205.881,243.258 205.247,243.399 204.804 C 243.539 204.362,243.843 204.000,244.073 204.000 C 244.678 204.000,248.430 199.974,248.846 198.878 C 249.310 197.660,249.689 197.955,250.918 200.491 " stroke="none" fill="#a6a6a6" fill-rule="evenodd"></path></g></svg>