<svg id="svg" version="1.1" xmlns="http://www.w3.org/2000/svg" xmlns:xlink="http://www.w3.org/1999/xlink" width="400" height="400" viewBox="0, 0, 400,400"><g id="svgg"><path id="path0" d="M109.500 121.076 C 108.842 121.248,108.800 122.945,108.800 149.601 C 108.800 180.926,108.947 179.207,106.271 179.194 C 104.781 179.187,104.415 178.967,103.501 177.530 C 103.127 176.942,102.422 176.334,101.933 176.179 C 101.444 176.024,100.765 175.573,100.422 175.177 C 100.080 174.781,98.900 174.163,97.800 173.803 C 96.700 173.444,95.377 172.875,94.859 172.539 C 91.265 170.205,78.603 171.348,71.400 174.656 C 67.175 176.597,60.920 182.024,59.100 185.329 C 58.715 186.028,58.132 186.798,57.804 187.041 C 57.477 187.284,56.906 188.454,56.537 189.641 C 56.167 190.828,55.540 192.167,55.143 192.615 C 53.671 194.275,52.518 205.356,53.192 211.352 C 53.468 213.798,53.826 217.026,53.990 218.525 C 54.171 220.187,54.590 221.670,55.063 222.325 C 55.490 222.916,56.060 224.157,56.330 225.082 C 56.600 226.007,57.222 227.267,57.711 227.882 C 58.200 228.497,58.943 229.675,59.363 230.500 C 59.783 231.325,60.260 232.000,60.424 232.000 C 60.587 232.000,61.054 232.519,61.461 233.154 C 62.393 234.609,68.065 239.442,69.285 239.821 C 69.788 239.977,70.682 240.444,71.272 240.859 C 72.700 241.866,79.449 243.835,83.268 244.361 C 87.214 244.904,97.519 242.811,99.582 241.047 C 99.922 240.757,100.965 240.099,101.900 239.586 C 102.835 239.073,103.600 238.519,103.600 238.355 C 103.600 237.629,104.968 236.800,106.167 236.800 C 107.882 236.800,108.714 237.780,108.872 239.986 C 108.993 241.670,109.080 241.788,110.400 242.062 C 111.942 242.383,121.827 242.154,122.425 241.785 C 123.027 241.412,122.923 121.883,122.320 121.280 C 121.851 120.811,111.164 120.641,109.500 121.076 M261.576 171.596 C 255.699 177.569,252.512 178.565,250.110 175.183 C 249.840 174.803,248.940 174.374,248.110 174.229 C 246.400 173.931,242.957 172.886,241.886 172.340 C 238.922 170.830,224.973 171.175,221.270 172.850 C 220.319 173.280,218.649 173.801,217.560 174.008 C 215.455 174.407,214.000 175.031,214.000 175.534 C 214.000 175.702,213.339 176.078,212.532 176.370 C 211.725 176.662,210.338 177.598,209.451 178.450 C 208.565 179.303,207.712 180.000,207.556 180.000 C 206.633 180.000,200.921 186.712,200.333 188.486 C 200.094 189.209,199.680 189.980,199.414 190.200 C 198.669 190.817,198.194 191.953,197.408 195.000 C 197.011 196.540,196.539 197.990,196.359 198.222 C 194.859 200.156,194.868 215.150,196.371 218.034 C 196.845 218.944,197.487 220.664,197.798 221.857 C 198.109 223.050,198.911 224.691,199.581 225.504 C 201.602 227.955,201.128 232.800,198.869 232.800 C 198.611 232.800,198.400 232.994,198.400 233.231 C 198.400 233.469,197.680 234.376,196.800 235.247 C 195.920 236.118,195.200 236.999,195.200 237.205 C 195.200 237.411,194.660 237.859,194.000 238.200 C 193.340 238.541,192.800 239.071,192.800 239.377 C 192.800 239.683,192.305 240.297,191.700 240.742 C 190.698 241.479,190.659 241.597,191.266 242.075 C 191.633 242.364,191.995 242.959,192.071 243.397 C 192.147 243.835,192.695 244.426,193.288 244.711 C 193.881 244.995,194.900 245.761,195.552 246.414 C 197.208 248.069,198.593 247.997,199.653 246.200 C 200.107 245.430,200.721 244.800,201.018 244.800 C 201.314 244.800,201.793 244.307,202.082 243.704 C 202.371 243.101,203.101 242.371,203.704 242.082 C 204.307 241.793,204.800 241.329,204.800 241.052 C 204.800 240.545,207.035 238.391,208.683 237.310 C 209.490 236.780,209.653 236.817,210.576 237.739 C 212.388 239.552,219.315 242.779,221.425 242.794 C 221.878 242.797,223.678 243.188,225.425 243.661 C 229.629 244.801,236.214 244.807,240.000 243.674 C 241.430 243.246,243.500 242.660,244.600 242.372 C 246.427 241.894,252.325 239.021,252.800 238.379 C 252.910 238.230,253.396 237.984,253.880 237.833 C 254.363 237.682,255.340 237.016,256.051 236.353 C 256.761 235.689,257.805 234.796,258.371 234.368 C 259.488 233.523,261.214 231.381,263.392 228.137 C 264.154 227.003,264.978 226.007,265.224 225.925 C 265.469 225.844,265.829 224.927,266.023 223.890 C 266.217 222.852,266.843 221.014,267.415 219.806 C 269.355 215.705,269.660 199.382,267.848 196.618 C 267.060 195.414,266.014 192.464,266.006 191.422 C 266.003 190.994,265.585 190.184,265.077 189.622 C 263.504 187.880,261.989 185.254,262.407 184.996 C 262.623 184.862,262.800 184.386,262.800 183.938 C 262.800 182.710,264.076 180.800,264.896 180.800 C 265.296 180.800,265.787 180.361,265.993 179.819 C 266.198 179.280,266.913 178.555,267.583 178.209 C 268.252 177.863,268.800 177.332,268.800 177.029 C 268.800 176.727,269.406 176.121,270.147 175.684 C 272.514 174.288,272.506 172.388,270.124 170.027 C 266.864 166.795,266.176 166.922,261.576 171.596 M173.884 171.631 C 172.610 171.820,171.308 172.235,170.991 172.552 C 170.674 172.869,169.591 173.443,168.585 173.827 C 167.400 174.279,166.552 174.920,166.177 175.645 C 165.757 176.457,165.187 176.838,164.099 177.034 C 163.275 177.183,162.383 177.476,162.118 177.687 C 161.380 178.271,160.800 177.685,160.800 176.358 C 160.800 173.857,159.678 173.384,153.500 173.277 C 149.122 173.201,147.809 173.306,147.067 173.793 L 146.135 174.403 146.101 207.985 L 146.067 241.567 146.934 241.855 C 147.963 242.197,159.443 242.144,160.008 241.795 C 160.255 241.643,160.413 234.323,160.434 222.076 C 160.452 211.364,160.611 201.610,160.786 200.400 C 161.297 196.872,162.637 192.812,163.578 191.934 C 164.057 191.488,164.615 190.687,164.817 190.154 C 165.020 189.622,165.621 189.020,166.152 188.818 C 166.684 188.616,167.396 188.056,167.734 187.573 C 168.918 185.883,176.901 184.946,181.344 185.977 C 183.124 186.390,185.618 186.089,185.780 185.442 C 185.841 185.199,186.094 184.146,186.343 183.102 C 186.592 182.058,187.152 180.848,187.588 180.412 C 188.023 179.977,188.485 179.121,188.614 178.510 C 188.743 177.900,189.121 176.781,189.454 176.024 C 190.203 174.321,188.955 173.132,185.062 171.841 C 183.775 171.414,176.291 171.273,173.884 171.631 M320.310 171.633 C 319.051 171.818,317.519 172.228,316.905 172.546 C 316.292 172.863,314.776 173.417,313.537 173.777 C 312.260 174.149,310.749 174.944,310.046 175.616 C 309.365 176.267,308.553 176.800,308.243 176.800 C 307.933 176.800,307.307 177.430,306.853 178.200 C 305.482 180.524,303.206 179.263,303.194 176.174 C 303.183 173.420,303.146 173.405,296.262 173.353 C 292.870 173.327,289.912 173.193,289.689 173.055 C 289.466 172.917,289.157 173.119,289.001 173.502 C 288.658 174.349,288.705 279.286,289.049 280.182 C 289.397 281.091,302.225 280.917,302.818 279.995 C 303.050 279.634,303.189 271.181,303.172 258.526 C 303.144 237.672,303.198 236.763,304.545 235.645 C 305.124 235.165,308.878 237.566,310.381 239.377 C 310.665 239.719,311.118 240.000,311.387 240.000 C 311.656 240.000,312.181 240.337,312.555 240.750 C 312.928 241.162,314.531 241.813,316.117 242.197 C 317.703 242.580,319.450 243.118,320.000 243.393 C 322.601 244.694,328.343 244.825,331.353 243.653 C 332.479 243.214,334.660 242.557,336.200 242.191 C 337.740 241.826,339.360 241.203,339.800 240.808 C 340.240 240.413,341.320 239.703,342.200 239.229 C 345.519 237.443,350.598 232.723,351.891 230.224 C 352.225 229.577,352.803 228.767,353.175 228.424 C 353.547 228.081,354.088 227.080,354.377 226.200 C 354.667 225.320,355.232 224.286,355.633 223.902 C 356.035 223.517,356.480 222.527,356.624 221.702 C 356.767 220.876,357.249 218.850,357.694 217.200 C 359.502 210.501,359.545 202.032,357.795 197.773 C 357.258 196.468,356.815 194.913,356.809 194.319 C 356.800 193.236,356.059 191.179,355.540 190.796 C 355.388 190.684,354.889 189.641,354.431 188.478 C 353.972 187.315,353.223 185.967,352.765 185.482 C 352.307 184.997,351.687 184.132,351.387 183.559 C 351.086 182.987,350.382 182.218,349.820 181.850 C 349.259 181.482,348.800 180.913,348.800 180.584 C 348.800 180.256,348.172 179.688,347.404 179.321 C 346.636 178.955,345.904 178.328,345.777 177.928 C 345.650 177.528,345.368 177.200,345.151 177.200 C 344.485 177.200,341.035 175.525,340.605 174.992 C 340.382 174.717,338.940 174.097,337.400 173.617 C 335.860 173.136,334.240 172.575,333.800 172.370 C 331.437 171.269,325.142 170.925,320.310 171.633 M95.093 184.903 C 95.504 185.275,96.614 185.852,97.560 186.186 C 98.506 186.520,99.667 187.142,100.140 187.569 C 100.613 187.995,101.684 188.924,102.520 189.632 C 103.357 190.340,104.324 191.466,104.670 192.135 C 105.016 192.805,105.618 193.633,106.007 193.976 C 106.396 194.319,107.026 195.500,107.406 196.600 C 107.786 197.700,108.332 199.140,108.618 199.800 C 110.169 203.376,110.096 212.420,108.488 216.059 C 108.064 217.016,107.490 218.648,107.211 219.685 C 106.898 220.850,106.340 221.809,105.752 222.195 C 105.228 222.538,104.800 223.024,104.800 223.275 C 104.800 223.763,100.861 227.600,100.360 227.600 C 100.196 227.600,99.553 228.026,98.931 228.546 C 98.209 229.150,96.281 229.867,93.600 230.527 C 87.265 232.086,86.976 232.119,85.519 231.445 C 84.793 231.109,83.300 230.621,82.200 230.360 C 79.964 229.829,79.114 229.457,78.322 228.665 C 78.025 228.368,77.021 227.645,76.091 227.058 C 75.161 226.470,74.400 225.827,74.400 225.628 C 74.400 225.428,73.680 224.516,72.800 223.600 C 71.920 222.684,71.200 221.721,71.200 221.460 C 71.200 221.199,70.724 220.285,70.142 219.428 C 68.776 217.418,66.897 207.208,67.604 205.640 C 67.843 205.112,68.292 202.985,68.603 200.915 C 69.059 197.878,69.403 196.829,70.384 195.496 C 71.053 194.586,71.600 193.650,71.600 193.415 C 71.600 192.854,75.312 188.800,75.825 188.800 C 76.043 188.800,76.687 188.270,77.256 187.621 C 77.825 186.973,78.810 186.336,79.445 186.205 C 80.080 186.074,81.410 185.518,82.400 184.970 C 84.685 183.704,93.716 183.657,95.093 184.903 M239.132 185.048 C 242.284 186.286,242.900 186.789,242.900 188.128 C 242.900 189.197,240.166 192.800,239.355 192.800 C 239.093 192.800,238.507 193.430,238.053 194.200 C 237.599 194.970,236.957 195.600,236.628 195.600 C 236.298 195.600,235.813 196.005,235.551 196.500 C 235.288 196.995,233.977 198.524,232.637 199.898 C 231.296 201.272,229.832 202.802,229.382 203.298 C 228.933 203.794,227.811 204.920,226.890 205.800 C 224.527 208.059,216.777 216.044,215.703 217.328 C 214.101 219.242,211.574 218.394,210.813 215.688 C 208.884 208.830,210.991 195.157,214.337 192.814 C 214.505 192.696,215.157 191.914,215.787 191.076 C 216.416 190.238,217.396 189.312,217.965 189.017 C 218.534 188.722,219.487 188.028,220.082 187.476 C 220.677 186.923,221.750 186.343,222.466 186.185 C 223.182 186.028,224.405 185.581,225.184 185.191 C 227.383 184.090,227.533 184.065,232.132 184.032 C 235.905 184.004,236.808 184.135,239.132 185.048 M328.828 184.712 C 329.596 185.104,331.074 185.749,332.112 186.145 C 333.151 186.542,334.000 187.024,334.000 187.217 C 334.000 187.411,334.855 188.128,335.900 188.813 C 338.078 190.238,341.488 195.125,342.050 197.625 C 342.241 198.475,342.780 199.904,343.247 200.800 C 344.572 203.343,344.477 212.287,343.092 215.312 C 342.557 216.479,341.999 218.081,341.850 218.872 C 341.702 219.663,341.160 220.736,340.646 221.255 C 340.132 221.775,339.418 222.772,339.060 223.472 C 338.702 224.171,338.047 224.858,337.604 224.999 C 337.162 225.139,336.800 225.507,336.800 225.817 C 336.800 226.126,336.305 226.637,335.700 226.952 C 335.095 227.267,334.067 227.985,333.416 228.547 C 332.765 229.110,331.327 229.764,330.221 230.001 C 329.115 230.238,327.762 230.726,327.214 231.085 C 325.902 231.945,320.475 231.923,318.442 231.050 C 317.649 230.709,316.240 230.238,315.311 230.003 C 314.382 229.767,313.037 229.041,312.322 228.388 C 311.607 227.734,310.878 227.200,310.702 227.200 C 310.153 227.200,306.000 222.846,306.000 222.270 C 306.000 221.969,305.621 221.290,305.158 220.761 C 303.144 218.464,301.091 205.603,302.330 203.051 C 302.558 202.583,303.029 200.847,303.378 199.194 C 303.789 197.246,304.362 195.781,305.006 195.032 C 305.553 194.396,306.000 193.638,306.000 193.347 C 306.000 192.712,309.657 188.800,310.250 188.800 C 310.480 188.800,311.140 188.269,311.718 187.621 C 312.359 186.901,313.358 186.332,314.281 186.158 C 315.113 186.002,316.587 185.453,317.556 184.937 C 319.884 183.700,326.579 183.566,328.828 184.712 M251.451 196.639 C 254.232 197.386,255.244 211.065,252.994 217.498 C 252.007 220.320,251.481 221.144,248.001 225.322 C 246.362 227.290,243.145 229.211,240.140 230.016 C 238.423 230.476,236.821 231.017,236.579 231.217 C 235.641 231.996,228.876 231.653,226.200 230.692 C 225.320 230.375,223.950 229.997,223.155 229.851 C 220.014 229.272,219.440 225.281,222.259 223.618 C 223.004 223.179,223.785 222.365,223.996 221.810 C 224.207 221.254,224.650 220.800,224.980 220.800 C 225.310 220.800,225.852 220.273,226.185 219.628 C 226.519 218.984,227.126 218.350,227.535 218.221 C 227.944 218.091,228.474 217.555,228.713 217.030 C 228.953 216.505,229.685 215.759,230.340 215.372 C 230.996 214.985,231.723 214.248,231.957 213.734 C 232.191 213.220,232.648 212.800,232.973 212.800 C 233.297 212.800,233.861 212.170,234.227 211.400 C 234.592 210.630,235.145 210.000,235.454 210.000 C 235.764 210.000,236.213 209.570,236.453 209.044 C 236.692 208.518,237.309 207.897,237.823 207.662 C 238.337 207.428,239.082 206.736,239.479 206.123 C 240.486 204.570,243.018 202.000,243.543 202.000 C 243.783 202.000,244.241 201.505,244.560 200.900 C 246.128 197.928,249.193 196.033,251.451 196.639 " stroke="none" fill="#323232" fill-rule="evenodd"></path><path id="path1" d="M0.000 200.000 L 0.000 400.000 200.000 400.000 L 400.000 400.000 400.000 200.000 L 400.000 0.000 200.000 0.000 L 0.000 0.000 0.000 200.000 M123.332 119.230 C 126.226 120.034,126.043 115.561,125.915 182.214 L 125.800 241.982 124.754 243.028 L 123.707 244.074 116.040 244.074 C 107.606 244.074,106.643 243.842,106.173 241.695 C 105.706 239.561,105.698 239.557,104.114 240.632 C 103.281 241.197,102.474 241.883,102.320 242.158 C 102.167 242.432,100.997 242.996,99.720 243.410 C 98.444 243.825,96.981 244.533,96.469 244.982 C 94.550 246.668,77.101 246.672,74.620 244.987 C 73.903 244.501,72.404 243.800,71.289 243.429 C 70.174 243.059,69.043 242.493,68.777 242.172 C 68.510 241.851,67.376 241.128,66.257 240.566 C 63.855 239.359,59.148 234.554,58.022 232.157 C 57.594 231.247,56.983 230.402,56.664 230.280 C 56.344 230.157,55.772 229.099,55.393 227.929 C 55.013 226.758,54.274 225.340,53.751 224.778 C 53.205 224.191,52.796 223.255,52.790 222.578 C 52.776 220.748,52.155 218.498,51.478 217.821 C 49.803 216.146,49.762 198.695,51.429 197.028 C 51.920 196.537,52.379 194.913,53.022 191.392 C 53.103 190.948,53.502 190.227,53.909 189.790 C 54.316 189.352,54.998 188.026,55.424 186.842 C 55.850 185.658,56.585 184.435,57.059 184.125 C 57.532 183.815,58.136 183.039,58.400 182.400 C 58.664 181.761,59.313 180.956,59.840 180.610 C 60.368 180.264,60.800 179.744,60.800 179.454 C 60.800 179.163,61.430 178.587,62.200 178.172 C 62.970 177.757,63.600 177.284,63.600 177.119 C 63.600 176.547,69.332 172.800,70.207 172.800 C 70.692 172.800,71.740 172.358,72.536 171.818 C 76.857 168.885,94.743 168.885,99.064 171.818 C 99.860 172.358,100.809 172.800,101.173 172.800 C 101.536 172.800,102.628 173.609,103.598 174.598 C 104.569 175.587,105.511 176.249,105.692 176.068 C 105.873 175.887,106.014 163.490,106.006 148.520 C 105.987 115.777,105.066 119.497,113.264 119.174 C 116.419 119.050,119.630 118.916,120.400 118.876 C 121.170 118.837,122.489 118.996,123.332 119.230 M271.491 168.300 C 273.306 170.225,274.794 172.080,274.796 172.422 C 274.803 173.430,272.536 176.703,271.632 176.990 C 271.175 177.135,270.800 177.436,270.800 177.659 C 270.800 178.192,266.184 182.800,265.650 182.800 C 264.758 182.800,264.632 185.696,265.493 186.394 C 266.406 187.133,267.600 189.261,267.600 190.149 C 267.600 190.473,268.063 191.289,268.629 191.961 C 269.426 192.909,269.784 194.016,270.225 196.892 C 270.537 198.931,271.060 201.770,271.388 203.200 C 272.245 206.941,272.169 210.955,271.193 213.523 C 270.749 214.690,270.271 217.005,270.131 218.666 C 269.939 220.934,269.656 221.950,268.996 222.743 C 268.513 223.325,267.811 224.731,267.437 225.869 C 267.062 227.007,266.494 228.156,266.174 228.421 C 265.855 228.687,265.200 229.602,264.721 230.456 C 264.241 231.309,263.433 232.280,262.924 232.613 C 262.416 232.946,262.000 233.446,262.000 233.723 C 262.000 234.183,261.082 235.063,256.746 238.762 C 255.946 239.444,254.596 240.289,253.746 240.640 C 252.896 240.990,251.840 241.583,251.400 241.956 C 250.960 242.330,249.880 242.875,249.000 243.168 C 248.120 243.460,246.320 244.199,245.000 244.810 C 240.535 246.876,222.686 246.782,218.571 244.671 C 217.487 244.114,215.838 243.438,214.908 243.169 C 213.907 242.878,213.119 242.376,212.981 241.940 C 212.852 241.534,212.264 241.087,211.673 240.947 C 211.083 240.807,210.311 240.442,209.957 240.136 C 209.406 239.659,209.242 239.667,208.808 240.190 C 208.530 240.525,207.974 240.800,207.573 240.800 C 207.172 240.800,206.609 241.290,206.322 241.888 C 206.035 242.487,205.376 243.188,204.858 243.446 C 204.340 243.704,203.707 244.340,203.451 244.858 C 203.195 245.376,202.576 245.980,202.076 246.200 C 201.576 246.420,201.060 247.022,200.931 247.537 C 200.693 248.479,197.895 250.015,196.467 249.987 C 195.662 249.971,194.276 248.864,193.690 247.768 C 193.454 247.328,192.753 246.709,192.131 246.393 C 189.738 245.174,188.543 243.302,188.736 241.077 C 188.829 240.004,191.578 236.892,192.675 236.617 C 193.200 236.485,193.799 235.929,194.007 235.382 C 194.215 234.834,194.816 234.222,195.342 234.022 C 195.875 233.819,196.414 233.197,196.560 232.616 C 196.704 232.042,197.250 231.378,197.772 231.140 C 199.348 230.422,199.487 227.472,197.967 226.989 C 197.467 226.831,196.989 225.996,196.568 224.548 C 196.216 223.337,195.689 222.255,195.397 222.143 C 194.744 221.893,194.124 219.180,193.812 215.200 C 193.682 213.550,193.366 211.341,193.110 210.290 C 192.749 208.812,192.757 207.835,193.143 205.963 C 193.418 204.633,193.739 201.982,193.857 200.072 C 194.106 196.048,194.530 194.434,195.849 192.490 C 196.372 191.719,196.800 190.575,196.800 189.948 C 196.800 189.224,197.102 188.623,197.625 188.303 C 198.079 188.027,198.819 186.951,199.269 185.913 C 199.719 184.875,200.424 183.919,200.837 183.788 C 201.249 183.658,201.871 182.950,202.220 182.215 C 202.568 181.480,203.215 180.785,203.656 180.669 C 204.098 180.554,204.554 180.098,204.669 179.656 C 204.785 179.215,205.480 178.568,206.215 178.220 C 206.950 177.871,207.654 177.262,207.779 176.865 C 207.995 176.187,210.325 174.800,211.249 174.800 C 211.482 174.800,211.971 174.439,212.336 173.997 C 212.701 173.555,214.064 172.920,215.364 172.585 C 216.665 172.250,217.925 171.732,218.164 171.432 C 220.083 169.035,247.600 169.168,247.600 171.575 C 247.600 171.961,249.448 172.800,250.297 172.800 C 250.660 172.800,251.416 173.237,251.978 173.771 C 253.683 175.393,254.950 175.475,255.978 174.031 C 256.460 173.354,257.112 172.800,257.427 172.800 C 257.742 172.800,258.000 172.622,258.000 172.405 C 258.000 172.188,259.575 170.403,261.500 168.437 C 266.378 163.456,266.915 163.448,271.491 168.300 M188.299 170.412 C 192.300 171.845,193.421 174.614,191.174 177.512 C 190.785 178.013,190.338 179.180,190.182 180.105 C 190.026 181.030,189.460 182.361,188.925 183.062 C 188.390 183.764,187.781 184.961,187.570 185.722 C 186.707 188.849,183.637 190.380,181.838 188.581 C 179.973 186.715,172.639 187.002,169.754 189.053 C 168.712 189.794,167.638 190.400,167.367 190.400 C 166.847 190.400,164.610 194.709,163.733 197.400 C 163.332 198.632,163.211 203.928,163.206 220.456 C 163.199 244.418,163.331 243.318,160.400 243.934 C 157.275 244.591,145.293 243.874,144.397 242.976 C 143.510 242.088,143.098 174.973,143.965 172.693 C 144.721 170.702,145.184 170.600,153.419 170.600 C 162.035 170.600,162.529 170.747,163.037 173.455 C 163.319 174.958,164.563 175.349,164.905 174.042 C 165.014 173.625,165.755 172.974,166.552 172.596 C 167.348 172.218,168.000 171.756,168.000 171.568 C 168.000 169.853,184.167 168.932,188.299 170.412 M336.090 170.348 C 337.298 170.554,338.363 171.054,339.044 171.735 C 339.630 172.321,340.494 172.800,340.966 172.800 C 341.803 172.800,343.226 173.606,344.376 174.731 C 344.692 175.041,345.446 175.467,346.049 175.677 C 346.653 175.888,347.433 176.496,347.783 177.030 C 348.132 177.563,348.678 178.000,348.995 178.000 C 349.312 178.000,349.781 178.405,350.036 178.900 C 350.291 179.395,351.017 180.218,351.650 180.729 C 352.282 181.240,352.800 181.909,352.800 182.215 C 352.800 182.521,353.159 182.964,353.599 183.199 C 354.038 183.434,354.782 184.380,355.252 185.301 C 355.721 186.222,356.441 187.431,356.851 187.988 C 357.261 188.544,357.875 190.075,358.216 191.388 C 358.557 192.702,359.072 194.052,359.362 194.388 C 361.572 196.960,361.404 217.734,359.148 220.785 C 358.689 221.406,358.151 222.778,357.954 223.834 C 357.757 224.890,357.254 226.124,356.836 226.577 C 356.418 227.029,355.799 228.073,355.460 228.896 C 355.121 229.719,354.384 230.852,353.822 231.414 C 353.260 231.976,352.800 232.608,352.800 232.818 C 352.800 233.648,345.021 240.800,344.118 240.800 C 343.813 240.800,343.120 241.244,342.578 241.786 C 342.036 242.328,340.676 243.043,339.555 243.376 C 338.435 243.709,336.592 244.421,335.459 244.958 C 331.632 246.773,318.722 246.721,316.095 244.880 C 315.493 244.458,314.081 243.811,312.958 243.444 C 311.835 243.076,310.215 242.150,309.358 241.388 C 308.501 240.625,307.596 240.000,307.346 240.000 C 307.096 240.000,306.582 239.526,306.202 238.947 C 304.934 237.011,304.825 238.691,304.823 260.379 C 304.820 286.182,305.981 283.140,296.104 283.230 C 287.732 283.307,287.081 283.121,286.667 280.527 C 286.319 278.350,286.295 174.349,286.642 173.393 C 286.801 172.957,287.281 172.094,287.709 171.476 L 288.488 170.352 296.028 170.476 C 304.509 170.615,304.762 170.707,304.787 173.667 C 304.809 176.194,305.021 176.388,306.792 175.512 C 307.646 175.089,308.631 174.306,308.982 173.772 C 309.332 173.237,309.949 172.800,310.353 172.800 C 310.758 172.800,311.698 172.386,312.444 171.881 C 314.408 170.549,315.085 170.324,318.200 169.974 C 321.386 169.615,333.246 169.863,336.090 170.348 M229.639 186.888 C 225.221 187.229,223.514 187.722,222.199 189.037 C 221.670 189.567,220.973 190.000,220.652 190.000 C 219.942 190.000,216.400 193.230,216.400 193.877 C 216.400 194.131,215.949 194.875,215.397 195.531 C 214.845 196.186,214.221 197.595,214.009 198.661 C 213.797 199.728,213.260 201.770,212.815 203.200 C 211.031 208.934,213.252 218.361,215.475 214.489 C 215.869 213.803,216.601 213.055,217.101 212.827 C 217.602 212.598,218.209 211.979,218.450 211.450 C 218.691 210.921,219.303 210.299,219.809 210.068 C 220.316 209.838,220.840 209.305,220.973 208.885 C 221.106 208.465,221.653 207.922,222.188 207.678 C 222.724 207.434,223.445 206.687,223.791 206.017 C 224.137 205.348,224.676 204.800,224.988 204.800 C 225.301 204.800,225.793 204.307,226.082 203.704 C 226.371 203.101,227.101 202.371,227.704 202.082 C 228.307 201.793,228.800 201.245,228.800 200.864 C 228.800 200.484,229.352 199.847,230.026 199.448 C 230.700 199.050,231.442 198.307,231.675 197.796 C 231.907 197.286,232.433 196.780,232.844 196.673 C 233.254 196.565,233.769 196.007,233.988 195.432 C 234.207 194.856,234.823 194.219,235.359 194.016 C 235.894 193.812,236.448 193.280,236.589 192.833 C 236.731 192.386,237.262 191.694,237.769 191.296 C 239.080 190.265,240.136 188.131,239.523 187.752 C 238.414 187.067,233.211 186.612,229.639 186.888 M82.673 187.363 C 81.284 187.683,80.126 188.213,79.802 188.676 C 79.503 189.103,78.525 189.783,77.629 190.187 C 76.733 190.591,76.000 191.155,76.000 191.440 C 76.000 191.726,75.390 192.425,74.644 192.994 C 73.694 193.718,73.154 194.559,72.842 195.801 C 72.596 196.776,72.050 197.895,71.628 198.288 C 69.508 200.263,69.281 213.346,71.316 216.280 C 71.930 217.165,72.540 218.551,72.671 219.360 C 72.802 220.169,73.229 221.001,73.619 221.210 C 74.009 221.419,74.743 222.267,75.249 223.095 C 76.526 225.181,76.937 225.543,78.768 226.189 C 79.649 226.500,80.931 227.169,81.617 227.677 C 82.764 228.526,83.337 228.610,88.768 228.728 L 94.672 228.856 95.959 227.773 C 96.667 227.177,97.911 226.467,98.723 226.194 C 99.535 225.921,100.373 225.328,100.584 224.875 C 100.795 224.423,101.379 223.864,101.883 223.635 C 102.387 223.405,103.089 222.493,103.443 221.609 C 103.797 220.724,104.209 220.000,104.357 220.000 C 105.104 220.000,105.930 217.368,106.364 213.600 C 106.631 211.290,106.924 208.903,107.015 208.296 C 107.333 206.187,105.707 197.187,104.878 196.463 C 104.460 196.098,103.884 195.147,103.597 194.349 C 103.306 193.541,102.571 192.601,101.937 192.227 C 101.312 191.857,100.800 191.298,100.800 190.985 C 100.800 190.672,100.347 190.302,99.794 190.163 C 99.240 190.024,98.475 189.513,98.093 189.028 C 96.709 187.268,87.426 186.266,82.673 187.363 M317.200 187.319 C 315.903 187.620,314.535 188.264,313.868 188.890 C 313.246 189.473,312.225 190.063,311.599 190.200 C 310.823 190.371,310.334 190.813,310.064 191.587 C 309.846 192.213,309.325 192.833,308.906 192.966 C 308.417 193.121,307.900 193.982,307.465 195.361 C 307.092 196.545,306.501 197.750,306.152 198.040 C 304.257 199.613,304.082 217.191,305.955 217.786 C 306.315 217.900,306.919 218.862,307.296 219.924 C 307.726 221.135,308.356 222.055,308.986 222.392 C 309.538 222.688,310.218 223.460,310.495 224.107 C 310.851 224.936,311.621 225.561,313.100 226.220 C 314.255 226.735,315.200 227.337,315.200 227.559 C 315.200 228.339,318.253 228.796,323.481 228.798 C 328.665 228.800,330.800 228.396,330.800 227.415 C 330.800 227.164,331.693 226.637,332.784 226.245 C 333.987 225.812,334.865 225.226,335.014 224.755 C 335.150 224.328,335.742 223.673,336.330 223.299 C 337.692 222.433,337.986 222.011,337.994 220.914 C 337.997 220.427,338.544 219.409,339.208 218.652 C 340.751 216.894,341.949 208.470,341.218 204.516 C 340.988 203.271,340.797 201.611,340.794 200.827 C 340.788 199.402,340.594 198.944,338.901 196.368 C 338.407 195.616,338.002 194.601,338.001 194.114 C 338.001 193.600,337.622 193.033,337.100 192.764 C 336.605 192.509,335.782 191.783,335.271 191.150 C 334.760 190.518,334.023 190.000,333.633 190.000 C 333.243 190.000,332.582 189.622,332.163 189.159 C 330.292 187.091,322.384 186.119,317.200 187.319 M248.804 198.990 C 248.445 199.934,247.163 201.518,245.601 202.948 C 245.329 203.196,244.543 203.949,243.854 204.620 C 243.164 205.291,242.282 205.962,241.894 206.110 C 241.506 206.258,241.014 206.836,240.802 207.395 C 240.590 207.953,239.966 208.615,239.416 208.866 C 238.866 209.116,238.311 209.649,238.184 210.050 C 238.057 210.451,237.557 211.099,237.074 211.490 C 236.591 211.880,235.887 212.681,235.509 213.270 C 235.131 213.858,234.466 214.452,234.031 214.590 C 233.597 214.728,233.125 215.207,232.983 215.654 C 232.841 216.102,232.202 216.650,231.562 216.873 C 230.923 217.096,230.400 217.542,230.400 217.864 C 230.400 218.519,223.851 225.200,223.210 225.200 C 222.729 225.200,222.672 226.779,223.127 227.495 C 224.197 229.181,237.834 229.380,240.244 227.744 C 241.099 227.164,242.335 226.502,242.989 226.274 C 244.175 225.861,248.000 222.357,248.000 221.683 C 248.000 221.488,248.450 221.123,249.000 220.873 C 249.779 220.518,250.000 220.119,250.000 219.068 C 250.000 217.413,250.698 215.248,251.548 214.267 C 252.969 212.627,252.745 204.430,251.196 201.392 C 250.758 200.533,250.400 199.621,250.400 199.364 C 250.400 198.175,249.219 197.898,248.804 198.990 " stroke="none" fill="#fbfbfb" fill-rule="evenodd"></path><path id="path2" d="M108.400 120.518 L 107.400 121.023 107.200 149.126 C 107.026 173.524,106.921 177.279,106.400 177.609 C 105.464 178.200,104.976 178.074,104.440 177.100 C 103.860 176.048,100.249 173.441,98.800 173.029 C 98.250 172.872,98.768 173.313,99.951 174.009 C 101.134 174.705,102.855 176.049,103.775 176.996 C 105.174 178.435,105.575 178.650,106.224 178.309 C 108.046 177.350,108.000 178.118,108.000 148.724 C 108.000 133.366,108.045 120.779,108.100 120.754 C 108.155 120.729,110.540 120.580,113.400 120.422 L 118.600 120.135 114.000 120.074 C 110.971 120.033,109.059 120.184,108.400 120.518 M122.473 120.614 C 124.075 121.484,124.005 118.532,123.930 181.916 C 123.850 249.123,124.238 242.275,120.475 242.861 L 118.600 243.153 120.704 243.035 C 124.831 242.803,124.400 249.999,124.400 181.361 L 124.400 121.245 123.511 120.623 C 123.022 120.280,122.347 120.007,122.011 120.016 C 121.659 120.025,121.855 120.279,122.473 120.614 M260.431 171.003 C 256.620 174.805,255.176 175.996,254.231 176.116 L 253.000 176.272 254.325 176.336 C 255.487 176.392,256.118 175.947,259.482 172.700 C 264.294 168.055,264.800 167.525,264.800 167.125 C 264.800 165.623,268.331 167.035,270.540 169.420 L 272.880 171.946 272.383 173.451 C 271.943 174.785,268.530 178.508,264.670 181.864 C 263.103 183.227,262.957 185.252,264.285 187.225 C 264.898 188.136,265.715 189.448,266.099 190.141 C 266.502 190.865,266.799 191.122,266.799 190.745 C 266.800 190.385,266.136 189.125,265.325 187.945 C 263.046 184.632,263.254 183.885,267.661 179.562 C 269.657 177.603,271.420 176.000,271.578 176.000 C 271.977 176.000,272.707 174.438,272.993 172.971 C 273.208 171.869,272.954 171.448,270.516 168.870 C 266.664 164.795,266.652 164.798,260.431 171.003 M83.500 170.696 C 84.875 170.774,87.125 170.774,88.500 170.696 C 89.875 170.618,88.750 170.554,86.000 170.554 C 83.250 170.554,82.125 170.618,83.500 170.696 M176.900 170.696 C 178.165 170.775,180.235 170.775,181.500 170.696 C 182.765 170.616,181.730 170.551,179.200 170.551 C 176.670 170.551,175.635 170.616,176.900 170.696 M229.717 170.697 C 231.211 170.774,233.551 170.774,234.917 170.696 C 236.282 170.618,235.060 170.555,232.200 170.555 C 229.340 170.556,228.222 170.620,229.717 170.697 M323.100 170.696 C 324.475 170.774,326.725 170.774,328.100 170.696 C 329.475 170.618,328.350 170.554,325.600 170.554 C 322.850 170.554,321.725 170.618,323.100 170.696 M77.000 171.200 C 73.184 172.213,68.050 174.924,64.361 177.875 C 61.107 180.478,56.000 186.703,56.000 188.067 C 56.000 188.319,56.927 187.149,58.059 185.465 C 62.785 178.440,70.509 173.189,78.800 171.366 C 80.622 170.965,80.759 170.882,79.600 170.882 C 78.830 170.882,77.660 171.025,77.000 171.200 M93.224 171.179 C 93.787 171.350,94.918 171.808,95.738 172.197 C 96.558 172.586,97.311 172.822,97.411 172.722 C 97.738 172.395,94.140 170.799,93.156 170.834 L 92.200 170.869 93.224 171.179 M169.993 171.744 C 169.227 172.262,168.206 172.811,167.725 172.963 C 167.243 173.114,166.304 173.860,165.637 174.619 C 164.184 176.273,163.476 176.349,162.519 174.951 C 160.438 171.915,160.694 172.000,153.598 172.000 C 146.790 172.000,144.815 172.428,144.787 173.910 C 144.780 174.290,144.781 189.720,144.789 208.200 C 144.805 244.075,144.744 242.890,146.576 242.773 C 146.809 242.758,146.601 242.553,146.113 242.318 L 145.226 241.889 145.113 208.245 L 145.000 174.600 145.909 173.600 C 146.799 172.620,146.945 172.599,153.088 172.539 L 159.358 172.478 160.579 173.790 C 161.251 174.511,162.032 175.393,162.316 175.751 C 163.091 176.727,164.679 176.557,165.425 175.418 C 166.191 174.249,170.821 171.589,172.800 171.181 L 174.200 170.892 172.793 170.846 C 171.914 170.817,170.863 171.154,169.993 171.744 M186.237 171.530 C 188.704 172.383,190.843 173.980,190.617 174.800 C 190.152 176.486,188.493 180.386,187.700 181.655 C 187.205 182.447,186.811 183.433,186.825 183.847 C 186.845 184.441,186.934 184.390,187.246 183.608 C 187.464 183.063,187.887 182.343,188.187 182.008 C 188.486 181.674,189.115 180.256,189.584 178.858 C 190.053 177.459,190.704 175.908,191.030 175.410 C 191.973 173.971,187.856 170.774,185.113 170.813 C 184.565 170.821,185.015 171.108,186.237 171.530 M220.179 171.772 C 219.090 172.306,217.168 173.038,215.907 173.398 C 214.646 173.758,213.509 174.223,213.380 174.432 C 213.251 174.641,212.439 175.172,211.575 175.613 C 209.932 176.451,204.635 180.789,203.600 182.144 C 203.270 182.576,202.474 183.485,201.831 184.164 C 200.078 186.016,196.627 192.484,196.922 193.362 C 197.003 193.603,197.305 193.080,197.593 192.200 C 197.881 191.320,198.455 190.164,198.870 189.631 C 199.284 189.098,199.953 187.928,200.356 187.031 C 201.520 184.440,208.190 178.015,211.800 176.008 C 212.680 175.519,213.670 174.892,214.000 174.616 C 214.330 174.339,215.490 173.896,216.577 173.631 C 217.665 173.366,219.375 172.774,220.377 172.315 C 221.380 171.856,223.190 171.351,224.400 171.193 L 226.600 170.905 224.379 170.852 C 222.757 170.814,221.623 171.062,220.179 171.772 M239.800 171.078 C 242.184 171.394,249.826 174.119,250.931 175.049 C 251.553 175.572,252.241 176.000,252.461 176.000 C 252.681 176.000,252.337 175.559,251.697 175.020 C 249.715 173.353,242.456 170.760,240.048 170.860 C 238.715 170.915,238.695 170.932,239.800 171.078 M317.200 171.065 C 312.867 172.523,306.877 176.000,308.698 176.000 C 308.964 176.000,309.476 175.550,309.837 175.000 C 310.197 174.450,310.719 174.000,310.996 174.000 C 311.274 174.000,312.545 173.538,313.821 172.974 C 315.098 172.409,317.055 171.701,318.171 171.400 C 319.728 170.980,319.921 170.854,319.000 170.858 C 318.340 170.861,317.530 170.954,317.200 171.065 M333.870 171.620 C 337.742 172.661,345.337 176.428,346.529 177.900 C 346.930 178.395,347.446 178.800,347.676 178.800 C 348.478 178.800,345.786 176.510,343.900 175.588 C 342.855 175.076,342.000 174.510,342.000 174.329 C 342.000 174.148,341.833 174.000,341.628 174.000 C 341.423 174.000,340.118 173.477,338.728 172.839 C 335.834 171.509,333.445 170.795,332.000 170.826 C 331.450 170.839,332.291 171.196,333.870 171.620 M288.038 173.389 C 287.040 175.909,287.459 280.339,288.472 281.458 C 289.077 282.127,289.820 282.199,296.014 282.186 C 303.435 282.172,304.015 282.000,303.991 279.824 C 303.984 279.170,303.855 279.257,303.367 280.247 C 302.317 282.374,289.390 282.612,288.437 280.522 C 288.128 279.843,288.000 264.163,288.000 226.961 C 288.000 168.931,287.889 171.539,290.329 172.232 C 290.918 172.399,293.418 172.490,295.885 172.433 C 301.419 172.306,302.637 172.549,303.388 173.933 C 303.769 174.634,303.973 174.775,303.984 174.344 C 304.033 172.357,303.034 172.067,295.638 171.918 L 288.676 171.778 288.038 173.389 M304.032 176.729 C 303.963 178.748,305.114 179.065,306.675 177.458 C 307.454 176.656,307.904 176.000,307.675 176.000 C 307.446 176.000,306.904 176.450,306.471 177.000 C 305.459 178.287,304.963 178.263,304.465 176.900 C 304.088 175.868,304.061 175.858,304.032 176.729 M348.741 179.461 C 348.986 179.935,349.820 180.919,350.593 181.649 C 351.367 182.379,352.000 183.175,352.000 183.418 C 352.000 183.662,352.436 184.270,352.968 184.770 C 353.500 185.270,354.162 186.246,354.438 186.940 C 354.714 187.633,355.283 188.699,355.703 189.308 C 356.123 189.918,356.824 191.718,357.261 193.308 C 357.699 194.899,358.344 196.830,358.695 197.600 C 359.046 198.370,359.457 200.530,359.608 202.400 L 359.882 205.800 359.941 202.715 C 359.985 200.411,359.787 199.094,359.159 197.515 C 358.696 196.352,358.071 194.464,357.770 193.321 C 357.160 191.009,354.431 185.653,352.919 183.800 C 350.876 181.296,348.314 178.635,348.741 179.461 M85.600 184.717 C 85.050 184.805,84.398 185.042,84.151 185.245 C 83.905 185.447,82.767 185.890,81.624 186.230 C 79.818 186.766,77.202 188.382,75.200 190.196 C 73.547 191.695,72.000 193.492,72.000 193.914 C 72.000 194.175,71.460 195.265,70.800 196.338 C 69.597 198.293,68.768 201.427,68.837 203.755 C 68.858 204.440,69.144 203.470,69.474 201.600 C 69.855 199.437,70.399 197.763,70.970 197.000 C 71.463 196.340,72.062 195.230,72.301 194.534 C 73.186 191.951,78.551 187.574,82.071 186.562 C 83.242 186.226,84.742 185.703,85.405 185.402 C 86.557 184.877,92.345 185.550,95.900 186.622 C 96.395 186.771,96.800 186.787,96.800 186.658 C 96.800 185.800,88.174 184.305,85.600 184.717 M231.000 184.678 C 225.491 185.048,217.683 188.946,215.606 192.364 C 215.059 193.264,214.501 194.000,214.366 194.000 C 214.232 194.000,213.807 194.765,213.422 195.700 C 213.038 196.635,212.344 198.210,211.881 199.200 C 210.323 202.527,210.499 215.039,212.122 216.314 C 213.960 217.758,214.577 217.428,219.494 212.371 C 222.082 209.709,226.360 205.335,229.000 202.652 C 231.640 199.968,234.051 197.419,234.357 196.986 C 234.664 196.554,230.299 200.870,224.658 206.578 L 214.401 216.957 213.300 216.140 C 211.532 214.828,211.110 212.894,211.306 207.000 C 211.730 194.246,218.126 187.076,230.600 185.374 C 231.700 185.223,232.870 184.948,233.200 184.762 C 233.530 184.576,233.620 184.451,233.400 184.484 C 233.180 184.517,232.100 184.605,231.000 184.678 M186.198 185.693 C 185.756 186.701,184.819 186.754,177.400 186.191 C 175.178 186.023,173.264 186.082,172.400 186.345 C 171.225 186.704,171.482 186.737,174.000 186.555 C 175.665 186.434,178.157 186.552,179.600 186.819 C 185.272 187.869,187.458 187.375,186.735 185.206 C 186.658 184.975,186.417 185.195,186.198 185.693 M235.000 185.340 C 235.660 185.620,237.233 186.091,238.495 186.387 C 242.179 187.251,242.386 187.821,239.962 190.425 C 236.785 193.836,235.967 195.309,238.938 192.266 C 242.890 188.220,243.057 186.900,239.710 186.182 C 239.100 186.052,237.874 185.687,236.987 185.372 C 234.910 184.636,233.277 184.609,235.000 185.340 M318.600 185.367 C 317.940 185.669,316.524 186.144,315.453 186.423 C 314.382 186.702,313.085 187.351,312.571 187.865 C 312.057 188.379,311.493 188.806,311.318 188.813 C 310.895 188.831,309.710 189.904,308.000 191.817 C 307.107 192.816,306.961 193.096,307.596 192.591 C 308.144 192.156,308.834 191.477,309.130 191.083 C 309.426 190.689,310.328 189.926,311.134 189.388 C 311.940 188.849,312.962 188.143,313.404 187.819 C 317.323 184.947,326.868 184.707,331.891 187.355 C 338.291 190.728,342.910 199.174,342.894 207.473 C 342.885 211.657,340.931 219.395,339.572 220.625 C 339.148 221.010,338.806 221.521,338.813 221.762 C 338.888 224.365,341.850 217.408,343.022 211.874 C 344.216 206.241,342.754 199.119,339.271 193.600 C 335.141 187.056,324.325 182.748,318.600 185.367 M99.832 188.977 C 105.131 193.143,106.336 195.495,108.756 206.400 C 109.143 208.143,109.149 208.124,108.942 205.800 C 108.605 202.013,106.822 196.470,105.147 194.000 C 103.223 191.163,98.589 186.800,97.501 186.800 C 97.260 186.800,98.309 187.779,99.832 188.977 M168.441 187.900 C 167.757 188.505,166.658 189.419,165.999 189.930 C 165.340 190.442,164.800 191.089,164.800 191.368 C 164.800 191.648,164.446 192.196,164.014 192.587 C 163.052 193.458,161.983 196.975,162.047 199.062 C 162.089 200.447,162.130 200.381,162.455 198.400 C 162.843 196.038,163.947 192.800,164.363 192.800 C 164.503 192.800,164.935 192.215,165.322 191.500 C 165.960 190.321,166.737 189.650,169.955 187.502 C 170.691 187.010,170.806 186.804,170.342 186.802 C 169.981 186.801,169.125 187.295,168.441 187.900 M54.704 190.899 C 54.109 192.075,53.358 194.198,53.036 195.618 C 52.714 197.038,52.265 198.920,52.038 199.800 C 51.308 202.634,51.083 208.064,51.566 211.200 C 52.269 215.767,53.742 222.574,53.915 222.055 C 53.999 221.802,53.592 219.206,53.010 216.287 C 51.248 207.451,52.172 196.331,55.087 191.305 C 55.628 190.373,56.006 189.419,55.929 189.186 C 55.851 188.952,55.300 189.723,54.704 190.899 M266.800 191.861 C 266.800 192.005,267.225 193.040,267.744 194.161 C 268.589 195.987,269.364 199.653,269.739 203.600 C 269.832 204.577,269.891 204.374,269.936 202.926 C 270.019 200.237,269.025 195.458,267.934 193.300 C 267.116 191.682,266.800 191.281,266.800 191.861 M305.300 195.976 C 304.585 197.278,304.016 198.761,304.036 199.272 C 304.065 200.020,304.145 199.948,304.447 198.901 C 304.653 198.187,305.267 196.947,305.811 196.146 C 306.632 194.936,307.105 193.586,306.700 193.605 C 306.645 193.607,306.015 194.675,305.300 195.976 M195.858 195.447 C 195.482 196.237,195.095 197.719,194.999 198.742 C 194.903 199.764,194.917 200.240,195.030 199.800 C 195.142 199.360,195.602 197.950,196.051 196.667 C 196.983 194.002,196.875 193.315,195.858 195.447 M247.250 198.879 C 246.232 200.023,245.008 201.328,244.529 201.779 C 243.270 202.967,240.623 205.656,237.276 209.149 C 232.006 214.649,231.712 214.978,232.802 214.156 C 233.353 213.740,235.243 211.907,237.002 210.083 C 250.809 195.763,250.409 196.027,252.228 200.062 C 253.448 202.769,253.373 213.969,252.120 216.088 C 251.636 216.907,251.115 218.244,250.962 219.060 C 250.554 221.239,246.515 225.589,243.073 227.558 C 238.663 230.081,231.518 230.772,225.200 229.287 L 222.200 228.581 221.971 226.872 C 221.761 225.309,221.838 225.104,222.871 224.495 C 223.492 224.128,224.000 223.718,224.000 223.584 C 224.000 223.451,225.802 221.502,228.006 219.254 C 230.209 217.005,231.613 215.379,231.126 215.640 C 230.639 215.900,229.421 217.028,228.420 218.146 C 227.419 219.263,225.374 221.388,223.875 222.867 C 218.926 227.750,220.412 229.545,230.125 230.419 C 237.443 231.077,245.605 228.198,248.151 224.060 C 248.343 223.747,249.120 222.805,249.876 221.968 C 250.633 221.131,251.432 219.760,251.652 218.923 C 251.871 218.085,252.355 216.770,252.726 216.000 C 254.675 211.952,253.352 198.971,250.838 197.486 C 249.266 196.557,249.342 196.528,247.250 198.879 M303.204 203.177 C 302.870 204.949,302.781 206.941,302.959 208.677 C 303.638 215.295,303.811 215.136,303.806 207.900 C 303.803 203.775,303.784 200.400,303.764 200.400 C 303.744 200.400,303.492 201.650,303.204 203.177 M161.411 205.300 C 161.250 207.775,161.181 216.968,161.256 225.730 C 161.420 244.647,162.402 242.511,153.400 242.819 L 147.000 243.039 153.113 243.119 C 157.695 243.180,159.573 243.055,160.613 242.620 L 162.000 242.041 162.000 221.420 C 162.000 210.079,161.933 200.800,161.851 200.800 C 161.770 200.800,161.572 202.825,161.411 205.300 M194.262 205.300 C 194.133 207.555,194.176 210.660,194.357 212.200 C 194.634 214.555,194.695 213.903,194.743 208.100 C 194.807 200.331,194.610 199.187,194.262 205.300 M68.528 207.600 C 68.528 209.030,68.601 209.615,68.689 208.900 C 68.778 208.185,68.778 207.015,68.689 206.300 C 68.601 205.585,68.528 206.170,68.528 207.600 M270.124 207.800 C 270.126 209.120,270.201 209.612,270.290 208.893 C 270.379 208.174,270.377 207.094,270.286 206.493 C 270.195 205.892,270.122 206.480,270.124 207.800 M359.600 210.133 C 359.600 212.882,358.895 217.170,358.344 217.780 C 358.155 217.989,358.015 218.529,358.034 218.980 C 358.056 219.530,358.337 219.212,358.886 218.015 C 359.686 216.269,360.495 207.600,359.857 207.600 C 359.715 207.600,359.600 208.740,359.600 210.133 M108.472 210.037 C 108.432 211.048,108.067 212.848,107.660 214.037 C 107.253 215.227,106.792 216.920,106.636 217.800 C 106.173 220.417,102.230 225.522,99.800 226.650 C 99.140 226.957,98.150 227.562,97.600 227.995 C 94.281 230.608,85.108 230.705,80.131 228.178 C 76.280 226.223,73.156 223.106,71.803 219.869 C 71.478 219.091,71.034 218.345,70.817 218.210 C 70.318 217.902,69.582 215.257,69.199 212.400 L 68.905 210.200 68.852 212.027 C 68.787 214.317,69.735 217.575,71.018 219.465 C 71.558 220.261,72.000 221.090,72.000 221.307 C 72.000 221.525,72.630 222.400,73.400 223.253 C 74.170 224.105,74.800 224.966,74.800 225.166 C 74.800 225.784,81.317 229.587,82.799 229.834 C 83.570 229.962,84.755 230.236,85.434 230.443 C 87.772 231.154,97.069 229.634,98.000 228.387 C 98.110 228.240,98.949 227.651,99.864 227.077 C 102.674 225.317,106.800 220.591,106.800 219.131 C 106.800 218.752,107.260 216.986,107.821 215.208 C 108.506 213.041,108.794 211.353,108.693 210.087 L 108.544 208.200 108.472 210.037 M269.663 211.600 C 269.499 214.579,268.415 220.006,267.793 220.955 C 267.434 221.502,266.902 222.857,266.609 223.965 C 266.317 225.073,265.696 226.479,265.229 227.090 C 264.762 227.700,263.490 229.370,262.402 230.800 C 260.141 233.772,260.371 233.520,258.000 235.625 C 256.306 237.128,252.000 240.000,251.440 240.000 C 251.299 240.000,250.484 240.442,249.628 240.983 C 245.459 243.614,239.957 244.894,232.600 244.943 C 226.485 244.984,226.102 245.025,228.800 245.349 C 234.893 246.080,243.701 244.692,248.200 242.292 C 248.640 242.057,250.080 241.320,251.400 240.654 C 257.736 237.455,265.614 229.274,266.838 224.621 C 267.073 223.730,267.604 222.414,268.020 221.699 C 268.968 220.064,270.096 214.165,269.893 211.905 C 269.752 210.336,269.734 210.311,269.663 211.600 M194.846 216.691 C 194.821 217.401,195.233 218.931,195.763 220.091 C 196.293 221.251,197.056 223.010,197.460 224.000 C 198.144 225.679,200.000 228.075,200.000 227.280 C 200.000 227.084,199.644 226.602,199.208 226.208 C 198.773 225.814,198.045 224.481,197.591 223.246 C 197.137 222.011,196.470 220.370,196.109 219.600 C 195.749 218.830,195.327 217.570,195.173 216.800 L 194.892 215.400 194.846 216.691 M304.041 216.669 C 304.016 217.452,304.355 218.372,304.927 219.069 C 305.437 219.691,306.085 220.776,306.367 221.479 C 306.970 222.984,310.522 226.812,311.277 226.773 C 311.565 226.758,311.395 226.551,310.900 226.312 C 310.405 226.073,310.000 225.762,310.000 225.619 C 310.000 225.477,309.280 224.612,308.400 223.696 C 307.520 222.780,306.800 221.779,306.800 221.471 C 306.800 221.163,306.321 220.212,305.735 219.356 C 305.150 218.500,304.538 217.260,304.376 216.600 L 304.082 215.400 304.041 216.669 M357.231 221.462 C 356.997 222.308,356.803 223.147,356.802 223.327 C 356.801 223.506,356.371 224.226,355.846 224.927 C 355.322 225.627,354.766 226.618,354.611 227.128 C 353.942 229.325,346.524 237.984,345.300 237.995 C 345.025 237.998,344.800 238.142,344.800 238.316 C 344.800 238.490,343.906 239.154,342.814 239.792 C 341.721 240.430,340.737 241.188,340.626 241.476 C 340.516 241.764,340.014 242.013,339.513 242.028 C 339.011 242.044,338.240 242.226,337.800 242.432 C 337.217 242.707,337.427 242.744,338.574 242.572 C 339.446 242.441,340.781 241.815,341.565 241.168 C 342.345 240.526,343.141 240.000,343.336 240.000 C 344.902 240.000,352.150 232.430,354.393 228.451 C 354.719 227.873,355.469 226.590,356.059 225.600 C 357.140 223.788,358.222 220.488,357.855 220.122 C 357.747 220.014,357.466 220.617,357.231 221.462 M337.000 224.195 C 336.120 225.148,334.950 226.160,334.400 226.445 C 333.850 226.730,333.029 227.286,332.576 227.680 C 332.122 228.075,330.772 228.745,329.576 229.169 C 328.379 229.594,327.760 229.951,328.200 229.962 C 330.428 230.019,338.800 224.345,338.800 222.778 C 338.800 222.250,338.787 222.261,337.000 224.195 M54.009 222.938 C 54.004 223.124,54.335 223.754,54.744 224.338 C 55.154 224.922,55.703 226.061,55.965 226.868 C 56.227 227.675,56.714 228.562,57.047 228.839 C 57.380 229.115,57.937 229.895,58.284 230.571 C 59.929 233.772,65.147 238.945,68.400 240.600 C 69.170 240.991,69.890 241.432,70.000 241.579 C 70.110 241.725,70.830 242.088,71.600 242.385 C 72.370 242.682,73.950 243.347,75.112 243.862 C 76.273 244.378,77.713 244.782,78.312 244.761 C 79.242 244.727,79.168 244.655,77.800 244.261 C 76.920 244.007,75.840 243.600,75.400 243.355 C 74.960 243.111,74.060 242.782,73.400 242.625 C 72.740 242.468,71.342 241.813,70.294 241.170 C 69.246 240.526,68.254 240.000,68.090 240.000 C 67.926 240.000,67.307 239.550,66.713 239.000 C 66.120 238.450,65.523 238.000,65.385 238.000 C 64.657 238.000,59.570 232.276,58.558 230.319 C 58.184 229.593,57.657 228.820,57.387 228.600 C 57.118 228.380,56.597 227.390,56.230 226.400 C 55.588 224.671,54.027 222.238,54.009 222.938 M312.159 227.133 C 313.495 229.295,320.446 231.140,324.989 230.539 C 327.272 230.237,327.135 230.207,322.400 229.981 C 317.240 229.734,314.502 228.981,313.251 227.465 C 312.697 226.794,311.776 226.515,312.159 227.133 M200.000 229.316 C 200.000 230.320,199.644 230.968,198.500 232.043 C 197.675 232.819,196.246 234.251,195.324 235.227 C 194.403 236.202,192.738 237.894,191.624 238.986 C 190.511 240.078,189.601 241.158,189.601 241.386 C 189.606 242.637,192.420 245.958,193.500 245.987 C 193.775 245.994,194.000 246.155,194.000 246.345 C 194.000 247.377,196.178 248.825,197.371 248.586 C 199.523 248.156,200.000 247.957,200.000 247.493 C 200.000 247.171,199.862 247.178,199.520 247.520 C 198.616 248.424,195.693 248.114,194.989 247.040 C 194.644 246.512,193.694 245.635,192.880 245.090 C 192.066 244.545,191.067 243.466,190.660 242.693 L 189.920 241.285 195.160 236.025 C 199.854 231.312,200.400 230.621,200.400 229.382 C 200.400 228.622,200.310 228.000,200.200 228.000 C 200.090 228.000,200.000 228.592,200.000 229.316 M304.654 237.003 C 303.944 237.713,303.427 239.160,303.763 239.497 C 303.894 239.627,304.000 239.517,304.000 239.253 C 304.000 238.988,304.282 238.342,304.626 237.817 L 305.251 236.862 307.026 238.059 C 308.002 238.718,308.800 239.387,308.800 239.545 C 308.800 240.027,313.954 242.882,314.495 242.700 C 314.773 242.607,314.325 242.307,313.500 242.034 C 312.675 241.761,312.000 241.372,312.000 241.169 C 312.000 240.966,311.774 240.800,311.497 240.800 C 311.221 240.800,310.006 239.980,308.797 238.977 C 305.773 236.467,305.378 236.279,304.654 237.003 M104.230 238.681 C 103.679 239.275,103.303 239.836,103.394 239.927 C 103.485 240.018,103.998 239.582,104.534 238.959 C 105.718 237.582,106.570 238.027,106.924 240.210 C 107.324 242.675,107.934 242.951,113.151 243.030 L 117.800 243.101 113.600 242.843 C 108.461 242.528,107.600 242.127,107.600 240.050 C 107.600 238.808,107.413 238.443,106.581 238.064 C 105.263 237.464,105.390 237.430,104.230 238.681 M207.652 238.957 C 205.996 240.340,204.352 241.992,201.440 245.200 C 199.200 247.667,200.963 246.144,205.501 241.693 L 209.280 237.987 210.611 239.093 C 213.766 241.716,221.517 244.861,224.569 244.758 C 225.447 244.729,224.998 244.511,223.000 243.998 C 217.570 242.603,215.387 241.845,214.162 240.927 C 213.481 240.417,212.749 240.000,212.534 240.000 C 212.320 240.000,211.539 239.460,210.800 238.800 C 209.182 237.355,209.593 237.335,207.652 238.957 M101.200 240.822 C 100.650 241.264,99.660 241.875,99.000 242.180 C 98.340 242.485,98.084 242.749,98.431 242.767 C 99.010 242.797,102.800 240.537,102.800 240.162 C 102.800 239.794,102.140 240.066,101.200 240.822 M95.400 243.597 C 93.904 244.507,87.249 245.263,82.918 245.014 L 79.800 244.834 82.400 245.235 C 86.324 245.840,94.094 245.008,96.200 243.757 C 97.080 243.235,97.530 242.821,97.200 242.837 C 96.870 242.853,96.060 243.195,95.400 243.597 M317.116 243.832 C 319.837 245.075,325.778 245.836,328.800 245.329 C 330.780 244.997,330.517 244.956,326.169 244.920 C 321.955 244.886,321.006 244.748,318.738 243.840 C 315.481 242.538,314.268 242.531,317.116 243.832 M333.400 243.844 C 331.941 244.444,331.471 244.758,332.200 244.644 C 333.600 244.425,337.286 242.857,336.400 242.856 C 336.070 242.856,334.720 243.301,333.400 243.844 M303.693 244.400 C 303.693 245.170,303.775 245.485,303.876 245.100 C 303.976 244.715,303.976 244.085,303.876 243.700 C 303.775 243.315,303.693 243.630,303.693 244.400 " stroke="none" fill="#848484" fill-rule="evenodd"></path><path id="path3" d="M113.400 120.422 C 110.540 120.580,108.155 120.729,108.100 120.754 C 108.045 120.779,108.000 133.366,108.000 148.724 C 108.000 178.096,108.044 177.352,106.234 178.303 C 105.596 178.638,105.155 178.393,103.597 176.835 C 101.844 175.082,100.291 174.154,95.400 171.937 C 89.372 169.205,75.531 171.047,68.458 175.523 C 63.098 178.915,56.004 186.680,55.999 189.163 C 55.998 189.513,55.606 190.430,55.129 191.200 C 52.269 195.810,51.248 207.588,52.971 216.094 C 53.537 218.890,54.000 221.469,54.000 221.827 C 54.000 222.184,54.348 222.965,54.772 223.561 C 55.197 224.158,55.853 225.446,56.230 226.423 C 56.606 227.400,57.131 228.380,57.396 228.600 C 57.661 228.820,58.184 229.593,58.558 230.319 C 59.570 232.276,64.657 238.000,65.385 238.000 C 65.523 238.000,66.120 238.450,66.713 239.000 C 67.307 239.550,67.926 240.000,68.090 240.000 C 68.254 240.000,69.246 240.524,70.294 241.164 C 71.342 241.805,72.957 242.530,73.883 242.775 C 74.809 243.021,75.659 243.371,75.771 243.554 C 76.031 243.974,79.807 244.700,83.239 244.988 C 86.811 245.288,93.856 244.496,95.600 243.599 C 96.370 243.203,97.630 242.647,98.400 242.364 C 99.170 242.081,100.357 241.433,101.038 240.925 C 101.719 240.416,102.470 240.000,102.709 240.000 C 102.947 240.000,103.470 239.587,103.871 239.081 C 105.555 236.958,107.600 237.508,107.600 240.085 C 107.600 242.394,108.877 242.800,116.133 242.800 C 121.221 242.800,122.007 242.710,122.876 242.026 L 123.859 241.253 123.930 181.941 C 123.968 149.319,123.897 122.306,123.772 121.910 C 123.457 120.919,121.507 119.986,119.920 120.068 C 119.194 120.105,116.260 120.264,113.400 120.422 M122.320 121.280 C 122.923 121.883,123.027 241.412,122.425 241.785 C 121.827 242.154,111.942 242.383,110.400 242.062 C 109.080 241.788,108.993 241.670,108.872 239.986 C 108.714 237.780,107.882 236.800,106.167 236.800 C 104.968 236.800,103.600 237.629,103.600 238.355 C 103.600 238.519,102.835 239.073,101.900 239.586 C 100.965 240.099,99.922 240.757,99.582 241.047 C 97.519 242.811,87.214 244.904,83.268 244.361 C 79.449 243.835,72.700 241.866,71.272 240.859 C 70.682 240.444,69.788 239.977,69.285 239.821 C 68.065 239.442,62.393 234.609,61.461 233.154 C 61.054 232.519,60.587 232.000,60.424 232.000 C 60.260 232.000,59.783 231.325,59.363 230.500 C 58.943 229.675,58.200 228.497,57.711 227.882 C 57.222 227.267,56.600 226.007,56.330 225.082 C 56.060 224.157,55.490 222.916,55.063 222.325 C 54.590 221.670,54.171 220.187,53.990 218.525 C 53.826 217.026,53.468 213.798,53.192 211.352 C 52.518 205.356,53.671 194.275,55.143 192.615 C 55.540 192.167,56.167 190.828,56.537 189.641 C 56.906 188.454,57.477 187.284,57.804 187.041 C 58.132 186.798,58.715 186.028,59.100 185.329 C 60.920 182.024,67.175 176.597,71.400 174.656 C 78.603 171.348,91.265 170.205,94.859 172.539 C 95.377 172.875,96.700 173.444,97.800 173.803 C 98.900 174.163,100.080 174.781,100.422 175.177 C 100.765 175.573,101.444 176.024,101.933 176.179 C 102.422 176.334,103.127 176.942,103.501 177.530 C 104.415 178.967,104.781 179.187,106.271 179.194 C 108.947 179.207,108.800 180.926,108.800 149.601 C 108.800 122.945,108.842 121.248,109.500 121.076 C 111.164 120.641,121.851 120.811,122.320 121.280 M264.800 167.125 C 264.800 167.525,264.294 168.055,259.482 172.700 C 255.039 176.989,253.402 177.378,250.600 174.815 C 246.428 170.998,226.822 169.383,220.364 172.325 C 219.369 172.779,217.665 173.366,216.577 173.631 C 215.490 173.896,214.330 174.339,214.000 174.616 C 213.670 174.892,212.680 175.519,211.800 176.008 C 208.190 178.015,201.520 184.440,200.356 187.031 C 199.953 187.928,199.286 189.098,198.874 189.631 C 198.462 190.164,197.421 192.580,196.562 195.000 L 195.000 199.400 195.004 208.400 C 195.009 217.273,195.024 217.431,196.055 219.600 C 196.630 220.810,197.318 222.480,197.585 223.310 C 197.851 224.141,198.526 225.364,199.086 226.029 C 199.700 226.759,200.179 227.917,200.296 228.956 L 200.490 230.674 195.205 235.980 L 189.920 241.285 190.660 242.693 C 191.067 243.466,192.066 244.545,192.880 245.090 C 193.694 245.635,194.644 246.512,194.989 247.040 C 196.010 248.598,198.789 248.413,200.098 246.700 C 201.434 244.951,207.900 238.482,208.784 238.008 C 209.326 237.719,209.799 237.906,210.817 238.815 C 211.547 239.467,212.320 240.000,212.534 240.000 C 212.749 240.000,213.481 240.417,214.162 240.927 C 215.412 241.864,217.556 242.598,223.400 244.092 C 231.445 246.148,243.757 244.688,249.628 240.983 C 250.484 240.442,251.299 240.000,251.440 240.000 C 252.000 240.000,256.306 237.128,258.000 235.625 C 260.371 233.520,260.141 233.772,262.402 230.800 C 263.490 229.370,264.762 227.700,265.229 227.090 C 265.696 226.479,266.317 225.073,266.609 223.965 C 266.902 222.857,267.434 221.502,267.793 220.954 C 270.360 217.037,270.358 199.928,267.791 194.200 C 267.298 193.100,266.690 191.578,266.439 190.817 C 266.189 190.057,265.653 189.067,265.250 188.617 C 263.302 186.449,262.679 182.000,264.323 182.000 C 265.168 182.000,271.928 174.832,272.382 173.454 L 272.880 171.946 270.540 169.420 C 268.331 167.035,264.800 165.623,264.800 167.125 M270.124 170.027 C 272.506 172.388,272.514 174.288,270.147 175.684 C 269.406 176.121,268.800 176.727,268.800 177.029 C 268.800 177.332,268.252 177.863,267.583 178.209 C 266.913 178.555,266.198 179.280,265.993 179.819 C 265.787 180.361,265.296 180.800,264.896 180.800 C 264.076 180.800,262.800 182.710,262.800 183.938 C 262.800 184.386,262.623 184.862,262.407 184.996 C 261.989 185.254,263.504 187.880,265.077 189.622 C 265.585 190.184,266.003 190.994,266.006 191.422 C 266.014 192.464,267.060 195.414,267.848 196.618 C 269.660 199.382,269.355 215.705,267.415 219.806 C 266.843 221.014,266.217 222.852,266.023 223.890 C 265.829 224.927,265.469 225.844,265.224 225.925 C 264.978 226.007,264.154 227.003,263.392 228.137 C 261.214 231.381,259.488 233.523,258.371 234.368 C 257.805 234.796,256.761 235.689,256.051 236.353 C 255.340 237.016,254.363 237.682,253.880 237.833 C 253.396 237.984,252.910 238.230,252.800 238.379 C 252.325 239.021,246.427 241.894,244.600 242.372 C 243.500 242.660,241.430 243.246,240.000 243.674 C 236.214 244.807,229.629 244.801,225.425 243.661 C 223.678 243.188,221.878 242.797,221.425 242.794 C 219.315 242.779,212.388 239.552,210.576 237.739 C 209.653 236.817,209.490 236.780,208.683 237.310 C 207.035 238.391,204.800 240.545,204.800 241.052 C 204.800 241.329,204.307 241.793,203.704 242.082 C 203.101 242.371,202.371 243.101,202.082 243.704 C 201.793 244.307,201.314 244.800,201.018 244.800 C 200.721 244.800,200.107 245.430,199.653 246.200 C 198.593 247.997,197.208 248.069,195.552 246.414 C 194.900 245.761,193.881 244.995,193.288 244.711 C 192.695 244.426,192.147 243.835,192.071 243.397 C 191.995 242.959,191.633 242.364,191.266 242.075 C 190.659 241.597,190.698 241.479,191.700 240.742 C 192.305 240.297,192.800 239.683,192.800 239.377 C 192.800 239.071,193.340 238.541,194.000 238.200 C 194.660 237.859,195.200 237.411,195.200 237.205 C 195.200 236.999,195.920 236.118,196.800 235.247 C 197.680 234.376,198.400 233.469,198.400 233.231 C 198.400 232.994,198.611 232.800,198.869 232.800 C 201.128 232.800,201.602 227.955,199.581 225.504 C 198.911 224.691,198.109 223.050,197.798 221.857 C 197.487 220.664,196.845 218.944,196.371 218.034 C 194.868 215.150,194.859 200.156,196.359 198.222 C 196.539 197.990,197.011 196.540,197.408 195.000 C 198.194 191.953,198.669 190.817,199.414 190.200 C 199.680 189.980,200.094 189.209,200.333 188.486 C 200.921 186.712,206.633 180.000,207.556 180.000 C 207.712 180.000,208.565 179.303,209.451 178.450 C 210.338 177.598,211.725 176.662,212.532 176.370 C 213.339 176.078,214.000 175.702,214.000 175.534 C 214.000 175.031,215.455 174.407,217.560 174.008 C 218.649 173.801,220.319 173.280,221.270 172.850 C 224.973 171.175,238.922 170.830,241.886 172.340 C 242.957 172.886,246.400 173.931,248.110 174.229 C 248.940 174.374,249.840 174.803,250.110 175.183 C 252.512 178.565,255.699 177.569,261.576 171.596 C 266.176 166.922,266.864 166.795,270.124 170.027 M172.800 171.181 C 170.821 171.589,166.191 174.249,165.425 175.418 C 164.679 176.557,163.091 176.727,162.316 175.751 C 162.032 175.393,161.251 174.511,160.579 173.790 L 159.358 172.478 153.088 172.539 C 146.945 172.599,146.799 172.620,145.909 173.600 L 145.000 174.600 145.113 208.242 L 145.226 241.883 146.232 242.342 C 147.733 243.026,159.116 242.929,160.394 242.221 L 161.388 241.671 161.256 225.135 C 161.079 203.163,161.806 194.585,164.014 192.587 C 164.446 192.196,164.800 191.648,164.800 191.368 C 164.800 191.089,165.340 190.442,165.999 189.930 C 166.658 189.419,167.729 188.532,168.378 187.959 C 170.570 186.026,173.954 185.712,182.701 186.633 C 185.632 186.942,186.259 186.596,186.638 184.460 C 186.781 183.657,187.280 182.373,187.749 181.607 C 188.506 180.369,190.173 176.413,190.617 174.800 C 191.380 172.030,179.945 169.707,172.800 171.181 M318.171 171.400 C 317.055 171.701,315.098 172.409,313.821 172.974 C 312.545 173.538,311.274 174.000,310.996 174.000 C 310.719 174.000,310.197 174.450,309.837 175.000 C 309.476 175.550,308.936 176.000,308.636 176.000 C 308.337 176.000,307.454 176.656,306.675 177.458 C 305.036 179.146,304.000 178.740,304.000 176.409 C 304.000 172.923,302.680 172.277,295.885 172.433 C 293.418 172.490,290.918 172.399,290.329 172.232 C 287.889 171.539,288.000 168.931,288.000 226.961 C 288.000 264.163,288.128 279.843,288.437 280.522 C 288.921 281.584,295.517 282.240,300.520 281.723 C 304.208 281.343,304.062 282.328,303.979 258.488 C 303.894 233.930,303.684 234.900,308.292 238.610 C 309.782 239.809,311.148 240.792,311.329 240.795 C 311.509 240.798,311.890 241.033,312.176 241.319 C 312.461 241.604,313.483 242.079,314.447 242.374 C 315.411 242.670,317.350 243.352,318.756 243.891 C 323.027 245.527,328.912 245.368,334.511 243.465 C 336.882 242.659,339.183 242.000,339.623 242.000 C 340.064 242.000,340.516 241.764,340.626 241.476 C 340.737 241.188,341.721 240.430,342.814 239.792 C 343.906 239.154,344.800 238.490,344.800 238.316 C 344.800 238.142,345.025 237.998,345.300 237.995 C 346.524 237.984,353.942 229.325,354.611 227.128 C 354.766 226.618,355.322 225.627,355.846 224.927 C 356.371 224.226,356.800 223.482,356.800 223.273 C 356.800 222.832,357.933 218.982,358.410 217.800 C 359.991 213.885,360.165 200.832,358.680 197.570 C 358.337 196.816,357.699 194.899,357.261 193.308 C 356.824 191.718,356.123 189.918,355.703 189.308 C 355.283 188.699,354.714 187.633,354.438 186.940 C 354.162 186.246,353.500 185.270,352.968 184.770 C 352.436 184.270,352.000 183.635,352.000 183.359 C 352.000 183.084,351.587 182.530,351.081 182.129 C 350.576 181.728,349.732 180.815,349.206 180.100 C 348.680 179.385,348.026 178.800,347.754 178.800 C 347.481 178.800,346.930 178.395,346.529 177.900 C 345.295 176.377,337.704 172.648,333.704 171.600 C 330.012 170.633,321.424 170.522,318.171 171.400 M185.062 171.841 C 188.955 173.132,190.203 174.321,189.454 176.024 C 189.121 176.781,188.743 177.900,188.614 178.510 C 188.485 179.121,188.023 179.977,187.588 180.412 C 187.152 180.848,186.592 182.058,186.343 183.102 C 186.094 184.146,185.841 185.199,185.780 185.442 C 185.618 186.089,183.124 186.390,181.344 185.977 C 176.901 184.946,168.918 185.883,167.734 187.573 C 167.396 188.056,166.684 188.616,166.152 188.818 C 165.621 189.020,165.020 189.622,164.817 190.154 C 164.615 190.687,164.057 191.488,163.578 191.934 C 162.637 192.812,161.297 196.872,160.786 200.400 C 160.611 201.610,160.452 211.364,160.434 222.076 C 160.413 234.323,160.255 241.643,160.008 241.795 C 159.443 242.144,147.963 242.197,146.934 241.855 L 146.067 241.567 146.101 207.985 L 146.135 174.403 147.067 173.793 C 147.809 173.306,149.122 173.201,153.500 173.277 C 159.678 173.384,160.800 173.857,160.800 176.358 C 160.800 177.685,161.380 178.271,162.118 177.687 C 162.383 177.476,163.275 177.183,164.099 177.034 C 165.187 176.838,165.757 176.457,166.177 175.645 C 166.552 174.920,167.400 174.279,168.585 173.827 C 169.591 173.443,170.674 172.869,170.991 172.552 C 172.096 171.447,182.318 170.930,185.062 171.841 M330.845 171.598 C 332.030 171.818,333.360 172.165,333.800 172.370 C 334.240 172.575,335.860 173.136,337.400 173.617 C 338.940 174.097,340.382 174.717,340.605 174.992 C 341.035 175.525,344.485 177.200,345.151 177.200 C 345.368 177.200,345.650 177.528,345.777 177.928 C 345.904 178.328,346.636 178.955,347.404 179.321 C 348.172 179.688,348.800 180.256,348.800 180.584 C 348.800 180.913,349.259 181.482,349.820 181.850 C 350.382 182.218,351.086 182.987,351.387 183.559 C 351.687 184.132,352.307 184.997,352.765 185.482 C 353.223 185.967,353.972 187.315,354.431 188.478 C 354.889 189.641,355.388 190.684,355.540 190.796 C 356.059 191.179,356.800 193.236,356.809 194.319 C 356.815 194.913,357.258 196.468,357.795 197.773 C 359.545 202.032,359.502 210.501,357.694 217.200 C 357.249 218.850,356.767 220.876,356.624 221.702 C 356.480 222.527,356.035 223.517,355.633 223.902 C 355.232 224.286,354.667 225.320,354.377 226.200 C 354.088 227.080,353.547 228.081,353.175 228.424 C 352.803 228.767,352.225 229.577,351.891 230.224 C 350.598 232.723,345.519 237.443,342.200 239.229 C 341.320 239.703,340.240 240.413,339.800 240.808 C 339.360 241.203,337.740 241.826,336.200 242.191 C 334.660 242.557,332.479 243.214,331.353 243.653 C 328.343 244.825,322.601 244.694,320.000 243.393 C 319.450 243.118,317.703 242.580,316.117 242.197 C 314.531 241.813,312.928 241.162,312.555 240.750 C 312.181 240.337,311.656 240.000,311.387 240.000 C 311.118 240.000,310.665 239.719,310.381 239.377 C 308.878 237.566,305.124 235.165,304.545 235.645 C 303.198 236.763,303.144 237.672,303.172 258.526 C 303.189 271.181,303.050 279.634,302.818 279.995 C 302.225 280.917,289.397 281.091,289.049 280.182 C 288.705 279.286,288.658 174.349,289.001 173.502 C 289.157 173.119,289.466 172.917,289.689 173.055 C 289.912 173.193,292.870 173.327,296.262 173.353 C 303.146 173.405,303.183 173.420,303.194 176.174 C 303.206 179.263,305.482 180.524,306.853 178.200 C 307.307 177.430,307.933 176.800,308.243 176.800 C 308.553 176.800,309.365 176.267,310.046 175.616 C 310.749 174.944,312.260 174.149,313.537 173.777 C 314.776 173.417,316.292 172.863,316.905 172.546 C 319.182 171.368,326.802 170.851,330.845 171.598 M82.400 184.970 C 81.410 185.518,80.080 186.074,79.445 186.205 C 78.810 186.336,77.825 186.973,77.256 187.621 C 76.687 188.270,76.043 188.800,75.825 188.800 C 75.312 188.800,71.600 192.854,71.600 193.415 C 71.600 193.650,71.053 194.586,70.384 195.496 C 69.403 196.829,69.059 197.878,68.603 200.915 C 68.292 202.985,67.843 205.112,67.604 205.640 C 66.897 207.208,68.776 217.418,70.142 219.428 C 70.724 220.285,71.200 221.199,71.200 221.460 C 71.200 221.721,71.920 222.684,72.800 223.600 C 73.680 224.516,74.400 225.428,74.400 225.628 C 74.400 225.827,75.161 226.470,76.091 227.058 C 77.021 227.645,78.025 228.368,78.322 228.665 C 79.114 229.457,79.964 229.829,82.200 230.360 C 83.300 230.621,84.793 231.109,85.519 231.445 C 86.976 232.119,87.265 232.086,93.600 230.527 C 96.281 229.867,98.209 229.150,98.931 228.546 C 99.553 228.026,100.196 227.600,100.360 227.600 C 100.861 227.600,104.800 223.763,104.800 223.275 C 104.800 223.024,105.228 222.538,105.752 222.195 C 106.340 221.809,106.898 220.850,107.211 219.685 C 107.490 218.648,108.064 217.016,108.488 216.059 C 110.096 212.420,110.169 203.376,108.618 199.800 C 108.332 199.140,107.786 197.700,107.406 196.600 C 107.026 195.500,106.396 194.319,106.007 193.976 C 105.618 193.633,105.016 192.805,104.670 192.135 C 104.324 191.466,103.357 190.340,102.520 189.632 C 101.684 188.924,100.613 187.995,100.140 187.569 C 99.667 187.142,98.506 186.520,97.560 186.186 C 96.614 185.852,95.504 185.275,95.093 184.903 C 93.716 183.657,84.685 183.704,82.400 184.970 M227.200 184.273 C 226.870 184.388,225.963 184.801,225.184 185.191 C 224.405 185.581,223.182 186.028,222.466 186.185 C 221.750 186.343,220.677 186.923,220.082 187.476 C 219.487 188.028,218.534 188.722,217.965 189.017 C 217.396 189.312,216.416 190.238,215.787 191.076 C 215.157 191.914,214.505 192.696,214.337 192.814 C 210.991 195.157,208.884 208.830,210.813 215.688 C 211.574 218.394,214.101 219.242,215.703 217.328 C 216.777 216.044,224.527 208.059,226.890 205.800 C 227.811 204.920,228.933 203.794,229.382 203.298 C 229.832 202.802,231.296 201.272,232.637 199.898 C 233.977 198.524,235.288 196.995,235.551 196.500 C 235.813 196.005,236.298 195.600,236.628 195.600 C 236.957 195.600,237.599 194.970,238.053 194.200 C 238.507 193.430,239.093 192.800,239.355 192.800 C 241.126 192.800,243.568 187.755,242.350 186.612 C 240.223 184.615,230.514 183.116,227.200 184.273 M317.556 184.937 C 316.587 185.453,315.113 186.002,314.281 186.158 C 313.358 186.332,312.359 186.901,311.718 187.621 C 311.140 188.269,310.480 188.800,310.250 188.800 C 309.657 188.800,306.000 192.712,306.000 193.347 C 306.000 193.638,305.553 194.396,305.006 195.032 C 304.362 195.781,303.789 197.246,303.378 199.194 C 303.029 200.847,302.558 202.583,302.330 203.051 C 301.091 205.603,303.144 218.464,305.158 220.761 C 305.621 221.290,306.000 221.969,306.000 222.270 C 306.000 222.846,310.153 227.200,310.702 227.200 C 310.878 227.200,311.607 227.734,312.322 228.388 C 313.037 229.041,314.382 229.767,315.311 230.003 C 316.240 230.238,317.649 230.709,318.442 231.050 C 320.475 231.923,325.902 231.945,327.214 231.085 C 327.762 230.726,329.115 230.238,330.221 230.001 C 331.327 229.764,332.765 229.110,333.416 228.547 C 334.067 227.985,335.095 227.267,335.700 226.952 C 336.305 226.637,336.800 226.126,336.800 225.817 C 336.800 225.507,337.162 225.139,337.604 224.999 C 338.047 224.858,338.702 224.171,339.060 223.472 C 339.418 222.772,340.132 221.775,340.646 221.255 C 341.160 220.736,341.702 219.663,341.850 218.872 C 341.999 218.081,342.557 216.479,343.092 215.312 C 344.477 212.287,344.572 203.343,343.247 200.800 C 342.780 199.904,342.241 198.475,342.050 197.625 C 341.488 195.125,338.078 190.238,335.900 188.813 C 334.855 188.128,334.000 187.411,334.000 187.217 C 334.000 187.024,333.151 186.542,332.112 186.145 C 331.074 185.749,329.596 185.104,328.828 184.712 C 326.579 183.566,319.884 183.700,317.556 184.937 M93.478 185.439 C 105.270 188.679,111.874 202.379,107.824 215.199 C 107.261 216.982,106.800 218.752,106.800 219.131 C 106.800 220.591,102.674 225.317,99.864 227.077 C 98.949 227.651,98.110 228.240,98.000 228.387 C 97.069 229.634,87.772 231.154,85.434 230.443 C 84.755 230.236,83.570 229.962,82.799 229.834 C 81.317 229.587,74.800 225.784,74.800 225.166 C 74.800 224.966,74.170 224.105,73.400 223.253 C 72.630 222.400,72.000 221.525,72.000 221.307 C 72.000 221.090,71.555 220.255,71.011 219.454 C 67.824 214.758,67.700 201.377,70.795 196.346 C 71.458 195.269,72.000 194.175,72.000 193.914 C 72.000 193.492,73.547 191.695,75.200 190.196 C 77.202 188.382,79.818 186.766,81.624 186.230 C 82.767 185.890,83.905 185.447,84.151 185.245 C 85.213 184.374,89.962 184.473,93.478 185.439 M237.200 185.476 C 243.669 187.348,243.676 187.554,237.490 193.840 C 235.779 195.578,232.089 199.371,229.290 202.269 C 213.326 218.795,214.283 218.012,212.122 216.314 C 210.499 215.039,210.323 202.527,211.881 199.200 C 212.344 198.210,213.038 196.635,213.422 195.700 C 213.807 194.765,214.232 194.000,214.366 194.000 C 214.501 194.000,215.059 193.264,215.606 192.364 C 218.189 188.114,228.267 183.916,234.000 184.703 C 234.550 184.778,235.990 185.126,237.200 185.476 M329.126 185.856 C 333.618 187.407,336.983 189.975,339.271 193.600 C 344.384 201.701,344.641 215.374,339.790 221.139 C 339.245 221.786,338.800 222.505,338.800 222.736 C 338.800 223.771,333.557 227.924,330.600 229.231 C 325.909 231.304,317.296 230.930,313.925 228.508 C 313.076 227.899,311.869 227.130,311.243 226.800 C 309.711 225.993,306.967 222.984,306.361 221.446 C 306.091 220.760,305.504 219.791,305.057 219.290 C 304.209 218.343,303.452 214.403,302.964 208.400 C 302.630 204.287,303.798 198.698,305.714 195.243 C 307.080 192.779,310.510 188.800,311.269 188.800 C 311.471 188.800,312.057 188.379,312.571 187.865 C 313.085 187.351,314.382 186.702,315.453 186.423 C 316.524 186.144,317.940 185.669,318.600 185.367 C 320.673 184.419,325.629 184.649,329.126 185.856 M246.966 198.100 C 245.962 199.035,244.879 200.295,244.560 200.900 C 244.241 201.505,243.783 202.000,243.543 202.000 C 243.018 202.000,240.486 204.570,239.479 206.123 C 239.082 206.736,238.337 207.428,237.823 207.662 C 237.309 207.897,236.692 208.518,236.453 209.044 C 236.213 209.570,235.764 210.000,235.454 210.000 C 235.145 210.000,234.592 210.630,234.227 211.400 C 233.861 212.170,233.297 212.800,232.973 212.800 C 232.648 212.800,232.191 213.220,231.957 213.734 C 231.723 214.248,230.996 214.985,230.340 215.372 C 229.685 215.759,228.953 216.505,228.713 217.030 C 228.474 217.555,227.944 218.091,227.535 218.221 C 227.126 218.350,226.519 218.984,226.185 219.628 C 225.852 220.273,225.310 220.800,224.980 220.800 C 224.650 220.800,224.207 221.254,223.996 221.810 C 223.785 222.365,223.004 223.179,222.259 223.618 C 219.440 225.281,220.014 229.272,223.155 229.851 C 223.950 229.997,225.320 230.375,226.200 230.692 C 228.876 231.653,235.641 231.996,236.579 231.217 C 236.821 231.017,238.423 230.476,240.140 230.016 C 243.145 229.211,246.362 227.290,248.001 225.322 C 251.481 221.144,252.007 220.320,252.994 217.498 C 254.657 212.742,254.547 201.691,252.799 197.934 C 251.812 195.814,249.345 195.885,246.966 198.100 M250.838 197.486 C 253.352 198.971,254.675 211.952,252.726 216.000 C 252.355 216.770,251.871 218.085,251.652 218.923 C 251.432 219.760,250.633 221.131,249.876 221.968 C 249.120 222.805,248.343 223.747,248.151 224.060 C 245.605 228.198,237.443 231.077,230.125 230.419 C 218.414 229.366,218.397 227.720,229.983 216.600 C 230.957 215.665,233.478 213.085,237.400 209.008 C 240.731 205.546,243.334 202.907,244.529 201.779 C 245.008 201.328,246.232 200.023,247.250 198.879 C 249.342 196.528,249.266 196.557,250.838 197.486 " stroke="none" fill="#747474" fill-rule="evenodd"></path><path id="path4" d="M113.264 119.174 C 105.066 119.497,105.987 115.777,106.006 148.520 C 106.014 163.490,105.873 175.887,105.692 176.068 C 105.511 176.249,104.569 175.587,103.598 174.598 C 102.628 173.609,101.536 172.800,101.173 172.800 C 100.809 172.800,99.860 172.358,99.064 171.818 C 94.743 168.885,76.857 168.885,72.536 171.818 C 71.740 172.358,70.692 172.800,70.207 172.800 C 69.332 172.800,63.600 176.547,63.600 177.119 C 63.600 177.284,62.970 177.757,62.200 178.172 C 61.430 178.587,60.800 179.163,60.800 179.454 C 60.800 179.744,60.368 180.264,59.840 180.610 C 59.313 180.956,58.664 181.761,58.400 182.400 C 58.136 183.039,57.532 183.815,57.059 184.125 C 56.585 184.435,55.850 185.658,55.424 186.842 C 54.998 188.026,54.316 189.352,53.909 189.790 C 53.502 190.227,53.103 190.948,53.022 191.392 C 52.379 194.913,51.920 196.537,51.429 197.028 C 49.762 198.695,49.803 216.146,51.478 217.821 C 52.155 218.498,52.776 220.748,52.790 222.578 C 52.796 223.255,53.205 224.191,53.751 224.778 C 54.274 225.340,55.013 226.758,55.393 227.929 C 55.772 229.099,56.344 230.157,56.664 230.280 C 56.983 230.402,57.594 231.247,58.022 232.157 C 59.148 234.554,63.855 239.359,66.257 240.566 C 67.376 241.128,68.510 241.851,68.777 242.172 C 69.043 242.493,70.174 243.059,71.289 243.429 C 72.404 243.800,73.903 244.501,74.620 244.987 C 77.101 246.672,94.550 246.668,96.469 244.982 C 96.981 244.533,98.444 243.825,99.720 243.410 C 100.997 242.996,102.167 242.432,102.320 242.158 C 102.474 241.883,103.281 241.197,104.114 240.632 C 105.698 239.557,105.706 239.561,106.173 241.695 C 106.643 243.842,107.606 244.074,116.040 244.074 L 123.707 244.074 124.754 243.028 L 125.800 241.982 125.915 182.214 C 126.043 115.561,126.226 120.034,123.332 119.230 C 122.489 118.996,121.170 118.837,120.400 118.876 C 119.630 118.916,116.419 119.050,113.264 119.174 M123.511 120.623 L 124.400 121.245 124.400 181.361 L 124.400 241.476 123.558 242.238 C 122.796 242.927,122.036 243.000,115.629 243.000 C 107.704 243.000,107.359 242.890,106.924 240.210 C 106.574 238.054,105.718 237.582,104.573 238.913 C 104.059 239.511,103.535 240.000,103.410 240.000 C 103.284 240.000,102.265 240.630,101.145 241.400 C 100.026 242.170,98.831 242.800,98.490 242.800 C 98.149 242.800,97.134 243.225,96.235 243.744 C 92.483 245.912,79.870 245.948,75.000 243.805 C 73.900 243.321,72.370 242.682,71.600 242.385 C 70.830 242.088,70.110 241.725,70.000 241.579 C 69.890 241.432,69.170 240.991,68.400 240.600 C 65.962 239.359,61.520 235.336,59.688 232.708 C 59.186 231.989,58.332 230.770,57.791 230.000 C 57.249 229.230,56.530 227.970,56.193 227.200 C 55.856 226.430,55.371 225.440,55.116 225.000 C 53.963 223.010,53.602 221.878,52.562 217.000 C 51.325 211.202,51.049 203.368,51.962 200.000 C 52.230 199.010,52.715 197.030,53.038 195.600 C 53.362 194.170,54.161 191.972,54.813 190.716 C 55.466 189.460,56.000 188.247,56.000 188.020 C 56.000 187.793,56.832 186.391,57.850 184.904 C 62.238 178.488,69.669 173.234,77.400 171.080 C 80.958 170.089,93.564 170.477,95.800 171.646 C 96.900 172.221,98.250 172.832,98.800 173.003 C 100.287 173.465,103.872 176.069,104.440 177.100 C 104.976 178.074,105.464 178.200,106.400 177.609 C 106.921 177.279,107.026 173.524,107.200 149.126 L 107.400 121.023 108.400 120.518 C 109.977 119.720,122.345 119.806,123.511 120.623 M261.500 168.437 C 259.575 170.403,258.000 172.188,258.000 172.405 C 258.000 172.622,257.742 172.800,257.427 172.800 C 257.112 172.800,256.460 173.354,255.978 174.031 C 254.950 175.475,253.683 175.393,251.978 173.771 C 251.416 173.237,250.660 172.800,250.297 172.800 C 249.448 172.800,247.600 171.961,247.600 171.575 C 247.600 169.168,220.083 169.035,218.164 171.432 C 217.925 171.732,216.665 172.250,215.364 172.585 C 214.064 172.920,212.701 173.555,212.336 173.997 C 211.971 174.439,211.482 174.800,211.249 174.800 C 210.325 174.800,207.995 176.187,207.779 176.865 C 207.654 177.262,206.950 177.871,206.215 178.220 C 205.480 178.568,204.785 179.215,204.669 179.656 C 204.554 180.098,204.098 180.554,203.656 180.669 C 203.215 180.785,202.568 181.480,202.220 182.215 C 201.871 182.950,201.249 183.658,200.837 183.788 C 200.424 183.919,199.719 184.875,199.269 185.913 C 198.819 186.951,198.079 188.027,197.625 188.303 C 197.102 188.623,196.800 189.224,196.800 189.948 C 196.800 190.575,196.372 191.719,195.849 192.490 C 194.530 194.434,194.106 196.048,193.857 200.072 C 193.739 201.982,193.418 204.633,193.143 205.963 C 192.757 207.835,192.749 208.812,193.110 210.290 C 193.366 211.341,193.682 213.550,193.812 215.200 C 194.124 219.180,194.744 221.893,195.397 222.143 C 195.689 222.255,196.216 223.337,196.568 224.548 C 196.989 225.996,197.467 226.831,197.967 226.989 C 199.487 227.472,199.348 230.422,197.772 231.140 C 197.250 231.378,196.704 232.042,196.560 232.616 C 196.414 233.197,195.875 233.819,195.342 234.022 C 194.816 234.222,194.215 234.834,194.007 235.382 C 193.799 235.929,193.200 236.485,192.675 236.617 C 188.038 237.781,187.684 244.129,192.131 246.393 C 192.753 246.709,193.454 247.328,193.690 247.768 C 194.276 248.864,195.662 249.971,196.467 249.987 C 197.895 250.015,200.693 248.479,200.931 247.537 C 201.060 247.022,201.576 246.420,202.076 246.200 C 202.576 245.980,203.195 245.376,203.451 244.858 C 203.707 244.340,204.340 243.704,204.858 243.446 C 205.376 243.188,206.035 242.487,206.322 241.888 C 206.609 241.290,207.172 240.800,207.573 240.800 C 207.974 240.800,208.530 240.525,208.808 240.190 C 209.242 239.667,209.406 239.659,209.957 240.136 C 210.311 240.442,211.083 240.807,211.673 240.947 C 212.264 241.087,212.852 241.534,212.981 241.940 C 213.119 242.376,213.907 242.878,214.908 243.169 C 215.838 243.438,217.487 244.114,218.571 244.671 C 222.686 246.782,240.535 246.876,245.000 244.810 C 246.320 244.199,248.120 243.460,249.000 243.168 C 249.880 242.875,250.960 242.330,251.400 241.956 C 251.840 241.583,252.896 240.990,253.746 240.640 C 254.596 240.289,255.946 239.444,256.746 238.762 C 261.082 235.063,262.000 234.183,262.000 233.723 C 262.000 233.446,262.416 232.946,262.924 232.613 C 263.433 232.280,264.241 231.309,264.721 230.456 C 265.200 229.602,265.855 228.687,266.174 228.421 C 266.494 228.156,267.062 227.007,267.437 225.869 C 267.811 224.731,268.513 223.325,268.996 222.743 C 269.656 221.950,269.939 220.934,270.131 218.666 C 270.271 217.005,270.749 214.690,271.193 213.523 C 272.169 210.955,272.245 206.941,271.388 203.200 C 271.060 201.770,270.537 198.931,270.225 196.892 C 269.784 194.016,269.426 192.909,268.629 191.961 C 268.063 191.289,267.600 190.473,267.600 190.149 C 267.600 189.261,266.406 187.133,265.493 186.394 C 264.632 185.696,264.758 182.800,265.650 182.800 C 266.184 182.800,270.800 178.192,270.800 177.659 C 270.800 177.436,271.175 177.135,271.632 176.990 C 272.536 176.703,274.803 173.430,274.796 172.422 C 274.794 172.080,273.306 170.225,271.491 168.300 C 266.915 163.448,266.378 163.456,261.500 168.437 M270.516 168.870 C 272.954 171.448,273.208 171.869,272.993 172.971 C 272.707 174.438,271.977 176.000,271.578 176.000 C 271.420 176.000,269.657 177.603,267.661 179.562 C 263.254 183.885,263.046 184.632,265.325 187.945 C 266.136 189.125,266.800 190.350,266.800 190.668 C 266.800 190.986,267.233 192.022,267.763 192.971 C 270.810 198.429,270.972 216.610,268.020 221.699 C 267.604 222.414,267.073 223.730,266.838 224.621 C 265.614 229.274,257.736 237.455,251.400 240.654 C 250.080 241.320,248.640 242.057,248.200 242.292 C 238.149 247.653,218.914 246.020,210.615 239.101 L 209.297 238.002 204.649 242.528 C 202.092 245.016,200.000 247.254,200.000 247.499 C 200.000 247.957,199.518 248.156,197.371 248.586 C 196.178 248.825,194.000 247.377,194.000 246.345 C 194.000 246.155,193.775 245.994,193.500 245.987 C 192.420 245.958,189.606 242.637,189.601 241.386 C 189.601 241.158,190.511 240.078,191.624 238.986 C 192.738 237.894,194.403 236.202,195.324 235.227 C 196.246 234.251,197.675 232.819,198.500 232.043 C 200.337 230.316,200.572 228.218,199.097 226.718 C 198.600 226.213,197.862 224.990,197.456 224.000 C 197.050 223.010,196.294 221.210,195.775 220.000 C 193.881 215.585,193.655 201.543,195.402 196.800 C 197.289 191.676,198.008 190.021,198.943 188.644 C 199.524 187.788,200.000 186.880,200.000 186.625 C 200.000 186.370,200.675 185.431,201.500 184.538 C 202.325 183.645,203.270 182.564,203.600 182.136 C 204.649 180.776,209.944 176.445,211.575 175.613 C 212.439 175.172,213.251 174.641,213.380 174.432 C 213.509 174.223,214.646 173.757,215.907 173.396 C 217.168 173.034,219.190 172.259,220.400 171.673 C 223.438 170.202,239.666 170.078,243.800 171.495 C 248.255 173.022,250.528 174.036,251.697 175.020 C 254.001 176.959,254.852 176.568,260.411 171.023 C 266.654 164.795,266.663 164.793,270.516 168.870 M172.400 169.956 C 169.814 170.254,168.000 170.919,168.000 171.568 C 168.000 171.756,167.348 172.218,166.552 172.596 C 165.755 172.974,165.014 173.625,164.905 174.042 C 164.563 175.349,163.319 174.958,163.037 173.455 C 162.529 170.747,162.035 170.600,153.419 170.600 C 145.184 170.600,144.721 170.702,143.965 172.693 C 143.098 174.973,143.510 242.088,144.397 242.976 C 145.293 243.874,157.275 244.591,160.400 243.934 C 163.331 243.318,163.199 244.418,163.206 220.456 C 163.211 203.928,163.332 198.632,163.733 197.400 C 164.610 194.709,166.847 190.400,167.367 190.400 C 167.638 190.400,168.712 189.794,169.754 189.053 C 172.639 187.002,179.973 186.715,181.838 188.581 C 183.637 190.380,186.707 188.849,187.570 185.722 C 187.781 184.961,188.390 183.764,188.925 183.062 C 189.460 182.361,190.026 181.030,190.182 180.105 C 190.338 179.180,190.785 178.013,191.174 177.512 C 193.117 175.006,193.046 174.103,190.733 171.939 C 188.658 169.998,180.090 169.071,172.400 169.956 M318.200 169.974 C 315.085 170.324,314.408 170.549,312.444 171.881 C 311.698 172.386,310.758 172.800,310.353 172.800 C 309.949 172.800,309.332 173.237,308.982 173.772 C 308.631 174.306,307.646 175.089,306.792 175.512 C 305.021 176.388,304.809 176.194,304.787 173.667 C 304.762 170.707,304.509 170.615,296.028 170.476 L 288.488 170.352 287.709 171.476 C 287.281 172.094,286.801 172.957,286.642 173.393 C 286.295 174.349,286.319 278.350,286.667 280.527 C 287.081 283.121,287.732 283.307,296.104 283.230 C 305.981 283.140,304.820 286.182,304.823 260.379 C 304.825 238.691,304.934 237.011,306.202 238.947 C 306.582 239.526,307.096 240.000,307.346 240.000 C 307.596 240.000,308.501 240.625,309.358 241.388 C 310.215 242.150,311.835 243.076,312.958 243.444 C 314.081 243.811,315.493 244.458,316.095 244.880 C 318.722 246.721,331.632 246.773,335.459 244.958 C 336.592 244.421,338.435 243.709,339.555 243.376 C 340.676 243.043,342.036 242.328,342.578 241.786 C 343.120 241.244,343.813 240.800,344.118 240.800 C 345.021 240.800,352.800 233.648,352.800 232.818 C 352.800 232.608,353.260 231.976,353.822 231.414 C 354.384 230.852,355.121 229.719,355.460 228.896 C 355.799 228.073,356.418 227.029,356.836 226.577 C 357.254 226.124,357.757 224.890,357.954 223.834 C 358.151 222.778,358.689 221.406,359.148 220.785 C 361.404 217.734,361.572 196.960,359.362 194.388 C 359.072 194.052,358.557 192.702,358.216 191.388 C 357.875 190.075,357.261 188.544,356.851 187.988 C 356.441 187.431,355.721 186.222,355.252 185.301 C 354.782 184.380,354.038 183.434,353.599 183.199 C 353.159 182.964,352.800 182.521,352.800 182.215 C 352.800 181.909,352.282 181.240,351.650 180.729 C 351.017 180.218,350.291 179.395,350.036 178.900 C 349.781 178.405,349.312 178.000,348.995 178.000 C 348.678 178.000,348.132 177.563,347.783 177.030 C 347.433 176.496,346.653 175.888,346.049 175.677 C 345.446 175.467,344.692 175.041,344.376 174.731 C 343.226 173.606,341.803 172.800,340.966 172.800 C 340.494 172.800,339.630 172.321,339.044 171.735 C 337.417 170.108,325.756 169.123,318.200 169.974 M187.229 171.297 C 189.958 172.449,191.721 174.356,191.030 175.410 C 190.704 175.908,190.061 177.433,189.601 178.798 C 189.141 180.163,188.423 181.757,188.007 182.340 C 187.590 182.923,187.057 184.144,186.822 185.053 C 186.096 187.860,185.753 187.944,179.600 186.818 C 176.392 186.231,171.290 186.609,169.901 187.538 C 166.737 189.651,165.957 190.326,165.322 191.500 C 164.935 192.215,164.503 192.800,164.363 192.800 C 163.918 192.800,162.846 196.108,162.419 198.800 C 162.175 200.335,162.005 209.727,162.003 221.720 L 162.000 242.041 160.613 242.620 C 158.453 243.523,147.843 243.434,146.085 242.499 L 144.770 241.800 144.772 208.200 C 144.773 189.720,144.780 174.290,144.787 173.910 C 144.815 172.428,146.790 172.000,153.598 172.000 C 160.694 172.000,160.438 171.915,162.519 174.951 C 163.476 176.349,164.184 176.273,165.637 174.619 C 166.304 173.860,167.243 173.116,167.725 172.967 C 168.206 172.817,169.140 172.314,169.800 171.849 C 171.948 170.335,184.041 169.952,187.229 171.297 M334.600 171.214 C 335.480 171.469,337.338 172.200,338.728 172.839 C 340.118 173.477,341.423 174.000,341.628 174.000 C 341.833 174.000,342.000 174.148,342.000 174.329 C 342.000 174.510,342.855 175.077,343.900 175.590 C 345.923 176.582,346.946 177.419,350.025 180.600 C 353.815 184.517,356.695 189.246,357.770 193.321 C 358.071 194.464,358.713 196.390,359.195 197.600 C 360.470 200.796,360.268 215.043,358.903 218.200 C 358.428 219.300,357.835 221.010,357.585 222.000 C 357.336 222.990,356.649 224.610,356.059 225.600 C 355.469 226.590,354.719 227.873,354.393 228.451 C 352.150 232.430,344.902 240.000,343.336 240.000 C 343.141 240.000,342.345 240.526,341.565 241.168 C 340.786 241.810,339.451 242.467,338.599 242.627 C 337.747 242.787,336.048 243.322,334.825 243.817 C 327.149 246.922,314.206 244.856,309.012 239.697 C 308.513 239.201,307.462 238.359,306.678 237.827 L 305.253 236.860 304.673 237.745 C 304.186 238.489,304.086 241.990,304.054 259.527 C 304.030 272.305,303.863 280.708,303.624 281.155 C 302.890 282.527,289.773 282.745,288.435 281.407 C 287.466 280.437,287.069 175.845,288.026 173.400 L 288.652 171.800 295.626 171.925 C 303.205 172.061,304.000 172.314,304.000 174.585 C 304.000 177.427,305.208 178.607,306.471 177.000 C 306.904 176.450,307.461 176.000,307.710 176.000 C 307.959 176.000,308.710 175.496,309.381 174.879 C 313.484 171.106,327.298 169.098,334.600 171.214 M85.400 185.376 C 84.740 185.694,83.242 186.228,82.071 186.564 C 78.553 187.572,73.186 191.950,72.301 194.534 C 72.062 195.230,71.465 196.340,70.973 197.000 C 68.371 200.490,68.319 215.238,70.897 218.340 C 71.199 218.703,71.671 219.528,71.948 220.174 C 73.239 223.190,76.405 226.287,80.131 228.178 C 85.108 230.705,94.281 230.608,97.600 227.995 C 98.150 227.562,99.140 226.957,99.800 226.650 C 102.129 225.569,106.133 220.471,106.595 218.000 C 106.738 217.230,107.210 215.500,107.642 214.155 C 108.868 210.344,108.805 205.878,107.455 200.800 C 105.047 191.745,99.953 186.990,91.200 185.629 C 89.550 185.372,87.840 185.081,87.400 184.981 C 86.960 184.881,86.060 185.059,85.400 185.376 M231.000 185.243 C 217.547 187.623,211.737 194.041,211.306 207.000 C 211.110 212.897,211.532 214.828,213.304 216.143 L 214.408 216.962 221.830 209.381 C 244.260 186.468,243.472 187.555,238.495 186.387 C 237.233 186.091,235.621 185.613,234.913 185.324 C 234.205 185.036,233.485 184.820,233.313 184.845 C 233.141 184.869,232.100 185.049,231.000 185.243 M319.000 185.810 C 318.120 186.111,316.666 186.545,315.768 186.776 C 313.228 187.427,306.800 192.628,306.800 194.032 C 306.800 194.393,306.361 195.336,305.823 196.127 C 302.970 200.332,302.828 214.940,305.599 219.123 C 306.259 220.121,306.800 221.183,306.800 221.484 C 306.800 221.785,307.520 222.780,308.400 223.696 C 309.280 224.612,310.000 225.485,310.000 225.637 C 310.000 225.789,310.675 226.209,311.500 226.570 C 312.325 226.931,313.592 227.657,314.315 228.183 C 318.054 230.905,329.966 230.511,332.621 227.577 C 333.007 227.150,333.546 226.800,333.817 226.800 C 334.511 226.800,338.800 222.572,338.800 221.888 C 338.800 221.578,339.148 221.010,339.572 220.625 C 340.931 219.395,342.885 211.657,342.894 207.473 C 342.910 199.174,338.291 190.728,331.891 187.355 C 328.487 185.560,322.004 184.783,319.000 185.810 M239.523 187.752 C 240.136 188.131,239.080 190.265,237.769 191.296 C 237.262 191.694,236.731 192.386,236.589 192.833 C 236.448 193.280,235.894 193.812,235.359 194.016 C 234.823 194.219,234.207 194.856,233.988 195.432 C 233.769 196.007,233.254 196.565,232.844 196.673 C 232.433 196.780,231.907 197.286,231.675 197.796 C 231.442 198.307,230.700 199.050,230.026 199.448 C 229.352 199.847,228.800 200.484,228.800 200.864 C 228.800 201.245,228.307 201.793,227.704 202.082 C 227.101 202.371,226.371 203.101,226.082 203.704 C 225.793 204.307,225.301 204.800,224.988 204.800 C 224.676 204.800,224.137 205.348,223.791 206.017 C 223.445 206.687,222.724 207.434,222.188 207.678 C 221.653 207.922,221.106 208.465,220.973 208.885 C 220.840 209.305,220.316 209.838,219.809 210.068 C 219.303 210.299,218.691 210.921,218.450 211.450 C 218.209 211.979,217.602 212.598,217.101 212.827 C 216.601 213.055,215.869 213.803,215.475 214.489 C 213.252 218.361,211.031 208.934,212.815 203.200 C 213.260 201.770,213.797 199.728,214.009 198.661 C 214.221 197.595,214.845 196.186,215.397 195.531 C 215.949 194.875,216.400 194.131,216.400 193.877 C 216.400 193.230,219.942 190.000,220.652 190.000 C 220.973 190.000,221.670 189.567,222.199 189.037 C 224.483 186.753,236.468 185.864,239.523 187.752 M95.481 187.662 C 96.540 187.929,97.710 188.541,98.093 189.028 C 98.475 189.513,99.240 190.024,99.794 190.163 C 100.347 190.302,100.800 190.672,100.800 190.985 C 100.800 191.298,101.312 191.857,101.937 192.227 C 102.571 192.601,103.306 193.541,103.597 194.349 C 103.884 195.147,104.460 196.098,104.878 196.463 C 105.707 197.187,107.333 206.187,107.015 208.296 C 106.924 208.903,106.631 211.290,106.364 213.600 C 105.930 217.368,105.104 220.000,104.357 220.000 C 104.209 220.000,103.797 220.724,103.443 221.609 C 103.089 222.493,102.387 223.405,101.883 223.635 C 101.379 223.864,100.795 224.423,100.584 224.875 C 100.373 225.328,99.535 225.921,98.723 226.194 C 97.911 226.467,96.667 227.177,95.959 227.773 L 94.672 228.856 88.768 228.728 C 83.337 228.610,82.764 228.526,81.617 227.677 C 80.931 227.169,79.649 226.500,78.768 226.189 C 76.937 225.543,76.526 225.181,75.249 223.095 C 74.743 222.267,74.009 221.419,73.619 221.210 C 73.229 221.001,72.802 220.169,72.671 219.360 C 72.540 218.551,71.930 217.165,71.316 216.280 C 69.281 213.346,69.508 200.263,71.628 198.288 C 72.050 197.895,72.596 196.776,72.842 195.801 C 73.154 194.559,73.694 193.718,74.644 192.994 C 75.390 192.425,76.000 191.726,76.000 191.440 C 76.000 191.155,76.733 190.591,77.629 190.187 C 78.525 189.783,79.503 189.103,79.802 188.676 C 81.016 186.942,90.250 186.345,95.481 187.662 M330.271 187.733 C 330.893 188.055,331.744 188.697,332.163 189.159 C 332.582 189.622,333.243 190.000,333.633 190.000 C 334.023 190.000,334.760 190.518,335.271 191.150 C 335.782 191.783,336.605 192.509,337.100 192.764 C 337.622 193.033,338.001 193.600,338.001 194.114 C 338.002 194.601,338.407 195.616,338.901 196.368 C 340.594 198.944,340.788 199.402,340.794 200.827 C 340.797 201.611,340.988 203.271,341.218 204.516 C 341.949 208.470,340.751 216.894,339.208 218.652 C 338.544 219.409,337.997 220.427,337.994 220.914 C 337.986 222.011,337.692 222.433,336.330 223.299 C 335.742 223.673,335.150 224.328,335.014 224.755 C 334.865 225.226,333.987 225.812,332.784 226.245 C 331.693 226.637,330.800 227.164,330.800 227.415 C 330.800 228.396,328.665 228.800,323.481 228.798 C 318.253 228.796,315.200 228.339,315.200 227.559 C 315.200 227.337,314.255 226.735,313.100 226.220 C 311.621 225.561,310.851 224.936,310.495 224.107 C 310.218 223.460,309.538 222.688,308.986 222.392 C 308.356 222.055,307.726 221.135,307.296 219.924 C 306.919 218.862,306.315 217.900,305.955 217.786 C 304.082 217.191,304.257 199.613,306.152 198.040 C 306.501 197.750,307.092 196.545,307.465 195.361 C 307.900 193.982,308.417 193.121,308.906 192.966 C 309.325 192.833,309.846 192.213,310.064 191.587 C 310.334 190.813,310.823 190.371,311.599 190.200 C 312.225 190.063,313.246 189.473,313.868 188.890 C 316.033 186.860,327.077 186.081,330.271 187.733 M244.879 201.960 C 242.393 204.512,236.678 210.359,232.179 214.954 C 227.681 219.548,224.000 223.425,224.000 223.568 C 224.000 223.711,223.492 224.128,222.871 224.495 C 221.838 225.104,221.761 225.309,221.971 226.872 L 222.200 228.581 225.200 229.287 C 231.518 230.772,238.663 230.081,243.073 227.558 C 246.515 225.589,250.554 221.239,250.962 219.060 C 251.115 218.244,251.636 216.907,252.120 216.088 C 253.374 213.967,253.448 202.769,252.227 200.059 C 250.635 196.530,250.013 196.691,244.879 201.960 M250.400 199.364 C 250.400 199.621,250.758 200.533,251.196 201.392 C 252.745 204.430,252.969 212.627,251.548 214.267 C 250.698 215.248,250.000 217.413,250.000 219.068 C 250.000 220.119,249.779 220.518,249.000 220.873 C 248.450 221.123,248.000 221.488,248.000 221.683 C 248.000 222.357,244.175 225.861,242.989 226.274 C 242.335 226.502,241.099 227.164,240.244 227.744 C 237.834 229.380,224.197 229.181,223.127 227.495 C 222.672 226.779,222.729 225.200,223.210 225.200 C 223.851 225.200,230.400 218.519,230.400 217.864 C 230.400 217.542,230.923 217.096,231.562 216.873 C 232.202 216.650,232.841 216.102,232.983 215.654 C 233.125 215.207,233.597 214.728,234.031 214.590 C 234.466 214.452,235.131 213.858,235.509 213.270 C 235.887 212.681,236.591 211.880,237.074 211.490 C 237.557 211.099,238.057 210.451,238.184 210.050 C 238.311 209.649,238.866 209.116,239.416 208.866 C 239.966 208.615,240.590 207.953,240.802 207.395 C 241.014 206.836,241.506 206.258,241.894 206.110 C 242.282 205.962,243.164 205.291,243.854 204.620 C 244.543 203.949,245.329 203.196,245.601 202.948 C 247.163 201.518,248.445 199.934,248.804 198.990 C 249.219 197.898,250.400 198.175,250.400 199.364 " stroke="none" fill="#ababab" fill-rule="evenodd"></path></g></svg>