<?xml version="1.0" standalone="no"?>
<!DOCTYPE svg PUBLIC "-//W3C//DTD SVG 20010904//EN"
 "http://www.w3.org/TR/2001/REC-SVG-20010904/DTD/svg10.dtd">
<svg version="1.0" xmlns="http://www.w3.org/2000/svg"
 width="150.000000pt" height="150.000000pt" viewBox="0 0 150.000000 150.000000"
 preserveAspectRatio="xMidYMid meet">

<g transform="translate(0.000000,150.000000) scale(0.100000,-0.100000)"
fill="#000000" stroke="none">
<path d="M400 940 l0 -111 -22 15 c-50 35 -144 5 -166 -52 -21 -54 -23 -72
-13 -109 22 -80 117 -128 176 -89 14 9 25 12 25 6 0 -5 14 -10 30 -10 29 0 30
1 30 50 0 28 1 130 1 228 l0 177 -30 3 -31 3 0 -111z m-23 -154 c35 -30 39
-95 8 -125 -50 -49 -125 -16 -125 55 0 44 15 72 43 84 34 14 44 12 74 -14z"/>
<path d="M975 859 c-11 -11 -25 -17 -35 -13 -8 3 -35 8 -60 11 -105 10 -178
-91 -140 -193 9 -22 7 -31 -10 -49 -19 -20 -19 -23 -5 -35 14 -11 19 -10 37 7
18 19 23 19 47 7 58 -31 156 -1 186 56 18 35 20 99 3 134 -9 21 -8 29 6 45 9
10 14 25 10 35 -8 20 -14 20 -39 -5z m-80 -55 c13 -6 7 -17 -36 -60 -29 -30
-57 -54 -61 -54 -4 0 -8 11 -8 25 0 64 53 109 105 89z m55 -74 c0 -44 -20 -80
-49 -87 -26 -7 -62 -5 -70 3 -6 6 100 114 111 114 4 0 8 -13 8 -30z"/>
<path d="M636 853 c-3 -4 -27 -6 -51 -4 l-45 2 0 -131 0 -130 34 0 34 0 0 90
c0 102 8 120 57 120 24 0 34 6 43 24 9 20 8 25 -4 30 -21 8 -59 8 -68 -1z"/>
<path d="M1080 648 l0 -208 30 0 30 0 0 85 c0 47 2 85 3 85 2 0 18 -7 36 -16
46 -23 92 -11 130 31 38 44 49 96 30 149 -25 72 -120 110 -177 70 -12 -8 -22
-11 -22 -6 0 5 -13 12 -30 14 l-30 5 0 -209z m177 138 c34 -29 39 -92 9 -125
-25 -27 -79 -28 -106 -1 -31 31 -28 102 6 129 35 27 57 26 91 -3z"/>
</g>
</svg>
